<mxfile host="65bd71144e">
    <diagram name="Page-1" id="ov0APZ6uydpl5W5BX3L0">
        <mxGraphModel dx="450" dy="641" grid="1" gridSize="10" guides="1" tooltips="1" connect="1" arrows="1" fold="1" page="1" pageScale="1" pageWidth="850" pageHeight="1100" math="0" shadow="0">
            <root>
                <mxCell id="0"/>
                <mxCell id="1" parent="0"/>
                <mxCell id="2" value="" style="shape=image;verticalLabelPosition=bottom;labelBackgroundColor=default;verticalAlign=top;aspect=fixed;imageAspect=0;image=data:image/svg+xml,PHN2ZyB4bWxuczp4bGluaz0iaHR0cDovL3d3dy53My5vcmcvMTk5OS94bGluayIgeG1sbnM9Imh0dHA6Ly93d3cudzMub3JnLzIwMDAvc3ZnIiB4bWw6c3BhY2U9InByZXNlcnZlIiBzdHJva2UtbGluZWpvaW49InJvdW5kIiBzdHJva2Utd2lkdGg9IjI4LjIyMiIgZmlsbC1ydWxlPSJldmVub2RkIiBwcmVzZXJ2ZUFzcGVjdFJhdGlvPSJ4TWlkWU1pZCIgdmlld0JveD0iMTQwMCA2MjggMjUyMDAgODg3NCIgdmVyc2lvbj0iMS4yIiB3aWR0aD0iMjUyMDAiIGhlaWdodD0iODg3NCI+CiA8ZGVmcyBjbGFzcz0iQ2xpcFBhdGhHcm91cCI+CiAgPGNsaXBQYXRoIGNsaXBQYXRoVW5pdHM9InVzZXJTcGFjZU9uVXNlIiBpZD0icHJlc2VudGF0aW9uX2NsaXBfcGF0aCI+CiAgIDxyZWN0IGhlaWdodD0iMTU3NTAiIHdpZHRoPSIyODAwMCIgeT0iMCIgeD0iMCIvPgogIDwvY2xpcFBhdGg+CiAgPGNsaXBQYXRoIGNsaXBQYXRoVW5pdHM9InVzZXJTcGFjZU9uVXNlIiBpZD0icHJlc2VudGF0aW9uX2NsaXBfcGF0aF9zaHJpbmsiPgogICA8cmVjdCBoZWlnaHQ9IjE1NzE5IiB3aWR0aD0iMjc5NDQiIHk9IjE1IiB4PSIyOCIvPgogIDwvY2xpcFBhdGg+CiA8L2RlZnM+CiA8ZGVmcz4KICA8ZyBpZD0ib29vOm1ldGFfc2xpZGVzIj4KICAgPGcgaWQ9Im9vbzptZXRhX2R1bW15X3NsaWRlIi8+CiAgIDxnIGlkPSJvb286bWV0YV9zbGlkZV8wIi8+CiAgPC9nPgogPC9kZWZzPgogPGRlZnMgaWQ9InByZXNlbnRhdGlvbi1hbmltYXRpb25zIi8+CiA8ZGVmcz4KICA8Zm9udCBpZD0iRW1iZWRkZWRGb250XzEiPgogICAKICAgCiAgIDxnbHlwaCBkPSJNIDU1NCw4IEMgNDk1LC04IDQzNCwtMTYgMzcyLC0xNiAyMjgsLTE2IDE1Niw2NiAxNTYsMjI5IEwgMTU2LDk1MSAzMSw5NTEgMzEsMTA4MiAxNjMsMTA4MiAyMTYsMTMyNCAzMzYsMTMyNCAzMzYsMTA4MiA1MzYsMTA4MiA1MzYsOTUxIDMzNiw5NTEgMzM2LDI2OCBDIDMzNiwyMTYgMzQ1LDE4MCAzNjIsMTU5IDM3OSwxMzggNDA4LDEyNyA0NTAsMTI3IDQ3NCwxMjcgNTA5LDEzMiA1NTQsMTQxIEwgNTU0LDggWiIgdW5pY29kZT0idCIvPgogICA8Z2x5cGggZD0iTSA5NTAsMjk5IEMgOTUwLDE5NyA5MTIsMTE4IDgzNSw2MyA3NTgsOCA2NTAsLTIwIDUxMSwtMjAgMzc2LC0yMCAyNzMsMiAyMDAsNDcgMTI3LDkxIDc5LDE2MCA1NywyNTQgTCAyMTYsMjg1IEMgMjMxLDIyNyAyNjMsMTg1IDMxMSwxNTggMzU5LDEzMSA0MjYsMTE3IDUxMSwxMTcgNjAyLDExNyA2NjksMTMxIDcxMiwxNTkgNzU0LDE4NyA3NzUsMjI5IDc3NSwyODUgNzc1LDMyOCA3NjAsMzYyIDczMSwzODkgNzAyLDQxNiA2NTQsNDM4IDU4OSw0NTUgTCA0NjAsNDg5IEMgMzU3LDUxNiAyODMsNTQyIDI0MCw1NjggMTk2LDU5MyAxNjIsNjI0IDEzNyw2NjEgMTEyLDY5OCAxMDAsNzQzIDEwMCw3OTYgMTAwLDg5NSAxMzUsOTcwIDIwNiwxMDIyIDI3NiwxMDczIDM3OCwxMDk5IDUxMywxMDk5IDYzMiwxMDk5IDcyNywxMDc4IDc5OCwxMDM2IDg2OCw5OTQgOTEyLDkyNyA5MzEsODM0IEwgNzY5LDgxNCBDIDc1OSw4NjIgNzMyLDg5OSA2ODksOTI1IDY0NSw5NTAgNTg2LDk2MyA1MTMsOTYzIDQzMiw5NjMgMzcyLDk1MSAzMzMsOTI2IDI5NCw5MDEgMjc1LDg2NCAyNzUsODE0IDI3NSw3ODMgMjgzLDc1OCAyOTksNzM4IDMxNSw3MTggMzM5LDcwMSAzNzAsNjg3IDQwMSw2NzMgNDY3LDY1NCA1NjgsNjI5IDY2Myw2MDUgNzMyLDU4MyA3NzQsNTYzIDgxNiw1NDIgODQ5LDUyMCA4NzQsNDk1IDg5OCw0NzAgOTE3LDQ0MiA5MzAsNDEwIDk0MywzNzcgOTUwLDM0MCA5NTAsMjk5IFoiIHVuaWNvZGU9InMiLz4KICAgPGdseXBoIGQ9Ik0gMTQyLDAgTCAxNDIsODMwIEMgMTQyLDkwNiAxNDAsOTkwIDEzNiwxMDgyIEwgMzA2LDEwODIgQyAzMTEsOTU5IDMxNCw4ODYgMzE0LDg2MSBMIDMxOCw4NjEgQyAzNDcsOTU0IDM4MCwxMDE3IDQxNywxMDUxIDQ1NCwxMDg1IDUwNywxMTAyIDU3NSwxMTAyIDU5OSwxMTAyIDYyMywxMDk5IDY0OCwxMDkyIEwgNjQ4LDkyNyBDIDYyNCw5MzQgNTkyLDkzNyA1NTIsOTM3IDQ3Nyw5MzcgNDIwLDkwNSAzODEsODQxIDM0Miw3NzYgMzIyLDY4NCAzMjIsNTY0IEwgMzIyLDAgMTQyLDAgWiIgdW5pY29kZT0iciIvPgogICA8Z2x5cGggZD0iTSAxMDUzLDU0NiBDIDEwNTMsMTY5IDkyMCwtMjAgNjU1LC0yMCA0ODgsLTIwIDM3Niw0MyAzMTksMTY4IEwgMzE0LDE2OCBDIDMxNywxNjMgMzE4LDEwNiAzMTgsLTIgTCAzMTgsLTQyNSAxMzgsLTQyNSAxMzgsODYxIEMgMTM4LDk3MiAxMzYsMTA0NiAxMzIsMTA4MiBMIDMwNiwxMDgyIEMgMzA3LDEwNzkgMzA4LDEwNzAgMzA5LDEwNTQgMzEwLDEwMzcgMzEyLDEwMTIgMzE0LDk3OCAzMTUsOTQ0IDMxNiw5MjEgMzE2LDkwOCBMIDMyMCw5MDggQyAzNTIsOTc1IDM5NCwxMDI0IDQ0NywxMDU1IDUwMCwxMDg2IDU2OSwxMTAxIDY1NSwxMTAxIDc4OCwxMTAxIDg4OCwxMDU2IDk1NCw5NjcgMTAyMCw4NzggMTA1Myw3MzcgMTA1Myw1NDYgWiBNIDg2NCw1NDIgQyA4NjQsNjkzIDg0NCw4MDAgODAzLDg2NSA3NjIsOTMwIDY5OCw5NjIgNjA5LDk2MiA1MzgsOTYyIDQ4Miw5NDcgNDQyLDkxNyA0MDEsODg3IDM3MSw4NDAgMzUwLDc3NyAzMjksNzEzIDMxOCw2MzAgMzE4LDUyOCAzMTgsMzg2IDM0MSwyODEgMzg2LDIxNCA0MzEsMTQ3IDUwNSwxMTMgNjA3LDExMyA2OTYsMTEzIDc2MiwxNDYgODAzLDIxMiA4NDQsMjc3IDg2NCwzODcgODY0LDU0MiBaIiB1bmljb2RlPSJwIi8+CiAgIDxnbHlwaCBkPSJNIDEwNTMsNTQyIEMgMTA1MywzNTMgMTAxMSwyMTIgOTI4LDExOSA4NDUsMjYgNzI0LC0yMCA1NjUsLTIwIDQwNywtMjAgMjg4LDI4IDIwNywxMjUgMTI2LDIyMSA4NiwzNjAgODYsNTQyIDg2LDkxNSAyNDgsMTEwMiA1NzEsMTEwMiA3MzYsMTEwMiA4NTgsMTA1NyA5MzYsOTY2IDEwMTQsODc1IDEwNTMsNzMzIDEwNTMsNTQyIFogTSA4NjQsNTQyIEMgODY0LDY5MSA4NDIsODAwIDc5OCw4NjggNzUzLDkzNSA2NzksOTY5IDU3NCw5NjkgNDY5LDk2OSAzOTMsOTM1IDM0Niw4NjYgMjk5LDc5NyAyNzUsNjg5IDI3NSw1NDIgMjc1LDM5OSAyOTgsMjkyIDM0NSwyMjEgMzkxLDE0OSA0NjQsMTEzIDU2MywxMTMgNjcxLDExMyA3NDgsMTQ4IDc5NSwyMTcgODQxLDI4NiA4NjQsMzk1IDg2NCw1NDIgWiIgdW5pY29kZT0ibyIvPgogICA8Z2x5cGggZD0iTSA3NjgsMCBMIDc2OCw2ODYgQyA3NjgsNzkxIDc1NCw4NjMgNzI1LDkwMyA2OTYsOTQzIDY0NSw5NjMgNTcwLDk2MyA0OTMsOTYzIDQzMyw5MzQgMzg4LDg3NSAzNDMsODE2IDMyMSw3MzQgMzIxLDYyNyBMIDMyMSwwIDE0MiwwIDE0Miw4NTEgQyAxNDIsOTc3IDE0MCwxMDU0IDEzNiwxMDgyIEwgMzA2LDEwODIgQyAzMDcsMTA3OSAzMDcsMTA3MCAzMDgsMTA1NSAzMDksMTA0MCAzMTAsMTAyNCAzMTEsMTAwNSAzMTIsOTg2IDMxMyw5NTAgMzE0LDg5NyBMIDMxNyw4OTcgQyAzNTYsOTc0IDQwMCwxMDI3IDQ1MCwxMDU3IDUwMCwxMDg3IDU2MSwxMTAyIDYzMywxMTAyIDcxNSwxMTAyIDc4MCwxMDg2IDgyOCwxMDUzIDg3NSwxMDIwIDkwOCw5NjggOTI3LDg5NyBMIDkzMCw4OTcgQyA5NjcsOTcwIDEwMTMsMTAyMiAxMDY2LDEwNTQgMTExOSwxMDg2IDExODMsMTEwMiAxMjU4LDExMDIgMTM2NywxMTAyIDE0NDcsMTA3MiAxNDk3LDEwMTMgMTU0Niw5NTQgMTU3MSw4NTYgMTU3MSw3MjEgTCAxNTcxLDAgMTM5MywwIDEzOTMsNjg2IEMgMTM5Myw3OTEgMTM3OSw4NjMgMTM1MCw5MDMgMTMyMSw5NDMgMTI3MCw5NjMgMTE5NSw5NjMgMTExNiw5NjMgMTA1NSw5MzQgMTAxMiw4NzYgOTY4LDgxNyA5NDYsNzM0IDk0Niw2MjcgTCA5NDYsMCA3NjgsMCBaIiB1bmljb2RlPSJtIi8+CiAgIDxnbHlwaCBkPSJNIDEzOCwwIEwgMTM4LDE0ODQgMzE4LDE0ODQgMzE4LDAgMTM4LDAgWiIgdW5pY29kZT0ibCIvPgogICA8Z2x5cGggZD0iTSAxMzcsMTMxMiBMIDEzNywxNDg0IDMxNywxNDg0IDMxNywxMzEyIDEzNywxMzEyIFogTSAxMzcsMCBMIDEzNywxMDgyIDMxNywxMDgyIDMxNywwIDEzNywwIFoiIHVuaWNvZGU9ImkiLz4KICAgPGdseXBoIGQ9Ik0gMzYxLDk1MSBMIDM2MSwwIDE4MSwwIDE4MSw5NTEgMjksOTUxIDI5LDEwODIgMTgxLDEwODIgMTgxLDEyMDQgQyAxODEsMTMwMyAyMDMsMTM3NCAyNDYsMTQxNyAyODksMTQ2MCAzNTYsMTQ4MiA0NDUsMTQ4MiA0OTUsMTQ4MiA1MzcsMTQ3OCA1NzIsMTQ3MCBMIDU3MiwxMzMzIEMgNTQyLDEzMzggNTE1LDEzNDEgNDkyLDEzNDEgNDQ2LDEzNDEgNDEzLDEzMjkgMzkyLDEzMDYgMzcxLDEyODMgMzYxLDEyNDAgMzYxLDExNzkgTCAzNjEsMTA4MiA1NzIsMTA4MiA1NzIsOTUxIDM2MSw5NTEgWiIgdW5pY29kZT0iZiIvPgogICA8Z2x5cGggZD0iTSAyNzYsNTAzIEMgMjc2LDM3OSAzMDIsMjgzIDM1MywyMTYgNDA0LDE0OSA0NzksMTE1IDU3OCwxMTUgNjU2LDExNSA3MTksMTMxIDc2NiwxNjIgODEzLDE5MyA4NDQsMjMzIDg2MSwyODEgTCAxMDE5LDIzNiBDIDk1NCw2NSA4MDcsLTIwIDU3OCwtMjAgNDE4LC0yMCAyOTYsMjggMjEzLDEyMyAxMjksMjE4IDg3LDM2MCA4Nyw1NDggODcsNzI3IDEyOSw4NjQgMjEzLDk1OSAyOTYsMTA1NCA0MTYsMTEwMiA1NzEsMTEwMiA4ODksMTEwMiAxMDQ4LDkxMCAxMDQ4LDUyNyBMIDEwNDgsNTAzIDI3Niw1MDMgWiBNIDg2Miw2NDEgQyA4NTIsNzU1IDgyMyw4MzggNzc1LDg5MSA3MjcsOTQzIDY1OCw5NjkgNTY4LDk2OSA0ODEsOTY5IDQxMiw5NDAgMzYxLDg4MiAzMTAsODIzIDI4Miw3NDMgMjc4LDY0MSBMIDg2Miw2NDEgWiIgdW5pY29kZT0iZSIvPgogICA8Z2x5cGggZD0iTSA3MzEsLTIwIEMgNjE2LC0yMCA1MTUsMSA0MjksNDMgMzQzLDg1IDI3NiwxNDYgMjI5LDIyNiAxODIsMzA2IDE1OCw0MDEgMTU4LDUxMiBMIDE1OCwxNDA5IDM0OSwxNDA5IDM0OSw1MjggQyAzNDksMzk5IDM4MiwzMDIgNDQ3LDIzNSA1MTIsMTY4IDYwNywxMzUgNzMwLDEzNSA4NTcsMTM1IDk1NSwxNzAgMTAyNiwyMzkgMTA5NiwzMDggMTEzMSw0MDggMTEzMSw1NDEgTCAxMTMxLDE0MDkgMTMyMSwxNDA5IDEzMjEsNTMwIEMgMTMyMSw0MTYgMTI5NywzMTggMTI0OSwyMzUgMTIwMCwxNTIgMTEzMiw4OSAxMDQ0LDQ2IDk1NSwyIDg1MSwtMjAgNzMxLC0yMCBaIiB1bmljb2RlPSJVIi8+CiAgIDxnbHlwaCBkPSJNIDcyMCwxMjUzIEwgNzIwLDAgNTMwLDAgNTMwLDEyNTMgNDYsMTI1MyA0NiwxNDA5IDEyMDQsMTQwOSAxMjA0LDEyNTMgNzIwLDEyNTMgWiIgdW5pY29kZT0iVCIvPgogICA8Z2x5cGggZD0iTSAxMTY0LDAgTCA3OTgsNTg1IDM1OSw1ODUgMzU5LDAgMTY4LDAgMTY4LDE0MDkgODMxLDE0MDkgQyA5OTAsMTQwOSAxMTEyLDEzNzQgMTE5OSwxMzAzIDEyODUsMTIzMiAxMzI4LDExMzMgMTMyOCwxMDA2IDEzMjgsOTAxIDEyOTgsODEzIDEyMzcsNzQyIDExNzYsNjcxIDEwOTEsNjI2IDk4NCw2MDcgTCAxMzg0LDAgMTE2NCwwIFogTSAxMTM2LDEwMDQgQyAxMTM2LDEwODYgMTEwOCwxMTQ5IDEwNTMsMTE5MiA5OTcsMTIzNSA5MTcsMTI1NiA4MTIsMTI1NiBMIDM1OSwxMjU2IDM1OSw3MzYgODIwLDczNiBDIDkyMSw3MzYgOTk5LDc2MCAxMDU0LDgwNyAxMTA5LDg1NCAxMTM2LDkxOSAxMTM2LDEwMDQgWiIgdW5pY29kZT0iUiIvPgogICA8Z2x5cGggZD0iTSAxNjgsMCBMIDE2OCwxNDA5IDM1OSwxNDA5IDM1OSwxNTYgMTA3MSwxNTYgMTA3MSwwIDE2OCwwIFoiIHVuaWNvZGU9IkwiLz4KICAgPGdseXBoIGQ9Ik0gMTg5LDAgTCAxODksMTQwOSAzODAsMTQwOSAzODAsMCAxODksMCBaIiB1bmljb2RlPSJJIi8+CiAgIDxnbHlwaCBkPSJNIDEwMzYsMTI2MyBDIDg5MiwxMDQzIDc5MCw4NzEgNzMxLDc0NiA2NzIsNjIxIDYyNyw0OTggNTk4LDM3NyA1NjgsMjU2IDU1MywxMzAgNTUzLDAgTCAzNjUsMCBDIDM2NSwxODAgNDAzLDM3MCA0ODAsNTY5IDU1Niw3NjggNjgzLDk5NyA4NjIsMTI1NiBMIDEwNSwxMjU2IDEwNSwxNDA5IDEwMzYsMTQwOSAxMDM2LDEyNjMgWiIgdW5pY29kZT0iNyIvPgogICA8Z2x5cGggZD0iTSAxMDQ5LDQ2MSBDIDEwNDksMzEyIDEwMDksMTk1IDkyOCwxMDkgODQ3LDIzIDczNiwtMjAgNTk0LC0yMCA0MzUsLTIwIDMxNCwzOSAyMzAsMTU3IDE0NiwyNzUgMTA0LDQ0NyAxMDQsNjcyIDEwNCw5MTYgMTQ4LDExMDMgMjM1LDEyMzQgMzIyLDEzNjUgNDQ3LDE0MzAgNjA4LDE0MzAgODIxLDE0MzAgOTU1LDEzMzQgMTAxMCwxMTQzIEwgODM4LDExMTIgQyA4MDMsMTIyNyA3MjUsMTI4NCA2MDYsMTI4NCA1MDMsMTI4NCA0MjQsMTIzNiAzNjgsMTE0MSAzMTEsMTA0NSAyODMsOTA2IDI4Myw3MjUgMzE2LDc4NiAzNjIsODMyIDQyMSw4NjQgNDgwLDg5NSA1NDgsOTExIDYyNSw5MTEgNzU1LDkxMSA4NTgsODcwIDkzNSw3ODkgMTAxMSw3MDggMTA0OSw1OTggMTA0OSw0NjEgWiBNIDg2Niw0NTMgQyA4NjYsNTU1IDg0MSw2MzQgNzkxLDY4OSA3NDEsNzQ0IDY3MSw3NzIgNTgyLDc3MiA0OTgsNzcyIDQzMCw3NDggMzc5LDY5OSAzMjcsNjUwIDMwMSw1ODIgMzAxLDQ5NiAzMDEsMzg3IDMyOCwyOTggMzgyLDIyOSA0MzUsMTYwIDUwNCwxMjUgNTg4LDEyNSA2NzUsMTI1IDc0MywxNTQgNzkyLDIxMyA4NDEsMjcxIDg2NiwzNTEgODY2LDQ1MyBaIiB1bmljb2RlPSI2Ii8+CiAgIDxnbHlwaCBkPSJNIDEwNTMsNDU5IEMgMTA1MywzMTAgMTAwOSwxOTMgOTIxLDEwOCA4MzIsMjMgNzEwLC0yMCA1NTMsLTIwIDQyMiwtMjAgMzE2LDkgMjM1LDY2IDE1NCwxMjMgMTAzLDIwNiA4MiwzMTUgTCAyNjQsMzM2IEMgMzAyLDE5NyA0MDAsMTI3IDU1NywxMjcgNjU0LDEyNyA3MjksMTU2IDc4NCwyMTUgODM5LDI3MyA4NjYsMzUzIDg2Niw0NTUgODY2LDU0NCA4MzksNjE1IDc4NCw2NzAgNzI5LDcyNSA2NTQsNzUyIDU2MSw3NTIgNTEyLDc1MiA0NjcsNzQ0IDQyNSw3MjkgMzgzLDcxNCAzNDEsNjg4IDI5OSw2NTEgTCAxMjMsNjUxIDE3MCwxNDA5IDk3MSwxNDA5IDk3MSwxMjU2IDMzNCwxMjU2IDMwNyw4MDkgQyAzODUsODY5IDQ4Miw4OTkgNTk4LDg5OSA3MzcsODk5IDg0Nyw4NTggOTMwLDc3NyAxMDEyLDY5NiAxMDUzLDU5MCAxMDUzLDQ1OSBaIiB1bmljb2RlPSI1Ii8+CiAgIDxnbHlwaCBkPSJNIDg4MSwzMTkgTCA4ODEsMCA3MTEsMCA3MTEsMzE5IDQ3LDMxOSA0Nyw0NTkgNjkyLDE0MDkgODgxLDE0MDkgODgxLDQ2MSAxMDc5LDQ2MSAxMDc5LDMxOSA4ODEsMzE5IFogTSA3MTEsMTIwNiBDIDcxMCwxMjAyIDcwMCwxMTg0IDY4MywxMTUzIDY2NiwxMTIyIDY1MywxMTAwIDY0NCwxMDg3IEwgMjgzLDU1NSAyMjksNDgxIDIxMyw0NjEgNzExLDQ2MSA3MTEsMTIwNiBaIiB1bmljb2RlPSI0Ii8+CiAgIDxnbHlwaCBkPSJNIDEwNDksMzg5IEMgMTA0OSwyNTkgMTAwOCwxNTggOTI1LDg3IDg0MiwxNiA3MjQsLTIwIDU3MSwtMjAgNDI4LC0yMCAzMTUsMTIgMjMwLDc3IDE0NSwxNDEgOTQsMjM2IDc4LDM2MiBMIDI2NCwzNzkgQyAyODgsMjEyIDM5MCwxMjkgNTcxLDEyOSA2NjIsMTI5IDczMywxNTEgNzg1LDE5NiA4MzYsMjQxIDg2MiwzMDcgODYyLDM5NSA4NjIsNDcyIDgzMyw1MzIgNzc0LDU3NSA3MTUsNjE4IDYyOSw2MzkgNTE4LDYzOSBMIDQxNiw2MzkgNDE2LDc5NSA1MTQsNzk1IEMgNjEzLDc5NSA2ODksODE3IDc0NCw4NjAgNzk4LDkwMyA4MjUsOTYyIDgyNSwxMDM4IDgyNSwxMTEzIDgwMywxMTczIDc1OSwxMjE3IDcxNCwxMjYwIDY0OCwxMjgyIDU2MSwxMjgyIDQ4MiwxMjgyIDQxOCwxMjYyIDM2OSwxMjIxIDMyMCwxMTgwIDI5MSwxMTIzIDI4MywxMDQ5IEwgMTAyLDEwNjMgQyAxMTUsMTE3OCAxNjMsMTI2OCAyNDYsMTMzMyAzMjgsMTM5OCA0MzQsMTQzMCA1NjMsMTQzMCA3MDQsMTQzMCA4MTQsMTM5NyA4OTMsMTMzMiA5NzEsMTI2NiAxMDEwLDExNzQgMTAxMCwxMDU3IDEwMTAsOTY3IDk4NSw4OTQgOTM1LDgzOCA4ODQsNzgxIDgxMSw3NDMgNzE1LDcyMyBMIDcxNSw3MTkgQyA4MjAsNzA4IDkwMiw2NzIgOTYxLDYxMyAxMDIwLDU1NCAxMDQ5LDQ3OSAxMDQ5LDM4OSBaIiB1bmljb2RlPSIzIi8+CiAgIDxnbHlwaCBkPSJNIDEwMywwIEwgMTAzLDEyNyBDIDEzNywyMDUgMTc5LDI3NCAyMjgsMzM0IDI3NywzOTMgMzI4LDQ0NyAzODIsNDk2IDQzNiw1NDQgNDkwLDU4OSA1NDMsNjMwIDU5Niw2NzEgNjQzLDcxMyA2ODYsNzU0IDcyOSw3OTUgNzYzLDgzOSA3OTAsODg0IDgxNiw5MjkgODI5LDk4MSA4MjksMTAzOCA4MjksMTExNSA4MDYsMTE3NSA3NjEsMTIxOCA3MTYsMTI2MSA2NTMsMTI4MiA1NzIsMTI4MiA0OTUsMTI4MiA0MzIsMTI2MSAzODMsMTIyMCAzMzMsMTE3OCAzMDQsMTExOSAyOTUsMTA0NCBMIDExMSwxMDYxIEMgMTI0LDExNzQgMTcyLDEyNjMgMjU1LDEzMzAgMzM3LDEzOTcgNDQzLDE0MzAgNTcyLDE0MzAgNzE0LDE0MzAgODIzLDEzOTcgOTAwLDEzMzAgOTc2LDEyNjMgMTAxNCwxMTY3IDEwMTQsMTA0NCAxMDE0LDk4OSAxMDAyLDkzNSA5NzcsODgxIDk1Miw4MjcgOTE0LDc3MyA4NjUsNzE5IDgxNiw2NjUgNzIxLDU4MSA1ODIsNDY4IDUwNSw0MDUgNDQ0LDM0OSAzOTksMjk5IDM1NCwyNDggMzIxLDIwMCAzMDEsMTUzIEwgMTAzNiwxNTMgMTAzNiwwIDEwMywwIFoiIHVuaWNvZGU9IjIiLz4KICAgPGdseXBoIHVuaWNvZGU9IiIvPgogIDwvZm9udD4KIDwvZGVmcz4KIDxkZWZzPgogIDxmb250IGlkPSJFbWJlZGRlZEZvbnRfMiI+CiAgIAogICAKICAgPGdseXBoIGQ9Ik0gMTExLDQ2NyBMIDE5MzksNDY3IDE5MzksMzM4IDExMSwzMzggMTExLDQ2NyBaIE0gNDU1LDEyMTcgTCAxNzIwLDEyMTcgMTcyMCwxMTA2IDQ1NSwxMTA2IDQ1NSwxMjE3IFogTSA0NTUsOTY5IEwgMTcyNiw5NjkgMTcyNiw4NTggNDU1LDg1OCA0NTUsOTY5IFogTSA0MzAsMTQ3OSBMIDE4MDQsMTQ3OSAxODA0LDEzNTIgNDMwLDEzNTIgNDMwLDE0NzkgWiBNIDk4MywxNDA1IEwgMTEzMSwxNDA1IDExMzEsNjcyIDk4Myw2NzIgOTgzLDE0MDUgWiBNIDk0Miw2MzEgTCAxMDk2LDYzMSAxMDk2LC0xNjIgOTQyLC0xNjIgOTQyLDYzMSBaIE0gOTA5LDQyMCBMIDEwMzAsMzYwIEMgOTc4LDMwNyA5MTksMjU2IDg1MSwyMDYgNzgzLDE1NiA3MTEsMTA5IDYzMyw2NSA1NTUsMjAgNDc2LC0xOSAzOTUsLTU0IDMxNSwtODkgMjM3LC0xMTggMTYyLC0xNDEgMTUwLC0xMjIgMTM0LC0xMDAgMTE1LC03NCA5NiwtNDggNzcsLTI3IDU5LC0xMiAxMzYsOCAyMTQsMzMgMjk1LDYyIDM3NSw5MiA0NTQsMTI2IDUyOSwxNjUgNjA1LDIwNCA2NzYsMjQ1IDc0MSwyODggODA3LDMzMSA4NjMsMzc1IDkwOSw0MjAgWiBNIDExMzMsNDIyIEMgMTE3OSwzNzcgMTIzNSwzMzMgMTI5OSwyOTAgMTM2NCwyNDcgMTQzNSwyMDcgMTUxMSwxNzEgMTU4OCwxMzUgMTY2NiwxMDIgMTc0Nyw3MyAxODI4LDQzIDE5MDYsMjAgMTk4MiwyIDE5NzIsLTkgMTk2MCwtMjIgMTk0OCwtMzcgMTkzNSwtNTIgMTkyNCwtNjcgMTkxMywtODIgMTkwMiwtOTcgMTg5MiwtMTExIDE4ODQsLTEyNSAxODA4LC0xMDMgMTcyOSwtNzUgMTY0OCwtNDIgMTU2NiwtOSAxNDg3LDI5IDE0MDksNzIgMTMzMSwxMTQgMTI1OCwxNTkgMTE5MCwyMDggMTEyMiwyNTYgMTA2MiwzMDcgMTAxMiwzNjAgTCAxMTMzLDQyMiBaIE0gMTA3NywxNzIwIEwgMTI0OSwxNjk4IEMgMTIyMiwxNjQzIDExOTMsMTU4OSAxMTYyLDE1MzUgMTEzMiwxNDgxIDExMDMsMTQzNSAxMDc1LDEzOTcgTCA5NDAsMTQyNSBDIDk2NSwxNDY2IDk5MCwxNTE1IDEwMTcsMTU3MSAxMDQzLDE2MjcgMTA2NCwxNjc3IDEwNzcsMTcyMCBaIE0gNTQzLDE3MjQgTCA3MDIsMTY5NCBDIDY2MywxNjE5IDYxNywxNTQyIDU2NSwxNDYzIDUxMywxMzg1IDQ1NCwxMzA3IDM4OCwxMjMxIDMyMiwxMTU0IDI0OCwxMDgzIDE2NiwxMDE2IDE1OCwxMDI3IDE0NywxMDM5IDEzNCwxMDUzIDEyMSwxMDY2IDEwOCwxMDc5IDk0LDEwOTEgODEsMTEwMiA2OCwxMTExIDU1LDExMTggMTMyLDExNzggMjAxLDEyNDMgMjYzLDEzMTMgMzI1LDEzODIgMzgwLDE0NTMgNDI3LDE1MjQgNDc0LDE1OTUgNTEzLDE2NjIgNTQzLDE3MjQgWiBNIDM1NiwxMzkzIEwgNTA0LDEzOTMgNTA0LDcxNyAxODg0LDcxNyAxODg0LDU5NCAzNTYsNTk0IDM1NiwxMzkzIFoiIHVuaWNvZGU9IumbhiIvPgogICA8Z2x5cGggZD0iTSA0MjYsMTcyMiBMIDU4NCwxNjgzIEMgNTU5LDE2MjcgNTMzLDE1NjkgNTA1LDE1MDggNDc3LDE0NDggNDQ4LDEzOTAgNDE5LDEzMzUgMzg5LDEyODEgMzYxLDEyMzIgMzM0LDExODggTCAyMDEsMTIyNSBDIDIyOCwxMjcwIDI1NiwxMzIxIDI4NCwxMzc5IDMxMiwxNDM3IDMzOCwxNDk3IDM2NCwxNTU4IDM4OSwxNjE4IDQxMCwxNjczIDQyNiwxNzIyIFogTSA4MiwxMjg2IEMgMTUzLDEyODkgMjM1LDEyOTIgMzI4LDEyOTUgNDIxLDEyOTkgNTIwLDEzMDMgNjI1LDEzMDggNzMwLDEzMTIgODM2LDEzMTcgOTQyLDEzMjEgTCA5NDAsMTE4NiBDIDgzOSwxMTc5IDczOCwxMTczIDYzNiwxMTY3IDUzNCwxMTYyIDQzNywxMTU2IDM0NSwxMTUxIDI1MywxMTQ2IDE2OSwxMTQxIDk0LDExMzcgTCA4MiwxMjg2IFogTSAyMDUsOTkxIEwgODU0LDk5MSA4NTQsODYwIDM0OCw4NjAgMzQ4LC0xNjIgMjA1LC0xNjIgMjA1LDk5MSBaIE0gNzg0LDk5MSBMIDkzNiw5OTEgOTM2LDE0IEMgOTM2LC0yNSA5MzEsLTU2IDkyMiwtNzkgOTEyLC0xMDEgODkzLC0xMTkgODY0LC0xMzMgODM2LC0xNDQgNzk5LC0xNTEgNzU0LC0xNTQgNzA5LC0xNTYgNjU0LC0xNTggNTkwLC0xNTggNTg2LC0xMzcgNTc5LC0xMTMgNTY5LC04NiA1NjAsLTU5IDU1MCwtMzYgNTM5LC0xNiA1ODYsLTE4IDYzMCwtMTkgNjcwLC0xOSA3MDksLTIwIDczNywtMjAgNzUyLC0xOCA3NjUsLTE4IDc3NCwtMTYgNzc4LC0xMSA3ODIsLTYgNzg0LDMgNzg0LDE2IEwgNzg0LDk5MSBaIE0gMjc0LDY4NCBMIDg2NCw2ODQgODY0LDU2MyAyNzQsNTYzIDI3NCw2ODQgWiBNIDI3NCwzNzcgTCA4NjQsMzc3IDg2NCwyNTYgMjc0LDI1NiAyNzQsMzc3IFogTSAxMTI4LDE3MTYgTCAxMjgyLDE3MTYgMTI4MiwxMDM4IEMgMTI4MiwxMDA2IDEyODksOTg0IDEzMDIsOTc1IDEzMTQsOTY1IDEzNDUsOTYxIDEzOTMsOTYxIDE0MDIsOTYxIDE0MjIsOTYxIDE0NTEsOTYxIDE0ODAsOTYxIDE1MTMsOTYxIDE1NDgsOTYxIDE1ODQsOTYxIDE2MTcsOTYxIDE2NDksOTYxIDE2ODAsOTYxIDE3MDMsOTYxIDE3MTYsOTYxIDE3NDQsOTYxIDE3NjQsOTY2IDE3NzgsOTc4IDE3OTEsOTkwIDE4MDEsMTAxMiAxODA2LDEwNDYgMTgxMiwxMDc5IDE4MTYsMTEzMCAxODE5LDExOTggMTgzMSwxMTkwIDE4NDUsMTE4MiAxODYxLDExNzQgMTg3NiwxMTY1IDE4OTMsMTE1OCAxOTExLDExNTIgMTkyOSwxMTQ2IDE5NDQsMTE0MSAxOTU4LDExMzkgMTk1MiwxMDU1IDE5NDIsOTkxIDE5MjcsOTQ0IDE5MTIsODk4IDE4ODksODY2IDE4NTksODQ4IDE4MjgsODMwIDE3ODUsODIxIDE3MzEsODIxIDE3MjEsODIxIDE3MDQsODIxIDE2ODAsODIxIDE2NTYsODIxIDE2MjksODIxIDE1OTgsODIxIDE1NjgsODIxIDE1MzcsODIxIDE1MDYsODIxIDE0NzYsODIxIDE0NDksODIxIDE0MjUsODIxIDE0MDIsODIxIDEzODYsODIxIDEzNzgsODIxIDEzMTMsODIxIDEyNjIsODI3IDEyMjYsODQwIDExOTAsODUyIDExNjQsODc0IDExNTAsOTA1IDExMzYsOTM3IDExMjgsOTgwIDExMjgsMTAzNiBMIDExMjgsMTcxNiBaIE0gMTc1NywxNTY3IEwgMTg2MCwxNDUyIEMgMTgwMSwxNDI2IDE3MzYsMTQwMCAxNjY1LDEzNzMgMTU5NCwxMzQ3IDE1MjEsMTMyMiAxNDQ2LDEyOTggMTM3MSwxMjc1IDEyOTgsMTI1MyAxMjI3LDEyMzMgMTIyNCwxMjQ4IDEyMTgsMTI2NiAxMjA5LDEyODcgMTIwMCwxMzA4IDExOTEsMTMyNiAxMTgyLDEzNDEgMTI0OSwxMzYyIDEzMTgsMTM4NSAxMzg5LDE0MTEgMTQ2MCwxNDM3IDE1MjcsMTQ2MyAxNTkxLDE0OTAgMTY1NSwxNTE3IDE3MTEsMTU0MiAxNzU3LDE1NjcgWiBNIDExMjgsNzY0IEwgMTI4MCw3NjQgMTI4MCw3MiBDIDEyODAsMzkgMTI4NywxNyAxMzAyLDcgMTMxNiwtMyAxMzQ4LC04IDEzOTcsLTggMTQwOCwtOCAxNDI4LC04IDE0NTgsLTggMTQ4OCwtOCAxNTIyLC04IDE1NjAsLTggMTU5NywtOCAxNjMyLC04IDE2NjQsLTggMTY5NiwtOCAxNzIwLC04IDE3MzUsLTggMTc2MywtOCAxNzg1LC0yIDE4MDAsMTAgMTgxNSwyMyAxODI1LDQ4IDE4MzEsODcgMTgzNiwxMjYgMTg0MCwxODQgMTg0MywyNjIgMTg2MiwyNTAgMTg4NSwyMzggMTkxMiwyMjcgMTkzOCwyMTYgMTk2MiwyMDggMTk4MiwyMDMgMTk3NywxMTEgMTk2Nyw0MCAxOTUyLC0xMCAxOTM3LC02MSAxOTEzLC05NiAxODgxLC0xMTYgMTg0OSwtMTM2IDE4MDQsLTE0NSAxNzQ3LC0xNDUgMTczNywtMTQ1IDE3MjAsLTE0NSAxNjk2LC0xNDUgMTY3MSwtMTQ1IDE2NDMsLTE0NSAxNjEyLC0xNDUgMTU4MCwtMTQ1IDE1NDgsLTE0NSAxNTE2LC0xNDUgMTQ4MywtMTQ1IDE0NTQsLTE0NSAxNDMxLC0xNDUgMTQwNywtMTQ1IDEzOTEsLTE0NSAxMzgyLC0xNDUgMTMxNywtMTQ1IDEyNjUsLTEzOSAxMjI4LC0xMjcgMTE5MCwtMTE1IDExNjQsLTkzIDExNTAsLTYxIDExMzYsLTMwIDExMjgsMTQgMTEyOCw3MiBMIDExMjgsNzY0IFogTSAxNzgyLDY1MyBMIDE4ODIsNTM5IEMgMTgyNiw1MDYgMTc2MSw0NzUgMTY4OCw0NDUgMTYxNCw0MTYgMTUzNywzODkgMTQ1OCwzNjQgMTM3OSwzMzggMTMwMywzMTUgMTIyOSwyOTUgMTIyNSwzMTAgMTIxOCwzMjggMTIwOCwzNTAgMTE5OSwzNzIgMTE5MCwzOTAgMTE4Miw0MDYgMTI1Myw0MjYgMTMyNSw0NTAgMTQwMCw0NzcgMTQ3NCw1MDQgMTU0NSw1MzMgMTYxMiw1NjMgMTY3OSw1OTMgMTczNSw2MjMgMTc4Miw2NTMgWiBNIDY4MiwxNTI4IEwgODA5LDE1NzcgQyA4NDYsMTUzMSA4ODIsMTQ4MCA5MTYsMTQyNCA5NTEsMTM2OSA5ODMsMTMxNSAxMDEyLDEyNjIgMTA0MCwxMjA4IDEwNjIsMTE2MSAxMDc3LDExMTggTCA5NDQsMTA1OSBDIDkzMCwxMTAxIDkxMCwxMTUwIDg4MiwxMjA0IDg1NCwxMjU5IDgyMiwxMzE0IDc4NywxMzcwIDc1MywxNDI2IDcxNywxNDc5IDY4MiwxNTI4IFoiIHVuaWNvZGU9IuiDvSIvPgogICA8Z2x5cGggZD0iTSAxMjYwLDY3MiBMIDEzNjQsNjcyIDEzNjQsLTE0NSAxMjYwLC0xNDUgMTI2MCw2NzIgWiBNIDE1MjQsNjcyIEwgMTYyOCw2NzIgMTYyOCwtMTQ1IDE1MjQsLTE0NSAxNTI0LDY3MiBaIE0gODAzLDE1OTUgTCAxOTMxLDE1OTUgMTkzMSwxNDYwIDgwMywxNDYwIDgwMywxNTk1IFogTSAxMDUxLDM1NCBMIDE4NjYsMzU0IDE4NjYsMjM2IDEwNTEsMjM2IDEwNTEsMzU0IFogTSA4ODMsMTMyNyBMIDEwMjAsMTMyNyAxMDIwLDg3NSBDIDEwMjAsODAxIDEwMTcsNzIwIDEwMTEsNjMzIDEwMDUsNTQ1IDk5Myw0NTcgOTc3LDM2NyA5NjEsMjc2IDkzNiwxODggOTAzLDEwMiA4NzAsMTYgODI4LC02MyA3NzYsLTEzNSA3NjgsLTEyNiA3NTcsLTExNSA3NDMsLTEwMyA3MzAsLTkyIDcxNiwtODEgNzAxLC03MSA2ODcsLTYwIDY3NCwtNTMgNjYyLC00OSA3MTIsMTkgNzUyLDkzIDc4MSwxNzEgODExLDI1MCA4MzMsMzMwIDg0Nyw0MTMgODYxLDQ5NSA4NzEsNTc2IDg3Niw2NTQgODgwLDczMyA4ODMsODA3IDg4Myw4NzcgTCA4ODMsMTMyNyBaIE0gOTQyLDEzMjcgTCAxODgwLDEzMjcgMTg4MCw4NTIgOTQyLDg1MiA5NDIsOTc5IDE3MzEsOTc5IDE3MzEsMTIwMCA5NDIsMTIwMCA5NDIsMTMyNyBaIE0gOTkzLDcxMyBMIDE4NzQsNzEzIDE4NzQsNTkyIDExMDgsNTkyIDExMDgsLTE2NCA5OTMsLTE2NCA5OTMsNzEzIFogTSAxNzk0LDcxMyBMIDE5MjMsNzEzIDE5MjMsLTE4IEMgMTkyMywtNDggMTkyMCwtNzMgMTkxNCwtOTIgMTkwOCwtMTExIDE4OTUsLTEyNyAxODc2LC0xMzkgMTg1NywtMTQ5IDE4MzQsLTE1NSAxODA2LC0xNTkgMTc3OSwtMTYyIDE3NDYsLTE2NCAxNzA4LC0xNjQgMTcwNSwtMTQ1IDE3MDAsLTEyMyAxNjkxLC05OSAxNjgyLC03NSAxNjczLC01NSAxNjY1LC0zNyAxNjkxLC0zOCAxNzEzLC0zOSAxNzMzLC0zOSAxNzUyLC0zOSAxNzY1LC0zOSAxNzc0LC0zOSAxNzg3LC0zOCAxNzk0LC0zMCAxNzk0LC0xNiBMIDE3OTQsNzEzIFogTSA0MDEsMTcyMCBMIDUzNSwxNjY5IEMgNTEwLDE2MTkgNDgzLDE1NjYgNDU1LDE1MTEgNDI2LDE0NTcgMzk4LDE0MDQgMzcwLDEzNTQgMzQyLDEzMDMgMzE1LDEyNTkgMjg5LDEyMjEgTCAxODQsMTI2NiBDIDIwOSwxMzA1IDIzNSwxMzUyIDI2MiwxNDA1IDI4OSwxNDU4IDMxNSwxNTEzIDM0MCwxNTY5IDM2NSwxNjI1IDM4NSwxNjc1IDQwMSwxNzIwIFogTSA2MTksMTQ4NyBMIDc0NSwxNDMwIEMgNzAwLDEzNTMgNjUxLDEyNzIgNTk3LDExODcgNTQzLDExMDEgNDg4LDEwMjAgNDMzLDk0MSAzNzgsODYzIDMyNSw3OTMgMjc0LDczMyBMIDE4Miw3ODQgQyAyMTksODI5IDI1Nyw4ODEgMjk3LDkzOSAzMzcsOTk3IDM3NiwxMDU4IDQxNiwxMTIxIDQ1NSwxMTg1IDQ5MywxMjQ4IDUyNywxMzExIDU2MiwxMzc0IDU5MywxNDMyIDYxOSwxNDg3IFogTSA3NiwxMjk2IEwgMTU2LDEzOTMgQyAxOTMsMTM2MCAyMzAsMTMyNCAyNjcsMTI4NCAzMDUsMTI0NSAzMzksMTIwNiAzNzEsMTE2NyA0MDIsMTEyOSA0MjYsMTA5NCA0NDIsMTA2MyBMIDM1OCw5NTAgQyAzNDEsOTgzIDMxNiwxMDIwIDI4NiwxMDYxIDI1NSwxMTAyIDIyMSwxMTQzIDE4NCwxMTg0IDE0NywxMjI1IDExMSwxMjYyIDc2LDEyOTYgWiBNIDU0MywxMDIyIEwgNjUxLDEwNjUgQyA2NzcsMTAyMCA3MDIsOTcxIDcyNSw5MTkgNzQ4LDg2NiA3NjksODE1IDc4Nyw3NjYgODA2LDcxNyA4MTksNjcyIDgyNSw2MzMgTCA3MDksNTg0IEMgNzAyLDYyMiA2OTAsNjY2IDY3Myw3MTcgNjU2LDc2NyA2MzYsODIwIDYxMyw4NzMgNTkxLDkyNyA1NjcsOTc3IDU0MywxMDIyIFogTSA1Nyw4MTUgQyAxNDIsODE4IDI0Miw4MjMgMzU4LDgyOSA0NzQsODM2IDU5NCw4NDMgNzE3LDg1MCBMIDcxNyw3MTkgQyA2MDMsNzEyIDQ5MCw3MDUgMzc4LDY5NyAyNjUsNjkwIDE2NSw2ODMgNzYsNjc4IEwgNTcsODE1IFogTSA1ODAsNTI0IEwgNjkwLDU1NyBDIDcxNSw0OTggNzM3LDQzNCA3NTYsMzY1IDc3NSwyOTUgNzg3LDIzNSA3OTMsMTg0IEwgNjc2LDE0NyBDIDY3MiwxOTkgNjYxLDI2MCA2NDMsMzMxIDYyNSw0MDEgNjA0LDQ2NiA1ODAsNTI0IFogTSAxODIsNTQ5IEwgMzA3LDUyOCBDIDI5NCw0MzEgMjc1LDMzNyAyNTIsMjQ0IDIyOSwxNTEgMjAxLDcyIDE2OCw2IDE2MSwxMiAxNTEsMTggMTM2LDI1IDEyMiwzMSAxMDcsMzggOTIsNDUgNzcsNTIgNjQsNTcgNTMsNjEgODcsMTI0IDExNSwxOTkgMTM1LDI4NiAxNTYsMzcyIDE3MSw0NjAgMTgyLDU0OSBaIE0gMzg3LDc1NCBMIDUyMCw3NTQgNTIwLC0xNjQgMzg3LC0xNjQgMzg3LDc1NCBaIiB1bmljb2RlPSLnt6giLz4KICAgPGdseXBoIGQ9Ik0gNDQyLDgyMSBMIDE2MTIsODIxIDE2MTIsMTAyOCAyNjQsMTAyOCAyNjQsMTE1OSAxNzYzLDExNTkgMTc2Myw2OTIgNDQyLDY5MiA0NDIsODIxIFogTSAzNjMsODIxIEwgNTE2LDgyMSBDIDUwNSw3NjQgNDkyLDcwMyA0NzcsNjQwIDQ2Miw1NzcgNDQ3LDUxNSA0MzIsNDU3IDQxNywzOTggNDAzLDM0NSAzODksMjk5IEwgMjM4LDMyMiBDIDI1MSwzNjcgMjY2LDQxNyAyODIsNDc0IDI5Nyw1MzEgMzEyLDU4OSAzMjcsNjUwIDM0MSw3MTEgMzUzLDc2OCAzNjMsODIxIFogTSAzODUsNTAyIEwgMTc2Nyw1MDIgMTc2NywzNzEgMzQ2LDM3MSAzODUsNTAyIFogTSAxNzI5LDUwMiBMIDE4ODIsNTAyIEMgMTg4Miw1MDIgMTg4Miw0OTQgMTg4MSw0NzkgMTg4MCw0NjQgMTg3OSw0NTEgMTg3OCw0NDAgMTg2NCwyOTcgMTg0OSwxOTAgMTgzMywxMjEgMTgxNyw1MSAxNzk1LDMgMTc2OSwtMjMgMTc1MiwtNDAgMTczMywtNTMgMTcxMywtNjAgMTY5MywtNjggMTY2OCwtNzIgMTYzOCwtNzQgMTYxMiwtNzUgMTU3NiwtNzYgMTUzMCwtNzYgMTQ4MywtNzYgMTQzNCwtNzQgMTM4MCwtNzIgMTM3OSwtNTAgMTM3NSwtMjYgMTM2NywxIDEzNjAsMjggMTM1MCw1MSAxMzM3LDcwIDEzODcsNjQgMTQzMyw2MSAxNDc4LDU5IDE1MjIsNTggMTU1Myw1OCAxNTcxLDU5IDE1ODksNTkgMTYwMyw2MCAxNjE1LDYyIDE2MjYsNjUgMTYzNiw2OSAxNjQ1LDc2IDE2NjIsOTQgMTY3OCwxMzIgMTY5MSwxOTMgMTcwNCwyNTMgMTcxNiwzNTAgMTcyOSw0ODMgTCAxNzI5LDUwMiBaIE0gOTQ4LDExMjQgTCAxMTAwLDExMjQgMTEwMCwtMTY0IDk0OCwtMTY0IDk0OCwxMTI0IFogTSA5MDcsNDYzIEwgMTAyOCw0MDggQyA5ODAsMzQ5IDkyNCwyOTMgODU5LDIzOSA3OTQsMTg1IDcyNCwxMzQgNjQ5LDg4IDU3NCw0MiA0OTcsMCA0MTksLTM3IDM0MCwtNzQgMjY0LC0xMDUgMTg4LC0xMzEgMTgyLC0xMTkgMTcyLC0xMDUgMTYxLC04OSAxNDksLTczIDEzNywtNTggMTI1LC00NCAxMTMsLTMwIDEwMCwtMTggODgsLTggMTYzLDEyIDI0MCwzOSAzMTgsNzIgMzk3LDEwNCA0NzMsMTQyIDU0NiwxODMgNjE5LDIyNSA2ODYsMjY5IDc0OSwzMTYgODExLDM2NCA4NjQsNDEyIDkwNyw0NjMgWiBNIDMzNCwxNTQyIEwgOTk1LDE1NDIgOTk1LDE0MTkgMzM0LDE0MTkgMzM0LDE1NDIgWiBNIDExMjQsMTU0MiBMIDE5NTIsMTU0MiAxOTUyLDE0MTkgMTEyNCwxNDE5IDExMjQsMTU0MiBaIE0gMzc3LDE3MzEgTCA1MjAsMTY5MiBDIDQ5NiwxNjI1IDQ2NiwxNTU5IDQzMCwxNDk0IDM5NSwxNDI5IDM1NywxMzY4IDMxNiwxMzEyIDI3NiwxMjU1IDIzNiwxMjA2IDE5NSwxMTYzIDE4NSwxMTcxIDE3MywxMTgxIDE1OCwxMTkxIDE0MywxMjAxIDEyNywxMjExIDExMSwxMjIyIDk0LDEyMzIgODAsMTI0MCA2OCwxMjQ3IDEzMiwxMzA3IDE5MSwxMzgwIDI0NiwxNDY1IDMwMCwxNTUxIDM0NCwxNjM5IDM3NywxNzMxIFogTSAxMTg0LDE3MzEgTCAxMzI5LDE2OTQgQyAxMjkxLDE1OTEgMTI0MCwxNDk1IDExNzYsMTQwNCAxMTExLDEzMTMgMTA0NCwxMjM2IDk3NSwxMTc0IDk2NywxMTgyIDk1NSwxMTkxIDkzOSwxMjAyIDkyMywxMjEzIDkwOCwxMjI0IDg5MiwxMjM1IDg3NiwxMjQ2IDg2MiwxMjU1IDg0OCwxMjYyIDkyMCwxMzE5IDk4NiwxMzg4IDEwNDQsMTQ2OSAxMTAzLDE1NTEgMTE1MCwxNjM4IDExODQsMTczMSBaIE0gNDQ5LDE0NDggTCA1NzgsMTQ5NSBDIDYwMSwxNDU0IDYyNCwxNDA4IDY0NiwxMzU4IDY2OSwxMzA3IDY4NSwxMjY0IDY5NCwxMjI5IEwgNTU5LDExNzYgQyA1NTEsMTIxMiA1MzYsMTI1NiA1MTUsMTMwNyA0OTQsMTM1NyA0NzIsMTQwNCA0NDksMTQ0OCBaIE0gMTMwNywxNDUwIEwgMTQzNCwxNDk1IEMgMTQ2OSwxNDU1IDE1MDQsMTQxMCAxNTM4LDEzNTkgMTU3MiwxMzA4IDE1OTcsMTI2MyAxNjE0LDEyMjUgTCAxNDc5LDExNzEgQyAxNDY1LDEyMTAgMTQ0MiwxMjU1IDE0MDksMTMwNyAxMzc2LDEzNTkgMTM0MiwxNDA2IDEzMDcsMTQ1MCBaIiB1bmljb2RlPSLnrKwiLz4KICAgPGdseXBoIGQ9Ik0gNzE1LDY3NCBMIDE5NTgsNjc0IDE5NTgsNTQ3IDcxNSw1NDcgNzE1LDY3NCBaIE0gODc3LDM1MCBMIDk1OCw0NDIgQyA5OTQsNDIzIDEwMzIsNDAxIDEwNzEsMzc1IDExMTEsMzQ5IDExNDgsMzIzIDExODMsMjk3IDEyMTgsMjcxIDEyNDcsMjQ4IDEyNzAsMjI3IEwgMTE4NCwxMjEgQyAxMTYyLDE0MyAxMTM0LDE2NyAxMDk5LDE5NSAxMDY0LDIyMiAxMDI3LDI0OSA5ODgsMjc2IDk0OSwzMDQgOTEyLDMyOCA4NzcsMzUwIFogTSAxNTQwLDc5MyBMIDE2MTQsODY2IEMgMTY1Miw4NDYgMTY5Miw4MjIgMTczNCw3OTUgMTc3NSw3NjcgMTgwOCw3NDIgMTgzMSw3MTkgTCAxNzUzLDYzOSBDIDE3MzAsNjYyIDE2OTgsNjg4IDE2NTcsNzE3IDE2MTYsNzQ1IDE1NzcsNzcxIDE1NDAsNzkzIFogTSA4NjQsNjE0IEwgMTAwNiw2MTQgQyA5OTcsNTA5IDk4Myw0MDggOTY0LDMxMSA5NDQsMjE0IDkxMywxMjYgODcwLDQ2IDgyOCwtMzQgNzY4LC0xMDIgNjkwLC0xNjAgNjgxLC0xNDMgNjY3LC0xMjUgNjQ4LC0xMDUgNjMwLC04NiA2MTIsLTcwIDU5NiwtNTcgNjY2LC0xMCA3MTksNTAgNzU1LDEyMSA3OTEsMTkyIDgxNywyNzAgODM0LDM1NCA4NTAsNDM5IDg2MCw1MjYgODY0LDYxNCBaIE0gMTIzMywxNzE4IEwgMTM3MCwxNzE4IEMgMTM2OSwxNTE1IDEzNzQsMTMyNCAxMzg0LDExNDYgMTM5NSw5NjggMTQxMiw4MDcgMTQzNCw2NjMgMTQ1NSw1MTggMTQ4NCwzOTQgMTUxOSwyOTAgMTU1MywxODUgMTU5MywxMDUgMTYzOCw1MCAxNjgzLC01IDE3MzMsLTMzIDE3ODgsLTMzIDE4MTgsLTMzIDE4MzksLTE3IDE4NTEsMTQgMTg2NCw0NiAxODczLDEwOCAxODc4LDIwMSAxODkzLDE4NiAxOTExLDE3MiAxOTMxLDE2MCAxOTUyLDE0NyAxOTcwLDEzOCAxOTg3LDEzMSAxOTc4LDU1IDE5NjcsLTUgMTk1MiwtNDggMTkzNywtOTEgMTkxNiwtMTIyIDE4ODgsLTE0MCAxODYxLC0xNTkgMTgyNCwtMTY4IDE3NzgsLTE2OCAxNjk2LC0xNjggMTYyNCwtMTM2IDE1NjQsLTczIDE1MDMsLTkgMTQ1Miw4MCAxNDEwLDE5NiAxMzY4LDMxMSAxMzM1LDQ0NyAxMzA5LDYwNCAxMjgzLDc2MSAxMjY0LDkzNCAxMjUyLDExMjMgMTI0MSwxMzEyIDEyMzQsMTUxMSAxMjMzLDE3MTggWiBNIDE2OTIsNTE2IEwgMTgyNSw0NjcgQyAxNzU4LDMyNSAxNjY0LDIwMSAxNTQyLDk1IDE0MjEsLTExIDEyODEsLTk2IDExMjIsLTE2MiAxMTEzLC0xNDggMTEwMCwtMTMyIDEwODMsLTExMyAxMDY3LC05NCAxMDUyLC03NyAxMDM4LC02MyAxMTkxLC0zIDEzMjQsNzYgMTQzOCwxNzYgMTU1MSwyNzYgMTYzNiwzODkgMTY5Miw1MTYgWiBNIDEzODAsMTM2NCBMIDE0NDQsMTQ0OCBDIDE0ODksMTQxNyAxNTM0LDEzODAgMTU4MCwxMzM4IDE2MjYsMTI5NyAxNjYxLDEyNTkgMTY4NiwxMjI1IEwgMTYxOCwxMTI4IEMgMTU5NSwxMTYzIDE1NjEsMTIwMiAxNTE2LDEyNDYgMTQ3MCwxMjkxIDE0MjUsMTMzMCAxMzgwLDEzNjQgWiBNIDE3NjMsMTExNCBMIDE4NTgsMTE1MyBDIDE4ODgsMTEwNSAxOTE1LDEwNTQgMTkzOCw5OTggMTk2Miw5NDMgMTk3OCw4OTYgMTk4Nyw4NTYgTCAxODg2LDgwOSBDIDE4NzcsODUwIDE4NjEsODk5IDE4MzgsOTU3IDE4MTYsMTAxNSAxNzkxLDEwNjggMTc2MywxMTE0IFogTSAxNDA3LDk3MyBDIDE0NzEsOTc2IDE1NDQsOTgwIDE2MjYsOTg1IDE3MDgsOTkxIDE3OTQsOTk2IDE4ODQsMTAwMSBMIDE4ODYsODk3IEMgMTgwNCw4ODkgMTcyNSw4ODEgMTY0OSw4NzMgMTU3Miw4NjYgMTQ5OSw4NTkgMTQzMCw4NTIgTCAxNDA3LDk3MyBaIE0gMTYxOCwxNzAwIEwgMTczOSwxNjUzIEMgMTcwOSwxNTk3IDE2NzcsMTUzOCAxNjQ1LDE0NzggMTYxMiwxNDE3IDE1ODEsMTM2NSAxNTUyLDEzMjMgTCAxNDY2LDEzNjQgQyAxNDg0LDEzOTQgMTUwMiwxNDI5IDE1MjEsMTQ2OCAxNTM5LDE1MDggMTU1NywxNTQ4IDE1NzUsMTU4OSAxNTkzLDE2MzAgMTYwNywxNjY3IDE2MTgsMTcwMCBaIE0gMTc4OCwxNDk1IEwgMTkwMSwxNDQyIEMgMTg2NiwxMzgzIDE4MjksMTMyMSAxNzg4LDEyNTYgMTc0NywxMTkyIDE3MDYsMTEyOSAxNjY1LDEwNjggMTYyNCwxMDA3IDE1ODQsOTU0IDE1NDYsOTA3IEwgMTQ2MCw5NTYgQyAxNDk3LDEwMDMgMTUzNiwxMDU4IDE1NzYsMTEyMSAxNjE2LDExODUgMTY1NSwxMjQ5IDE2OTMsMTMxNSAxNzMwLDEzODAgMTc2MiwxNDQwIDE3ODgsMTQ5NSBaIE0gNjg4LDEzNjQgTCA3NTIsMTQ0OCBDIDc5NywxNDE3IDg0MiwxMzgwIDg4OCwxMzM4IDkzNCwxMjk3IDk2OCwxMjU5IDk5MSwxMjI1IEwgOTI2LDExMjggQyA5MDIsMTE2MyA4NjgsMTIwMiA4MjIsMTI0NiA3NzcsMTI5MSA3MzIsMTMzMCA2ODgsMTM2NCBaIE0gMTA0MiwxMTAyIEwgMTEzNywxMTM3IEMgMTE2NCwxMDkwIDExODksMTAzOSAxMjEwLDk4MyAxMjMyLDkyNyAxMjQ3LDg3OSAxMjUzLDg0MCBMIDExNTEsNzk3IEMgMTE0Niw4MzggMTEzMyw4ODcgMTExMiw5NDQgMTA5MiwxMDAxIDEwNjgsMTA1NCAxMDQyLDExMDIgWiBNIDY5NCw5NDggQyA3NTgsOTUyIDgzMiw5NTcgOTE0LDk2NCA5OTcsOTcwIDEwODMsOTc2IDExNzQsOTgxIEwgMTE3Niw4NzIgQyAxMDk0LDg2MyAxMDE0LDg1NSA5MzYsODQ4IDg1OCw4NDEgNzg1LDgzNCA3MTcsODI3IEwgNjk0LDk0OCBaIE0gOTI2LDE3MDAgTCAxMDQ0LDE2NTMgQyAxMDE0LDE1OTcgOTgzLDE1MzggOTUwLDE0NzYgOTE4LDE0MTMgODg3LDEzNjEgODYwLDEzMTkgTCA3NzIsMTM2MCBDIDc5MCwxMzkxIDgwOCwxNDI3IDgyNywxNDY2IDg0NywxNTA2IDg2NSwxNTQ3IDg4MywxNTg4IDkwMCwxNjMwIDkxNSwxNjY3IDkyNiwxNzAwIFogTSAxMDk2LDE0OTUgTCAxMjA2LDE0NDIgQyAxMTcxLDEzODIgMTEzMiwxMzE4IDEwOTEsMTI1MCAxMDQ5LDExODMgMTAwNywxMTE4IDk2NCwxMDU1IDkyMSw5OTIgODc5LDkzNyA4NDAsODg5IEwgNzU0LDkzNiBDIDc5Miw5ODUgODMyLDEwNDIgODc1LDExMDggOTE3LDExNzMgOTU3LDEyNDAgOTk2LDEzMDkgMTAzNSwxMzc3IDEwNjgsMTQzOSAxMDk2LDE0OTUgWiBNIDEwNywxMjc2IEwgNzI3LDEyNzYgNzI3LDExMzMgMTA3LDExMzMgMTA3LDEyNzYgWiBNIDM2NSwxNzIwIEwgNTA0LDE3MjAgNTA0LC0xNjIgMzY1LC0xNjIgMzY1LDE3MjAgWiBNIDM2MCwxMTkwIEwgNDUxLDExNjEgQyA0MzcsMTA4MiA0MTksOTk4IDM5Nyw5MTAgMzc1LDgyMiAzNTEsNzM2IDMyNCw2NTEgMjk2LDU2NyAyNjcsNDg4IDIzNyw0MTYgMjA2LDM0MyAxNzMsMjgxIDEzOSwyMjkgMTMxLDI0OCAxMTksMjcwIDEwMywyOTUgODgsMzE5IDc0LDM0MSA2MywzNTggOTUsNDA1IDEyNSw0NjAgMTU1LDUyNCAxODQsNTg4IDIxMiw2NTggMjM5LDczMyAyNjUsODA4IDI4OSw4ODUgMzEwLDk2NCAzMzEsMTA0MiAzNDgsMTExOCAzNjAsMTE5MCBaIE0gNDk2LDEwNTUgQyA1MDcsMTA0MSA1MjMsMTAxOCA1NDQsOTg0IDU2NSw5NTEgNTg4LDkxNCA2MTQsODczIDY0MCw4MzMgNjY0LDc5NiA2ODUsNzYxIDcwNiw3MjYgNzIxLDcwMSA3MjksNjg2IEwgNjQ5LDU3MyBDIDY0MCw1OTggNjI1LDYzMCA2MDYsNjcwIDU4Nyw3MDkgNTY2LDc1MSA1NDQsNzk0IDUyMSw4MzcgNTAwLDg3NiA0NzksOTEyIDQ1OSw5NDkgNDQzLDk3NyA0MzIsOTk3IEwgNDk2LDEwNTUgWiIgdW5pY29kZT0i5qmfIi8+CiAgIDxnbHlwaCBkPSJNIDQ2NSwxNTAxIEMgNTAyLDE0NzcgNTQ0LDE0NDYgNTkyLDE0MTAgNjQwLDEzNzQgNjg4LDEzMzYgNzM4LDEyOTUgNzg4LDEyNTUgODM1LDEyMTYgODc5LDExNzggOTIyLDExMzkgOTU4LDExMDYgOTg3LDEwNzcgTCA4NTgsOTQ4IEMgODMyLDk3NCA3OTksMTAwNiA3NTgsMTA0NCA3MTcsMTA4MyA2NzIsMTEyMyA2MjMsMTE2NCA1NzMsMTIwNiA1MjUsMTI0NiA0NzcsMTI4MyA0MjksMTMyMSAzODYsMTM1MiAzNDgsMTM3NiBMIDQ2NSwxNTAxIFogTSAyODksMTI5IEMgNDA5LDE0NyA1MTgsMTcxIDYxNywyMDMgNzE2LDIzNCA4MDcsMjcwIDg4OSwzMDkgOTcxLDM0OSAxMDQ0LDM4OCAxMTA4LDQyOCAxMjEzLDQ5NCAxMzEwLDU2OSAxMzk5LDY1NCAxNDg4LDc0MCAxNTY1LDgyOCAxNjMyLDkyMCAxNjk5LDEwMTEgMTc1MiwxMDk4IDE3OTIsMTE4MiBMIDE4OTAsMTAwOCBDIDE4NDQsOTIzIDE3ODcsODM3IDE3MTgsNzUwIDE2NTAsNjYyIDE1NzMsNTc4IDE0ODcsNDk4IDE0MDEsNDE3IDEzMDYsMzQ0IDEyMDIsMjc5IDExMzQsMjM2IDEwNTksMTk1IDk3OCwxNTQgODk3LDExMyA4MDgsNzUgNzEyLDQyIDYxNSw5IDUxMSwtMTggMzk3LC0zOSBMIDI4OSwxMjkgWiIgdW5pY29kZT0i44OzIi8+CiAgIDxnbHlwaCBkPSJNIDQ1NSw2NiBDIDQ2Myw4MiA0NjgsOTggNDcxLDExMyA0NzQsMTI4IDQ3NSwxNDUgNDc1LDE2NiA0NzUsMTg2IDQ3NSwyMjUgNDc1LDI4MSA0NzUsMzM3IDQ3NSw0MDMgNDc1LDQ4MSA0NzUsNTU5IDQ3NSw2NDEgNDc1LDcyNiA0NzUsODExIDQ3NSw4OTUgNDc1LDk3NiA0NzUsMTA1NyA0NzUsMTEyOSA0NzUsMTE5MyA0NzUsMTI1NiA0NzUsMTMwNSA0NzUsMTMzNyA0NzUsMTM1NSA0NzQsMTM3NiA0NzIsMTQwMSA0NzAsMTQyNSA0NjgsMTQ0OSA0NjYsMTQ3MCA0NjQsMTQ5MiA0NjEsMTUxMCA0NTcsMTUyNCBMIDY1OSwxNTI0IEMgNjU1LDE0OTkgNjUyLDE0NjkgNjQ5LDE0MzUgNjQ2LDE0MDAgNjQ1LDEzNjcgNjQ1LDEzMzcgNjQ1LDEzMTAgNjQ1LDEyNzAgNjQ1LDEyMTkgNjQ1LDExNjcgNjQ1LDExMDggNjQ1LDEwNDEgNjQ1LDk3NSA2NDUsOTA1IDY0NSw4MzEgNjQ1LDc1OCA2NDUsNjg1IDY0NSw2MTQgNjQ1LDU0MyA2NDUsNDc4IDY0NSw0MTcgNjQ1LDM1NiA2NDUsMzA0IDY0NSwyNjIgNjQ1LDIyMCA2NDUsMTkxIDY0NSwxNzYgNzQzLDIwMSA4NDUsMjM2IDk0OSwyODEgMTA1NCwzMjYgMTE1NiwzNzkgMTI1Niw0MzkgMTM1Nyw1MDAgMTQ1MSw1NjcgMTUzOSw2NDAgMTYyNyw3MTMgMTcwMyw3OTEgMTc2NSw4NzUgTCAxODU4LDczMSBDIDE3MjUsNTY2IDE1NTYsNDIxIDEzNTEsMjk3IDExNDUsMTczIDkxNSw3NCA2NTksMCA2NDksLTMgNjM2LC03IDYyMSwtMTMgNjA2LC0xOSA1OTAsLTI3IDU3MywtMzcgTCA0NTUsNjYgWiIgdW5pY29kZT0i44OsIi8+CiAgIDxnbHlwaCBkPSJNIDEwNzMsNDMgQyAxMDc3LDU5IDEwODAsNzcgMTA4Miw5NyAxMDg0LDExNyAxMDg1LDEzNyAxMDg1LDE1OCAxMDg1LDE3MSAxMDg1LDIwMSAxMDg1LDI0OCAxMDg1LDI5NCAxMDg1LDM1MSAxMDg1LDQxOSAxMDg1LDQ4NiAxMDg1LDU2MCAxMDg1LDYzOSAxMDg1LDcxOCAxMDg1LDc5OCAxMDg1LDg3OCAxMDg1LDk1NyAxMDg1LDEwMzIgMTA4NSwxMTAyIDEwODUsMTE3MSAxMDg1LDEyMzIgMTA4NSwxMjgyIDEwODUsMTMzMyAxMDg1LDEzNjcgMTA4NSwxMzg0IDEwODUsMTQyNCAxMDg0LDE0NTcgMTA4MSwxNDg0IDEwNzksMTUxMCAxMDc3LDE1MjggMTA3NSwxNTM2IEwgMTI2NCwxNTM2IEMgMTI2NCwxNTI4IDEyNjIsMTUxMCAxMjYwLDE0ODMgMTI1NywxNDU1IDEyNTUsMTQyMyAxMjU1LDEzODQgMTI1NSwxMzY1IDEyNTUsMTMzMiAxMjU1LDEyODMgMTI1NSwxMjM1IDEyNTUsMTE3NiAxMjU1LDExMDcgMTI1NSwxMDM4IDEyNTUsOTY0IDEyNTUsODg2IDEyNTUsODA3IDEyNTUsNzMwIDEyNTUsNjUzIDEyNTUsNTc3IDEyNTUsNTA2IDEyNTUsNDQxIDEyNTUsMzc2IDEyNTUsMzIzIDEyNTUsMjgxIDEyNTUsMjM4IDEyNTUsMjEyIDEyNTUsMjAzIDEzMjAsMjMzIDEzODgsMjcyIDE0NjAsMzIyIDE1MzMsMzcxIDE2MDMsNDI4IDE2NzIsNDk0IDE3NDEsNTU5IDE4MDIsNjMwIDE4NTMsNzA3IEwgMTk1MCw1NjcgQyAxODkxLDQ4OCAxODIyLDQxMiAxNzQ0LDM0MCAxNjY1LDI2OCAxNTg0LDIwMyAxNDk5LDE0NSAxNDE0LDg4IDEzMzIsNDAgMTI1MSwwIDEyMzUsLTEwIDEyMjEsLTE4IDEyMDksLTI3IDExOTgsLTM1IDExODksLTQyIDExODIsLTQ3IEwgMTA3Myw0MyBaIE0gMTM1LDUzIEMgMjIxLDExNSAyOTQsMTg5IDM1NCwyNzYgNDE0LDM2NCA0NjAsNDU3IDQ5Miw1NTcgNTA3LDYwMyA1MTgsNjYyIDUyNiw3MzEgNTM1LDgwMSA1NDEsODc1IDU0NSw5NTMgNTQ5LDEwMzIgNTUxLDExMDggNTUyLDExODMgNTUzLDEyNTcgNTUzLDEzMjMgNTUzLDEzODAgNTUzLDE0MTAgNTUyLDE0MzcgNTQ5LDE0NjEgNTQ2LDE0ODUgNTQzLDE1MDggNTM5LDE1MzAgTCA3MjcsMTUzMCBDIDcyNiwxNTIyIDcyNCwxNTEwIDcyMywxNDk0IDcyMiwxNDc4IDcyMCwxNDYxIDcxOSwxNDQyIDcxNywxNDIzIDcxNywxNDAzIDcxNywxMzgyIDcxNywxMzI1IDcxNiwxMjU4IDcxNSwxMTgxIDcxMywxMTA0IDcxMCwxMDIzIDcwNiw5MzkgNzAxLDg1NSA2OTUsNzc2IDY4Nyw3MDAgNjgwLDYyNSA2NjgsNTYzIDY1Myw1MTIgNjIzLDQwMyA1NzcsMzAwIDUxMywyMDMgNDUwLDEwNiAzNzUsMjEgMjg5LC01MSBMIDEzNSw1MyBaIiB1bmljb2RlPSLjg6siLz4KICAgPGdseXBoIGQ9Ik0gMTU4OSwxNTU0IEMgMTU4OCwxNTI4IDE1ODcsMTUwMSAxNTg1LDE0NzEgMTU4NCwxNDQyIDE1ODMsMTQxMCAxNTgzLDEzNzYgMTU4MywxMzQ5IDE1ODMsMTMxNCAxNTgzLDEyNzIgMTU4MywxMjI5IDE1ODMsMTE4NyAxNTgzLDExNDYgMTU4MywxMTA0IDE1ODMsMTA3MCAxNTgzLDEwNDQgMTU4Myw5MjIgMTU3OSw4MTcgMTU3MCw3MzEgMTU2MSw2NDUgMTU0OCw1NzIgMTUzMSw1MTEgMTUxNCw0NTAgMTQ5MiwzOTcgMTQ2NCwzNTAgMTQzNywzMDQgMTQwNSwyNTkgMTM2OCwyMTUgMTMyNCwxNjMgMTI3NCwxMTggMTIxOCw3OSAxMTYxLDQwIDExMDMsNyAxMDQ0LC0xOSA5ODYsLTQ2IDkzMSwtNjggODgxLC04NCBMIDc0OCw1NyBDIDg0Miw4MSA5MzEsMTE0IDEwMTUsMTU3IDEwOTksMjAwIDExNzMsMjU3IDEyMzcsMzMwIDEyNzQsMzcyIDEzMDQsNDE1IDEzMjYsNDYwIDEzNDksNTA0IDEzNjYsNTU0IDEzNzcsNjA4IDEzODksNjYzIDEzOTcsNzI2IDE0MDEsNzk5IDE0MDUsODcxIDE0MDcsOTU2IDE0MDcsMTA1MyAxNDA3LDEwODAgMTQwNywxMTE0IDE0MDcsMTE1NSAxNDA3LDExOTYgMTQwNywxMjM3IDE0MDcsMTI3OSAxNDA3LDEzMjEgMTQwNywxMzUzIDE0MDcsMTM3NiAxNDA3LDE0MTAgMTQwNiwxNDQyIDE0MDQsMTQ3MSAxNDAyLDE1MDEgMTM5OSwxNTI4IDEzOTcsMTU1NCBMIDE1ODksMTU1NCBaIE0gNjM5LDE1MzggQyA2MzgsMTUxOSA2MzYsMTQ5NiA2MzQsMTQ2OCA2MzIsMTQ0MSA2MzEsMTQxNSA2MzEsMTM5MSA2MzEsMTM4MSA2MzEsMTM2MCA2MzEsMTMyNiA2MzEsMTI5MyA2MzEsMTI1MyA2MzEsMTIwNiA2MzEsMTE2MCA2MzEsMTExMSA2MzEsMTA1OSA2MzEsMTAwNyA2MzEsOTU3IDYzMSw5MDggNjMxLDg2MCA2MzEsODE4IDYzMSw3ODIgNjMxLDc0NyA2MzEsNzIyIDYzMSw3MDcgNjMxLDY4MSA2MzIsNjUzIDYzNCw2MjQgNjM2LDU5NCA2MzgsNTcwIDYzOSw1NTEgTCA0NTEsNTUxIEMgNDUzLDU2NyA0NTYsNTkwIDQ1OCw2MjAgNDYwLDY0OSA0NjEsNjc5IDQ2MSw3MDkgNDYxLDcyMiA0NjEsNzQ3IDQ2MSw3ODMgNDYxLDgyMCA0NjEsODYyIDQ2MSw5MDkgNDYxLDk1NyA0NjEsMTAwNyA0NjEsMTA1OSA0NjEsMTExMSA0NjEsMTE2MCA0NjEsMTIwNiA0NjEsMTI1MyA0NjEsMTI5MyA0NjEsMTMyNiA0NjEsMTM2MCA0NjEsMTM4MSA0NjEsMTM5MSA0NjEsMTQwOCA0NjAsMTQzMyA0NTksMTQ2MyA0NTcsMTQ5NCA0NTUsMTUxOSA0NTMsMTUzOCBMIDYzOSwxNTM4IFoiIHVuaWNvZGU9IuODqiIvPgogICA8Z2x5cGggZD0iTSA0NzMsMTUyNiBDIDUwMCwxNTIyIDUzMCwxNTE5IDU2MSwxNTE4IDU5MywxNTE2IDYyNSwxNTE2IDY1NywxNTE2IDY3OCwxNTE2IDcxNSwxNTE2IDc2OSwxNTE2IDgyMywxNTE2IDg4NCwxNTE2IDk1MywxNTE2IDEwMjIsMTUxNiAxMDkxLDE1MTYgMTE2MCwxNTE2IDEyMjksMTUxNiAxMjkxLDE1MTYgMTM0NiwxNTE2IDE0MDAsMTUxNiAxNDM5LDE1MTYgMTQ2MiwxNTE2IDE0OTUsMTUxNiAxNTI4LDE1MTYgMTU2MSwxNTE4IDE1OTMsMTUxOSAxNjIzLDE1MjIgMTY0OSwxNTI2IEwgMTY0OSwxMzU2IEMgMTYyNCwxMzU5IDE1OTUsMTM2MCAxNTYyLDEzNjEgMTUyOCwxMzYyIDE0OTQsMTM2MiAxNDYwLDEzNjIgMTQzNywxMzYyIDEzOTgsMTM2MiAxMzQ1LDEzNjIgMTI5MSwxMzYyIDEyMjksMTM2MiAxMTYxLDEzNjIgMTA5MywxMzYyIDEwMjQsMTM2MiA5NTUsMTM2MiA4ODYsMTM2MiA4MjUsMTM2MiA3NzEsMTM2MiA3MTcsMTM2MiA2NzksMTM2MiA2NTcsMTM2MiA2MjYsMTM2MiA1OTUsMTM2MSA1NjMsMTM2MCA1MzIsMTM1OSA1MDIsMTM1NyA0NzMsMTM1NiBMIDQ3MywxNTI2IFogTSAxNzk4LDk4NSBDIDE3OTQsOTc3IDE3ODksOTY3IDE3ODMsOTU1IDE3NzcsOTQ0IDE3NzMsOTM0IDE3NzIsOTI2IDE3NDQsODI1IDE3MDcsNzIzIDE2NTksNjIyIDE2MTEsNTIwIDE1NDksNDI3IDE0NzMsMzQ0IDEzNjUsMjI3IDEyNDgsMTM1IDExMjMsNzAgOTk4LDQgODcwLC00NyA3MzksLTg0IEwgNjEyLDYxIEMgNzU3LDkxIDg5MiwxMzkgMTAxNiwyMDMgMTE0MCwyNjcgMTI0NiwzNDUgMTMzMyw0MzYgMTM5Niw1MDIgMTQ0OCw1NzUgMTQ4OCw2NTYgMTUyOCw3MzggMTU1OCw4MTUgMTU3Nyw4ODkgMTU2Miw4ODkgMTUzNCw4ODkgMTQ5Miw4ODkgMTQ1MCw4ODkgMTM5OSw4ODkgMTMzOSw4ODkgMTI3OSw4ODkgMTIxNSw4ODkgMTE0Niw4ODkgMTA3Nyw4ODkgMTAwNyw4ODkgOTM3LDg4OSA4NjcsODg5IDgwMSw4ODkgNzQwLDg4OSA2ODAsODg5IDYyNyw4ODkgNTgzLDg4OSA1MzgsODg5IDUwNyw4ODkgNDg5LDg4OSA0NjUsODg5IDQzNSw4ODggMzk5LDg4OCAzNjQsODg3IDMyNyw4ODUgMjg5LDg4MyBMIDI4OSwxMDU1IEMgMzI3LDEwNTEgMzYzLDEwNDggMzk3LDEwNDYgNDMxLDEwNDMgNDYyLDEwNDIgNDg5LDEwNDIgNTA0LDEwNDIgNTMzLDEwNDIgNTc1LDEwNDIgNjE4LDEwNDIgNjY5LDEwNDIgNzI5LDEwNDIgNzg5LDEwNDIgODU0LDEwNDIgOTI0LDEwNDIgOTkzLDEwNDIgMTA2MywxMDQyIDExMzMsMTA0MiAxMjAyLDEwNDIgMTI2NywxMDQyIDEzMjcsMTA0MiAxMzg3LDEwNDIgMTQzOSwxMDQyIDE0ODIsMTA0MiAxNTI1LDEwNDIgMTU1NCwxMDQyIDE1NjksMTA0MiAxNTkyLDEwNDIgMTYxNCwxMDQ0IDE2MzQsMTA0NyAxNjU1LDEwNDkgMTY3MCwxMDUzIDE2ODEsMTA1OSBMIDE3OTgsOTg1IFoiIHVuaWNvZGU9IuODqSIvPgogICA8Z2x5cGggZD0iTSAxNDE1LDEzODkgQyAxNDMzLDEzNjQgMTQ1NCwxMzMzIDE0NzgsMTI5NCAxNTAyLDEyNTYgMTUyNSwxMjE3IDE1NDksMTE3NiAxNTczLDExMzUgMTU5MywxMDk4IDE2MTAsMTA2NSBMIDE0ODksMTAxMCBDIDE0NzEsMTA0NyAxNDUyLDEwODQgMTQzMiwxMTIyIDE0MTEsMTE2MSAxMzkwLDExOTggMTM2NywxMjM2IDEzNDUsMTI3NCAxMzIyLDEzMDggMTI5OCwxMzM5IEwgMTQxNSwxMzg5IFogTSAxNjc3LDE0OTMgQyAxNjk2LDE0NzAgMTcxOCwxNDM5IDE3NDMsMTQwMSAxNzY3LDEzNjMgMTc5MiwxMzIzIDE4MTcsMTI4MiAxODQxLDEyNDEgMTg2MiwxMjA1IDE4NzgsMTE3NCBMIDE3NTksMTExNiBDIDE3NDMsMTE1MyAxNzI0LDExOTAgMTcwMiwxMjI4IDE2ODAsMTI2NSAxNjU3LDEzMDMgMTYzMywxMzM5IDE2MDksMTM3NiAxNTg2LDE0MTAgMTU2MywxNDQwIEwgMTY3NywxNDkzIFogTSAxMDksNTM5IEMgMTM2LDU2MiAxNjAsNTg0IDE4MSw2MDQgMjAyLDYyNSAyMjcsNjQ5IDI1NCw2NzYgMjc5LDcwMCAzMDcsNzMyIDMzOSw3NzAgMzcxLDgwOCA0MDYsODUwIDQ0Myw4OTQgNDgxLDkzOCA1MTgsOTgzIDU1NSwxMDI5IDU5MiwxMDc1IDYyNiwxMTE2IDY1NywxMTUzIDcxMiwxMjE3IDc2NiwxMjUzIDgxOSwxMjYxIDg3MiwxMjY4IDkzNCwxMjM5IDEwMDQsMTE3NCAxMDQ2LDExMzUgMTA5MiwxMDkxIDExNDIsMTAzOSAxMTkyLDk4OCAxMjQxLDkzNyAxMjkwLDg4NSAxMzM5LDgzMyAxMzg0LDc4NiAxNDIzLDc0MyAxNDcwLDY5NiAxNTIyLDY0MSAxNTc5LDU3OSAxNjM2LDUxNiAxNjk1LDQ1MyAxNzU1LDM4OCAxODE1LDMyMyAxODcxLDI2MyAxOTIzLDIwNyBMIDE3ODIsNTcgQyAxNzM0LDExNiAxNjgzLDE3NyAxNjI5LDI0MSAxNTc1LDMwNCAxNTIyLDM2NiAxNDY5LDQyNyAxNDE3LDQ4OCAxMzY5LDU0MyAxMzI1LDU5MiAxMjk1LDYyNiAxMjYyLDY2MyAxMjI1LDcwMiAxMTg4LDc0MiAxMTUxLDc4MiAxMTE0LDgyMSAxMDc3LDg2MSAxMDQzLDg5OCAxMDExLDkzMiA5NzksOTY2IDk1Miw5OTMgOTMwLDEwMTQgODkwLDEwNTIgODU4LDEwNzAgODMzLDEwNjcgODA3LDEwNjQgNzc3LDEwNDIgNzQxLDk5OSA3MTcsOTY5IDY4OSw5MzQgNjU3LDg5NCA2MjYsODU0IDU5Myw4MTIgNTU5LDc2OCA1MjUsNzI0IDQ5Miw2ODMgNDYxLDY0MyA0MjksNjAzIDQwMiw1NjkgMzc5LDU0MSAzNTgsNTE1IDMzOCw0ODcgMzE2LDQ1OSAyOTUsNDMwIDI3Nyw0MDUgMjYyLDM4MyBMIDEwOSw1MzkgWiIgdW5pY29kZT0i44OZIi8+CiAgIDxnbHlwaCBkPSJNIDY5MCwxODAgQyA2OTAsMTk5IDY5MCwyMzggNjkwLDI5NiA2OTAsMzU0IDY5MCw0MjMgNjkwLDUwMyA2OTAsNTgzIDY5MCw2NjcgNjkwLDc1NSA2OTAsODQzIDY5MCw5MjggNjkwLDEwMTIgNjkwLDEwOTUgNjkwLDExNjkgNjkwLDEyMzMgNjkwLDEyOTcgNjkwLDEzNDMgNjkwLDEzNzIgNjkwLDE0MDEgNjg5LDE0MzYgNjg2LDE0NzcgNjgzLDE1MTggNjc5LDE1NTQgNjc0LDE1ODUgTCA4NzUsMTU4NSBDIDg3MiwxNTU1IDg2OSwxNTIwIDg2NSwxNDc5IDg2MiwxNDM4IDg2MCwxNDAyIDg2MCwxMzcyIDg2MCwxMzE5IDg2MCwxMjU1IDg2MCwxMTgxIDg2MCwxMTA2IDg2MCwxMDI3IDg2MCw5NDMgODYwLDg1OSA4NjAsNzc2IDg2MSw2OTMgODYyLDYxMSA4NjIsNTM0IDg2Miw0NjIgODYyLDM5MCA4NjIsMzI5IDg2MiwyODAgODYyLDIzMCA4NjIsMTk3IDg2MiwxODAgODYyLDE1OCA4NjMsMTMzIDg2MywxMDQgODY0LDc2IDg2Niw0NyA4NjgsMTcgODcxLC0xMiA4NzMsLTM4IDg3NSwtNjEgTCA2NzYsLTYxIEMgNjgxLC0yOSA2ODUsMTAgNjg3LDU1IDY4OSwxMDAgNjkwLDE0MiA2OTAsMTgwIFogTSA4MjUsMTA0OSBDIDg5MiwxMDI4IDk2NiwxMDA0IDEwNDgsOTc2IDExMjksOTQ4IDEyMTIsOTE4IDEyOTYsODg3IDEzODEsODU1IDE0NjEsODI0IDE1MzcsNzkyIDE2MTMsNzU5IDE2NzksNzI5IDE3MzUsNzAwIEwgMTY2NSw1MjYgQyAxNjA2LDU1OSAxNTQwLDU5MiAxNDY2LDYyNCAxMzkzLDY1NiAxMzE3LDY4NyAxMjQwLDcxOSAxMTYzLDc1MCAxMDg5LDc3OSAxMDE3LDgwNCA5NDUsODI5IDg4MSw4NTAgODI1LDg2NiBMIDgyNSwxMDQ5IFoiIHVuaWNvZGU9IuODiCIvPgogICA8Z2x5cGggZD0iTSA0NDAsMTUxNiBDIDQ2OSwxNTEzIDQ5OSwxNTEwIDUyOSwxNTA3IDU2MCwxNTA1IDU5MiwxNTAzIDYyNSwxNTAzIDY0OSwxNTAzIDY4OSwxNTAzIDc0NCwxNTAzIDgwMCwxNTAzIDg2MywxNTAzIDkzNCwxNTAzIDEwMDUsMTUwMyAxMDc2LDE1MDMgMTE0NywxNTAzIDEyMTgsMTUwMyAxMjgxLDE1MDMgMTMzNiwxNTAzIDEzOTIsMTUwMyAxNDMxLDE1MDMgMTQ1NCwxNTAzIDE0ODMsMTUwMyAxNTE1LDE1MDQgMTU0OSwxNTA2IDE1ODQsMTUwOCAxNjE2LDE1MTEgMTY0NSwxNTE2IEwgMTY0NSwxMzQ2IEMgMTYxNSwxMzQ4IDE1ODMsMTM1MCAxNTQ5LDEzNTEgMTUxNiwxMzUxIDE0ODQsMTM1MiAxNDU0LDEzNTIgMTQzMSwxMzUyIDEzOTIsMTM1MiAxMzM3LDEzNTIgMTI4MywxMzUyIDEyMjAsMTM1MiAxMTQ5LDEzNTIgMTA3OCwxMzUyIDEwMDcsMTM1MiA5MzYsMTM1MiA4NjUsMTM1MiA4MDEsMTM1MiA3NDUsMTM1MiA2ODksMTM1MiA2NTAsMTM1MiA2MjcsMTM1MiA1OTQsMTM1MiA1NjEsMTM1MSA1MjgsMTM1MSA0OTYsMTM1MCA0NjYsMTM0OCA0NDAsMTM0NiBMIDQ0MCwxNTE2IFogTSAxOTUsMTAwMSBDIDIyMyw5OTkgMjUyLDk5NiAyODIsOTk0IDMxMSw5OTIgMzQxLDk5MSAzNzMsOTkxIDM5MCw5OTEgNDI2LDk5MSA0NzgsOTkxIDUzMSw5OTEgNTk1LDk5MSA2NzEsOTkxIDc0Nyw5OTEgODI4LDk5MSA5MTUsOTkxIDEwMDMsOTkxIDEwOTAsOTkxIDExNzgsOTkxIDEyNjUsOTkxIDEzNDYsOTkxIDE0MjEsOTkxIDE0OTYsOTkxIDE1NjAsOTkxIDE2MTMsOTkxIDE2NjUsOTkxIDE2OTksOTkxIDE3MTQsOTkxIDE3MzYsOTkxIDE3NjIsOTkyIDE3OTIsOTkzIDE4MjIsOTk1IDE4NDksOTk3IDE4NzQsMTAwMSBMIDE4NzQsODMxIEMgMTg1Miw4MzMgMTgyNiw4MzQgMTc5Nyw4MzUgMTc2OCw4MzUgMTc0MCw4MzYgMTcxNCw4MzYgMTY5OSw4MzYgMTY2NSw4MzYgMTYxMyw4MzYgMTU2MCw4MzYgMTQ5Niw4MzYgMTQyMSw4MzYgMTM0Niw4MzYgMTI2NSw4MzYgMTE3OCw4MzYgMTA5MCw4MzYgMTAwMyw4MzYgOTE1LDgzNiA4MjgsODM2IDc0Nyw4MzYgNjcxLDgzNiA1OTUsODM2IDUzMSw4MzYgNDc4LDgzNiA0MjYsODM2IDM5MCw4MzYgMzczLDgzNiAzNDMsODM2IDMxMyw4MzYgMjgzLDgzNiAyNTMsODM2IDIyMyw4MzQgMTk1LDgzMSBMIDE5NSwxMDAxIFogTSAxMTU5LDkxOCBDIDExNTksNzg5IDExNTAsNjcxIDExMzIsNTY0IDExMTMsNDU3IDEwODEsMzYxIDEwMzYsMjc2IDEwMTIsMjMwIDk3OSwxODQgOTM3LDEzOCA4OTUsOTIgODQ5LDQ5IDc5OCw4IDc0NiwtMzMgNjkyLC02OCA2MzMsLTk4IEwgNDgxLDE0IEMgNTYwLDQ3IDYzNSw5MSA3MDUsMTQ3IDc3NCwyMDMgODI5LDI2NCA4NjgsMzI4IDkyMCw0MTAgOTUzLDUwMCA5NjcsNTk5IDk4MCw2OTggOTg3LDgwNCA5ODcsOTE4IEwgMTE1OSw5MTggWiIgdW5pY29kZT0i44OGIi8+CiAgIDxnbHlwaCBkPSJNIDk4OSwxMTgwIEMgOTk5LDExNTkgMTAxMSwxMTI5IDEwMjYsMTA4OSAxMDQxLDEwNDggMTA1NywxMDA2IDEwNzQsOTYxIDEwOTEsOTE1IDExMDcsODczIDExMjAsODMzIDExMzQsNzkyIDExNDQsNzYwIDExNTEsNzM3IEwgOTk5LDY4NCBDIDk5NCw3MDcgOTg1LDczOSA5NzIsNzc4IDk1OSw4MTggOTQ0LDg2MCA5MjgsOTA2IDkxMSw5NTIgODk1LDk5NSA4NzksMTAzNCA4NjIsMTA3NCA4NDksMTEwNSA4NDAsMTEyOCBMIDk4OSwxMTgwIFogTSAxNzMxLDEwNjUgQyAxNzI0LDEwNDQgMTcxOCwxMDI2IDE3MTMsMTAwOSAxNzA4LDk5MiAxNzA0LDk3NiAxNzAwLDk2MyAxNjczLDg1MSAxNjM2LDc0MSAxNTg5LDYzNCAxNTQzLDUyNyAxNDgzLDQyNyAxNDA5LDMzNCAxMzE1LDIxNCAxMjA5LDExMyAxMDkxLDMzIDk3MiwtNDggODU2LC0xMTAgNzQxLC0xNTQgTCA2MDYsLTE2IEMgNjg1LDggNzY2LDQxIDg0Nyw4MiA5MjgsMTIzIDEwMDUsMTcyIDEwNzgsMjI5IDExNTEsMjg3IDEyMTYsMzUwIDEyNzIsNDIwIDEzMjEsNDgwIDEzNjUsNTQ4IDE0MDQsNjIzIDE0NDMsNjk4IDE0NzUsNzc4IDE1MDEsODYyIDE1MjcsOTQ3IDE1NDUsMTAzMyAxNTU0LDExMjAgTCAxNzMxLDEwNjUgWiBNIDUxNCwxMDc3IEMgNTI1LDEwNTQgNTM5LDEwMjMgNTU1LDk4MyA1NzEsOTQzIDU4OSw5MDAgNjA3LDg1MyA2MjYsODA2IDY0Myw3NjEgNjYwLDcxOCA2NzgsNjc1IDY5MSw2NDAgNzAwLDYxNCBMIDU0NSw1NTcgQyA1MzcsNTgzIDUyNSw2MTggNTA5LDY2MyA0OTMsNzA3IDQ3Niw3NTMgNDU3LDgwMSA0MzgsODQ5IDQxOSw4OTIgNDAyLDkzMiAzODUsOTcxIDM3MiwxMDAwIDM2MywxMDE4IEwgNTE0LDEwNzcgWiIgdW5pY29kZT0i44ODIi8+CiAgIDxnbHlwaCBkPSJNIDg1MCw5MzggQyA5MTUsOTAwIDk4NCw4NTcgMTA1Nyw4MTEgMTEyOSw3NjUgMTIwMSw3MTYgMTI3Myw2NjcgMTM0NSw2MTcgMTQxMyw1NjggMTQ3OSw1MjAgMTU0NCw0NzIgMTYwMiw0MjcgMTY1MywzODUgTCAxNTMyLDI0NCBDIDE0ODUsMjg2IDE0MzAsMzMzIDEzNjUsMzg0IDEzMDAsNDM1IDEyMzIsNDg3IDExNTksNTQwIDEwODcsNTkyIDEwMTQsNjQzIDk0Miw2OTIgODcwLDc0MSA4MDIsNzg2IDczOSw4MjUgTCA4NTAsOTM4IFogTSAxNzg4LDEzMTMgQyAxNzc4LDEyOTggMTc2OSwxMjgwIDE3NjEsMTI1OCAxNzUzLDEyMzcgMTc0NiwxMjE5IDE3MzksMTIwMiAxNzIwLDExMzMgMTY5MiwxMDU3IDE2NTcsOTc3IDE2MjEsODk2IDE1ODAsODE1IDE1MzIsNzM0IDE0ODQsNjUzIDE0MzAsNTc1IDEzNjgsNTAwIDEyNzcsMzg2IDExNjIsMjc4IDEwMjUsMTczIDg4OCw2OSA3MjIsLTE5IDUyOCwtOTAgTCAzODEsMzcgQyA1MDgsNzYgNjI0LDEyNSA3MjgsMTgzIDgzMywyNDEgOTI2LDMwNSAxMDEwLDM3NSAxMDkzLDQ0NCAxMTY1LDUxNiAxMjI3LDU5MCAxMjgwLDY1MyAxMzI5LDcyMiAxMzczLDc5NyAxNDE4LDg3MiAxNDU2LDk0NyAxNDg5LDEwMjEgMTUyMiwxMDk1IDE1NDYsMTE2NSAxNTYxLDEyMjkgTCA4MDEsMTIyOSA4NjYsMTM3NCAxNTE4LDEzNzQgQyAxNTQ1LDEzNzQgMTU3MCwxMzc2IDE1OTMsMTM3OSAxNjE3LDEzODMgMTYzNiwxMzg4IDE2NTMsMTM5NSBMIDE3ODgsMTMxMyBaIE0gMTA5OCwxNjA4IEMgMTA4MCwxNTgwIDEwNjMsMTU1MiAxMDQ3LDE1MjIgMTAzMCwxNDkyIDEwMTYsMTQ2NyAxMDA2LDE0NDggOTY1LDEzNzMgOTEyLDEyOTEgODQ3LDEyMDEgNzgyLDExMTIgNzA2LDEwMjMgNjIwLDkzNCA1MzMsODQ1IDQzNSw3NjMgMzI2LDY4NiBMIDE4OCw3OTMgQyAzMDYsODY1IDQwOCw5NDUgNDk0LDEwMzIgNTgwLDExMjAgNjUyLDEyMDUgNzExLDEyODggNzY5LDEzNzEgODE0LDE0NDQgODQ2LDE1MDUgODU3LDE1MjMgODY5LDE1NDggODgzLDE1ODAgODk2LDE2MTIgOTA2LDE2NDEgOTExLDE2NjcgTCAxMDk4LDE2MDggWiIgdW5pY29kZT0i44K/Ii8+CiAgIDxnbHlwaCBkPSJNIDE2MzgsMTM3MCBDIDE2MzIsMTM2MiAxNjIzLDEzNDkgMTYxMywxMzMwIDE2MDMsMTMxMiAxNTk0LDEyOTUgMTU4NywxMjgwIDE1NjEsMTIxMyAxNTI3LDExMzkgMTQ4NSwxMDU4IDE0NDIsOTc3IDEzOTUsODk2IDEzNDMsODE3IDEyOTIsNzM4IDEyMzcsNjY2IDExODAsNjAyIDExMDUsNTE3IDEwMjIsNDM1IDkzMiwzNTUgODQyLDI3NSA3NDcsMjAxIDY0NywxMzIgNTQ3LDYzIDQ0NCw0IDMzNiwtNDUgTCAyMDUsOTIgQyAzMTUsMTM2IDQyMiwxOTAgNTIzLDI1NSA2MjUsMzIwIDcyMSwzOTEgODEwLDQ2OCA4OTksNTQ1IDk3OSw2MjMgMTA0OSw3MDAgMTA5NSw3NTQgMTE0MSw4MTMgMTE4Nyw4ODAgMTIzMyw5NDYgMTI3NCwxMDEzIDEzMTAsMTA4MiAxMzQ2LDExNTEgMTM3MiwxMjE0IDEzODksMTI3MCAxMzc4LDEyNzAgMTM1MiwxMjcwIDEzMTEsMTI3MCAxMjcwLDEyNzAgMTIyMSwxMjcwIDExNjUsMTI3MCAxMTA5LDEyNzAgMTA1MSwxMjcwIDk4OSwxMjcwIDkyOCwxMjcwIDg2OSwxMjcwIDgxMywxMjcwIDc1NywxMjcwIDcwOSwxMjcwIDY2OSwxMjcwIDYyOCwxMjcwIDYwMiwxMjcwIDU5MCwxMjcwIDU2NywxMjcwIDU0MCwxMjY5IDUxMSwxMjY4IDQ4MiwxMjY2IDQ1NSwxMjY1IDQzMSwxMjY0IDQwNywxMjYyIDM5MSwxMjYxIDM4MywxMjYwIEwgMzgzLDE0NDYgQyAzOTMsMTQ0NSA0MTAsMTQ0MyA0MzUsMTQ0MSA0NjAsMTQzOSA0ODcsMTQzNyA1MTYsMTQzNiA1NDUsMTQzNCA1NjksMTQzNCA1OTAsMTQzNCA2MDUsMTQzNCA2MzIsMTQzNCA2NzIsMTQzNCA3MTEsMTQzNCA3NTksMTQzNCA4MTQsMTQzNCA4NjksMTQzNCA5MjcsMTQzNCA5ODcsMTQzNCAxMDQ3LDE0MzQgMTEwNSwxNDM0IDExNjAsMTQzNCAxMjE1LDE0MzQgMTI2MywxNDM0IDEzMDMsMTQzNCAxMzQyLDE0MzQgMTM2OCwxNDM0IDEzODAsMTQzNCAxNDE0LDE0MzQgMTQ0NSwxNDM1IDE0NzEsMTQzOCAxNDk4LDE0NDAgMTUxOSwxNDQ1IDE1MzQsMTQ1MCBMIDE2MzgsMTM3MCBaIE0gMTIwNiw3MTEgQyAxMjYyLDY2NCAxMzIwLDYxMyAxMzc5LDU1NyAxNDM5LDUwMSAxNDk3LDQ0MyAxNTU0LDM4NCAxNjEyLDMyNSAxNjY1LDI2OCAxNzE0LDIxNCAxNzYzLDE2MCAxODA2LDExMSAxODQxLDY4IEwgMTY5OCwtNTUgQyAxNjUwLDEwIDE1OTMsODEgMTUyNiwxNTcgMTQ1OSwyMzIgMTM4OCwzMDggMTMxNCwzODQgMTIzOSw0NjAgMTE2NSw1MzAgMTA5MCw1OTQgTCAxMjA2LDcxMSBaIiB1bmljb2RlPSLjgrkiLz4KICAgPGdseXBoIGQ9Ik0gMTc4NiwxMjgwIEMgMTc3NiwxMjY2IDE3NjcsMTI0OSAxNzU5LDEyMjggMTc1MSwxMjA3IDE3NDQsMTE4OCAxNzM5LDExNzEgMTcyMSwxMTAzIDE2OTUsMTAyOCAxNjYxLDk0NyAxNjI3LDg2NiAxNTg2LDc4NCAxNTM4LDcwMSAxNDkwLDYxOSAxNDM2LDU0MSAxMzc0LDQ2NyAxMjgxLDM1NCAxMTcwLDI1MCAxMDQxLDE1NyA5MTIsNjMgNzUyLC0xOSA1NTksLTkwIEwgNDEyLDQzIEMgNTM3LDgwIDY1MCwxMjUgNzUwLDE3NyA4NDksMjMwIDkzOSwyODggMTAxOCwzNTIgMTA5Nyw0MTYgMTE2Nyw0ODUgMTIyOSw1NTcgMTI4Miw2MjAgMTMzMSw2ODkgMTM3NSw3NjQgMTQyMCw4MzkgMTQ1Nyw5MTQgMTQ4OSw5OTAgMTUyMCwxMDY2IDE1NDMsMTEzNSAxNTU2LDExOTYgTCA3OTcsMTE5NiA4NjIsMTM0MyBDIDg3OSwxMzQzIDkwOSwxMzQzIDk1NCwxMzQzIDk5OSwxMzQzIDEwNTEsMTM0MyAxMTA5LDEzNDMgMTE2NywxMzQzIDEyMjUsMTM0MyAxMjgyLDEzNDMgMTMzOSwxMzQzIDEzOTAsMTM0MyAxNDMzLDEzNDMgMTQ3NiwxMzQzIDE1MDMsMTM0MyAxNTE2LDEzNDMgMTU0MywxMzQzIDE1NjgsMTM0NSAxNTkxLDEzNDkgMTYxNSwxMzUyIDE2MzQsMTM1NyAxNjQ5LDEzNjQgTCAxNzg2LDEyODAgWiBNIDExMDAsMTU5MSBDIDEwODIsMTU2NCAxMDY1LDE1MzUgMTA0OSwxNTA0IDEwMzIsMTQ3NCAxMDE5LDE0NDkgMTAxMCwxNDMwIDk2OSwxMzU0IDkxOCwxMjc0IDg1NiwxMTg3IDc5NSwxMTAwIDcyMiwxMDE0IDYzNyw5MzAgNTUyLDg0NSA0NTUsNzY2IDM0NCw2OTIgTCAyMDMsNzk5IEMgMjkyLDg1MSAzNzEsOTA3IDQ0MCw5NjkgNTEwLDEwMzAgNTcxLDEwOTIgNjI0LDExNTUgNjc2LDEyMTggNzIxLDEyNzggNzU4LDEzMzUgNzk1LDEzOTMgODI0LDE0NDUgODQ2LDE0OTEgODU3LDE1MDkgODY5LDE1MzQgODgyLDE1NjYgODk1LDE1OTggOTA0LDE2MjcgOTA5LDE2NTMgTCAxMTAwLDE1OTEgWiIgdW5pY29kZT0i44KvIi8+CiAgIDxnbHlwaCBkPSJNIDgwMywxNDQ4IEMgNzk3LDE0NzQgNzkyLDE0OTggNzg1LDE1MjIgNzc5LDE1NDUgNzcyLDE1NjcgNzY0LDE1ODcgTCA5NDgsMTYyMCBDIDk1MCwxNjAxIDk1MiwxNTc4IDk1NiwxNTUxIDk2MSwxNTI1IDk2NCwxNTAxIDk2NywxNDc5IDk2OSwxNDY1IDk3NiwxNDMzIDk4NSwxMzgzIDk5NSwxMzM0IDEwMDcsMTI3MSAxMDIxLDExOTYgMTAzNSwxMTIxIDEwNTEsMTA0MCAxMDY5LDk1MiAxMDg3LDg2NSAxMTA1LDc3NyAxMTIyLDY4OCAxMTQwLDU5OSAxMTU2LDUxNiAxMTcxLDQzOCAxMTg2LDM2MCAxMjAwLDI5NCAxMjExLDI0MCAxMjIzLDE4NSAxMjMxLDE0OCAxMjM1LDEyOSAxMjQyLDk5IDEyNDksNjggMTI1NywzNSAxMjY2LDIgMTI3NSwtMjkgMTI4NCwtNTcgTCAxMDk4LC05MiBDIDEwOTIsLTU4IDEwODcsLTI1IDEwODMsNyAxMDc5LDM5IDEwNzQsNzAgMTA2NywxMDAgMTA2NCwxMTggMTA1OCwxNTQgMTA0OCwyMDggMTAzNywyNjIgMTAyNSwzMjcgMTAxMCw0MDMgOTk1LDQ4MCA5NzgsNTYyIDk2MSw2NTAgOTQzLDczOCA5MjUsODI2IDkwOCw5MTMgODkxLDEwMDEgODc1LDEwODIgODYwLDExNTcgODQ1LDEyMzIgODMzLDEyOTYgODIyLDEzNDggODEyLDEzOTkgODA2LDE0MzMgODAzLDE0NDggWiBNIDIyNSwxMTUzIEMgMjUwLDExNTQgMjc2LDExNTYgMzA0LDExNTggMzMyLDExNjAgMzYyLDExNjMgMzk1LDExNjcgNDI3LDExNzEgNDcwLDExNzcgNTI2LDExODUgNTgyLDExOTIgNjQ1LDEyMDEgNzE2LDEyMTEgNzg2LDEyMjIgODU5LDEyMzMgOTM1LDEyNDUgMTAxMSwxMjU3IDEwODQsMTI2OSAxMTU1LDEyODEgMTIyNiwxMjkzIDEyOTAsMTMwMyAxMzQ4LDEzMTMgMTQwNSwxMzIyIDE0NTAsMTMzMSAxNDgzLDEzMzcgMTUxMywxMzQzIDE1NDAsMTM0OSAxNTY2LDEzNTUgMTU5MSwxMzYxIDE2MTIsMTM2NyAxNjI4LDEzNzIgTCAxNjYzLDExOTggQyAxNjQ4LDExOTcgMTYyNiwxMTk0IDE1OTgsMTE5MSAxNTcwLDExODggMTU0MywxMTg0IDE1MTYsMTE4MCAxNDgwLDExNzQgMTQzMywxMTY3IDEzNzQsMTE1NyAxMzE1LDExNDggMTI1MCwxMTM3IDExNzksMTEyNSAxMTA3LDExMTQgMTAzNCwxMTAyIDk1OCwxMDkxIDg4MywxMDc5IDgxMSwxMDY3IDc0MCwxMDU2IDY3MCwxMDQ0IDYwOCwxMDM0IDU1MywxMDI1IDQ5OCwxMDE2IDQ1NiwxMDA5IDQyNiwxMDA0IDM5Nyw5OTkgMzcwLDk5NSAzNDUsOTg5IDMyMCw5ODQgMjkyLDk3NyAyNjAsOTY5IEwgMjI1LDExNTMgWiBNIDIxOSw1NjEgQyAyNDQsNTYzIDI3Myw1NjUgMzA3LDU2OCAzNDEsNTcyIDM3Miw1NzUgMzk5LDU4MCA0MzYsNTg0IDQ4Niw1OTEgNTQ4LDYwMCA2MTAsNjEwIDY4MCw2MjEgNzU5LDYzNCA4MzcsNjQ3IDkxOSw2NjAgMTAwMyw2NzQgMTA4Niw2ODcgMTE2OCw3MDEgMTI0Nyw3MTUgMTMyNiw3MjggMTM5OSw3NDEgMTQ2NSw3NTMgMTUzMiw3NjQgMTU4NCw3NzMgMTYyNCw3ODAgMTY2NCw3ODcgMTY5OCw3OTQgMTcyOSw4MDEgMTc1OSw4MDggMTc4NCw4MTQgMTgwNiw4MTkgTCAxODM5LDY0NyBDIDE4MTksNjQ2IDE3OTIsNjQzIDE3NjAsNjM4IDE3MjgsNjMzIDE2OTMsNjI3IDE2NTUsNjIxIDE2MTAsNjE0IDE1NTMsNjA1IDE0ODYsNTk0IDE0MTgsNTgzIDEzNDUsNTcxIDEyNjYsNTU4IDExODYsNTQ1IDExMDYsNTMyIDEwMjMsNTE5IDk0MCw1MDYgODYxLDQ5MyA3ODQsNDgwIDcwOCw0NjcgNjQwLDQ1NiA1ODAsNDQ1IDUyMCw0MzUgNDcyLDQyNyA0MzYsNDIwIDM5Nyw0MTMgMzYyLDQwNyAzMzMsNDAxIDMwMywzOTYgMjc4LDM5MCAyNTYsMzgzIEwgMjE5LDU2MSBaIiB1bmljb2RlPSLjgq0iLz4KICAgPGdseXBoIGQ9Ik0gMTEwOCwxNjQwIEMgMTEwNCwxNjA5IDExMDEsMTU4MSAxMDk5LDE1NTYgMTA5NywxNTMyIDEwOTYsMTUwOSAxMDk2LDE0ODcgMTA5NiwxNDcwIDEwOTYsMTQ0NSAxMDk2LDE0MTEgMTA5NiwxMzc3IDEwOTYsMTM0MSAxMDk2LDEzMDUgMTA5NiwxMjY4IDEwOTYsMTIzNyAxMDk2LDEyMTIgTCA5MjIsMTIxMiBDIDkyMiwxMjQwIDkyMiwxMjcyIDkyMiwxMzA5IDkyMiwxMzQ2IDkyMiwxMzgwIDkyMiwxNDEzIDkyMiwxNDQ2IDkyMiwxNDcwIDkyMiwxNDg3IDkyMiwxNTA5IDkyMSwxNTMyIDkyMSwxNTU2IDkyMCwxNTgxIDkxNywxNjA5IDkxMSwxNjQwIEwgMTEwOCwxNjQwIFogTSAxODA2LDEyNDMgQyAxODAxLDEyMjggMTc5NSwxMjA5IDE3OTAsMTE4NSAxNzg0LDExNjEgMTc4MCwxMTM5IDE3NzYsMTEyMCAxNzcwLDEwNzkgMTc2MiwxMDM0IDE3NTAsOTgzIDE3MzgsOTMzIDE3MjQsODgwIDE3MDgsODI0IDE2OTIsNzY5IDE2NzMsNzE0IDE2NTEsNjYwIDE2MjksNjA3IDE2MDQsNTU0IDE1NzUsNTA0IDE1MjQsNDE1IDE0NjAsMzMzIDEzODAsMjU4IDEzMDEsMTgzIDEyMTAsMTE3IDExMDcsNjEgMTAwNCw1IDg5MCwtNDAgNzY0LC03NiBMIDYzMSw3OCBDIDY2NSw4MyA3MDEsOTEgNzM4LDEwMSA3NzYsMTEyIDgxMSwxMjMgODQ0LDEzNSA5MTIsMTU3IDk4MSwxODggMTA1MSwyMjggMTEyMCwyNjkgMTE4NSwzMTYgMTI0NiwzNzAgMTMwNyw0MjQgMTM1OCw0ODMgMTM5OSw1NDcgMTQzNiw2MDYgMTQ2Nyw2NzAgMTQ5NCw3MzkgMTUyMSw4MDkgMTU0Miw4NzkgMTU1OSw5NTAgMTU3NSwxMDIxIDE1ODcsMTA4NiAxNTkzLDExNDUgTCA0NDksMTE0NSBDIDQ0OSwxMTIzIDQ0OSwxMDk1IDQ0OSwxMDYxIDQ0OSwxMDI3IDQ0OSw5OTEgNDQ5LDk1MyA0NDksOTE2IDQ0OSw4ODEgNDQ5LDg0OSA0NDksODE3IDQ0OSw3OTMgNDQ5LDc3OCA0NDksNzU5IDQ0OSw3MzggNDUxLDcxNSA0NTIsNjkyIDQ1NCw2NzIgNDU3LDY1NSBMIDI3OSw2NTUgQyAyODEsNjc0IDI4Myw2OTYgMjg0LDcyMSAyODQsNzQ1IDI4NSw3NjcgMjg1LDc4NiAyODUsODAzIDI4NSw4MjcgMjg1LDg2MCAyODUsODkzIDI4NSw5MjggMjg1LDk2NiAyODUsMTAwMyAyODUsMTAzOCAyODUsMTA3MSAyODUsMTEwNCAyODUsMTEyOSAyODUsMTE0NyAyODUsMTE2OSAyODQsMTE5NSAyODQsMTIyNSAyODMsMTI1NSAyODEsMTI4MSAyNzksMTMwNSAzMDksMTMwMiAzMzksMTMwMCAzNzAsMTI5OCA0MDAsMTI5NyA0MzMsMTI5NiA0NjksMTI5NiBMIDE1NTQsMTI5NiBDIDE1OTMsMTI5NiAxNjIyLDEyOTggMTY0NCwxMzAyIDE2NjUsMTMwNSAxNjgyLDEzMDkgMTY5NiwxMzEzIEwgMTgwNiwxMjQzIFoiIHVuaWNvZGU9IuOCpiIvPgogICA8Z2x5cGggZD0iTSAxNzYsNzM5IEMgMzU0LDc4NyA1MTksODQ1IDY3Miw5MTMgODI1LDk4MiA5NTgsMTA1MSAxMDcxLDExMjIgMTE0MiwxMTY3IDEyMTEsMTIxNiAxMjc5LDEyNjkgMTM0NywxMzIxIDE0MTAsMTM3NiAxNDcwLDE0MzQgMTUzMSwxNDkxIDE1ODQsMTU0OCAxNjMwLDE2MDQgTCAxNzY3LDE0NzcgQyAxNzEwLDE0MTUgMTY0OCwxMzU1IDE1ODEsMTI5NiAxNTE0LDEyMzggMTQ0MywxMTgxIDEzNjksMTEyNyAxMjk1LDEwNzMgMTIxNywxMDIxIDExMzcsOTcxIDEwNjIsOTI2IDk3Nyw4NzkgODgzLDgzMSA3ODgsNzg0IDY4OCw3MzkgNTgyLDY5NiA0NzUsNjU0IDM2Nyw2MTUgMjU4LDU4MCBMIDE3Niw3MzkgWiBNIDEwMzgsMTAzNiBMIDEyMTQsMTA5MCAxMjE0LDE1NiBDIDEyMTQsMTMwIDEyMTUsMTAyIDEyMTUsNzQgMTIxNiw0NSAxMjE4LDE4IDEyMjAsLTYgMTIyMiwtMzEgMTIyNCwtNTAgMTIyNywtNjMgTCAxMDI2LC02MyBDIDEwMjcsLTUwIDEwMjksLTMxIDEwMzEsLTYgMTAzMywxOCAxMDM1LDQ1IDEwMzYsNzQgMTAzOCwxMDIgMTAzOCwxMzAgMTAzOCwxNTYgTCAxMDM4LDEwMzYgWiIgdW5pY29kZT0i44KkIi8+CiAgIDxnbHlwaCBkPSJNIDE5MDcsMTM4NCBDIDE4OTksMTM3NSAxODg5LDEzNjMgMTg3OSwxMzUwIDE4NjksMTMzNiAxODYwLDEzMjMgMTg1MSwxMzExIDE4MjUsMTI2NCAxNzg3LDEyMDcgMTczNiwxMTQwIDE2ODQsMTA3MiAxNjI1LDEwMDMgMTU1OSw5MzMgMTQ5Miw4NjMgMTQxOSw4MDAgMTM0MSw3NDUgTCAxMjA2LDg1NCBDIDEyNTQsODgxIDEzMDEsOTE0IDEzNDcsOTUzIDEzOTIsOTkyIDE0MzUsMTAzMyAxNDc2LDEwNzYgMTUxNiwxMTE5IDE1NTEsMTE2MiAxNTgyLDEyMDMgMTYxMywxMjQ1IDE2MzcsMTI4MSAxNjU1LDEzMTMgMTYzMywxMzEzIDE1OTgsMTMxMyAxNTQ5LDEzMTMgMTUwMSwxMzEzIDE0NDQsMTMxMyAxMzc3LDEzMTMgMTMxMSwxMzEzIDEyNDAsMTMxMyAxMTY1LDEzMTMgMTA5MCwxMzEzIDEwMTYsMTMxMyA5NDIsMTMxMyA4NjgsMTMxMyA3OTksMTMxMyA3MzUsMTMxMyA2NzEsMTMxMyA2MTcsMTMxMyA1NzMsMTMxMyA1MzAsMTMxMyA1MDEsMTMxMyA0ODcsMTMxMyA0NDksMTMxMyA0MTEsMTMxMiAzNzMsMTMxMCAzMzUsMTMwOCAyOTUsMTMwNSAyNTQsMTMwMCBMIDI1NCwxNDg3IEMgMjg5LDE0ODEgMzI4LDE0NzcgMzY5LDE0NzQgNDEwLDE0NzAgNDQ5LDE0NjggNDg3LDE0NjggNTAxLDE0NjggNTMwLDE0NjggNTc1LDE0NjggNjIxLDE0NjggNjc2LDE0NjggNzQwLDE0NjggODA1LDE0NjggODc2LDE0NjggOTUyLDE0NjggMTAyOSwxNDY4IDExMDUsMTQ2OCAxMTgxLDE0NjggMTI1NiwxNDY4IDEzMjgsMTQ2OCAxMzk1LDE0NjggMTQ2MiwxNDY4IDE1MTksMTQ2OCAxNTY2LDE0NjggMTYxMywxNDY4IDE2NDUsMTQ2OCAxNjYzLDE0NjggMTY3NywxNDY4IDE2OTMsMTQ2OSAxNzExLDE0NjkgMTczMCwxNDcwIDE3NDgsMTQ3MiAxNzY1LDE0NzUgMTc4MywxNDc3IDE3OTcsMTQ3OSAxODA2LDE0ODEgTCAxOTA3LDEzODQgWiBNIDEwOTAsMTExNCBDIDEwOTAsMTAwNCAxMDg2LDkwMCAxMDc5LDgwMyAxMDcyLDcwNiAxMDU5LDYxNSAxMDM4LDUzMCAxMDE4LDQ0NiA5ODcsMzY4IDk0NSwyOTYgOTA0LDIyNCA4NDgsMTU3IDc3OCw5NSA3MDksMzMgNjIyLC0yNCA1MTgsLTc2IEwgMzY3LDQ3IEMgMzk1LDU3IDQyNiw2OSA0NTksODUgNDkyLDEwMSA1MjIsMTE5IDU1MSwxMzkgNjMxLDE4NyA2OTYsMjQxIDc0MywzMDEgNzkxLDM2MSA4MjcsNDI2IDg1MSw0OTcgODc1LDU2NyA4OTEsNjQxIDkwMCw3MjAgOTA5LDc5OCA5MTMsODgwIDkxMyw5NjUgOTEzLDk5MSA5MTMsMTAxNSA5MTIsMTAzOCA5MTIsMTA2MiA5MDksMTA4NyA5MDUsMTExNCBMIDEwOTAsMTExNCBaIiB1bmljb2RlPSLjgqIiLz4KICAgPGdseXBoIGQ9Ik0gOTQyLDE2MjAgQyA5MzQsMTU3OSA5MjMsMTUzMSA5MTAsMTQ3NiA4OTcsMTQyMCA4NzcsMTM1OCA4NDgsMTI4OCA4MjMsMTIyNyA3OTMsMTE2MyA3NTcsMTA5OCA3MjEsMTAzMiA2ODIsOTczIDY0MSw5MjAgNjY3LDkzNiA2OTYsOTUwIDcyOSw5NjIgNzYyLDk3MyA3OTYsOTgyIDgzMCw5ODcgODY1LDk5MyA4OTcsOTk1IDkyNiw5OTUgMTAwNSw5OTUgMTA3Miw5NzMgMTEyNiw5MjkgMTE4MSw4ODQgMTIwOCw4MjAgMTIwOCw3MzUgMTIwOCw3MDkgMTIwOCw2NzYgMTIwOCw2MzYgMTIwOCw1OTYgMTIwOSw1NTMgMTIwOSw1MDkgMTIxMCw0NjUgMTIxMSw0MjEgMTIxMiwzNzkgMTIxNCwzMzcgMTIxNCwzMDAgMTIxNCwyNjggTCAxMDU3LDI2OCBDIDEwNTgsMjk2IDEwNTksMzI4IDEwNjEsMzY1IDEwNjIsNDAxIDEwNjMsNDQwIDEwNjQsNDgxIDEwNjUsNTIyIDEwNjUsNTYxIDEwNjQsNTk4IDEwNjMsNjM1IDEwNjMsNjY2IDEwNjMsNjkyIDEwNjMsNzUyIDEwNDUsNzk2IDEwMDksODI0IDk3Miw4NTIgOTI3LDg2NiA4NzIsODY2IDgwOCw4NjYgNzQ1LDg1MiA2ODMsODI0IDYyMSw3OTYgNTY3LDc2MCA1MjAsNzE3IDQ5MCw2ODggNDYwLDY1NiA0MzEsNjIwIDQwMiw1ODMgMzY5LDU0NSAzMzQsNTA0IEwgMTk1LDYwNiBDIDI5Myw3MDIgMzc1LDc5MSA0NDAsODc0IDUwNiw5NTggNTU5LDEwMzUgNjAwLDExMDcgNjQxLDExNzkgNjczLDEyNDMgNjk2LDEzMDAgNzE4LDEzNTggNzM2LDE0MTYgNzUwLDE0NzQgNzYzLDE1MzIgNzcxLDE1ODUgNzc0LDE2MzQgTCA5NDIsMTYyMCBaIE0gMjQyLDEzOTkgQyAyOTYsMTM5MiAzNTYsMTM4NiA0MjAsMTM4MiA0ODQsMTM3OCA1NDAsMTM3NiA1ODgsMTM3NiA2NzksMTM3NiA3NzgsMTM3OSA4ODMsMTM4MyA5ODgsMTM4OCAxMDk0LDEzOTUgMTIwMSwxNDA1IDEzMDgsMTQxNCAxNDEwLDE0MjggMTUwNywxNDQ2IEwgMTUwNSwxMjk0IEMgMTQzNCwxMjgyIDEzNTksMTI3MiAxMjc4LDEyNjUgMTE5NywxMjU3IDExMTUsMTI1MSAxMDMyLDEyNDYgOTQ5LDEyNDEgODY5LDEyMzggNzkyLDEyMzYgNzE0LDEyMzQgNjQzLDEyMzMgNTc4LDEyMzMgNTQ5LDEyMzMgNTE2LDEyMzMgNDc4LDEyMzQgNDQxLDEyMzUgNDAxLDEyMzYgMzYwLDEyMzggMzE5LDEyNDAgMjgwLDEyNDIgMjQyLDEyNDUgTCAyNDIsMTM5OSBaIE0gMTgwNiw5MDMgQyAxNzg5LDg5OSAxNzY5LDg5MyAxNzQ4LDg4NiAxNzI3LDg3OCAxNzA2LDg3MCAxNjg0LDg2MiAxNjYzLDg1NCAxNjQzLDg0NiAxNjI0LDgzOCAxNTUzLDgxMCAxNDcwLDc3NyAxMzc2LDczNyAxMjgyLDY5OCAxMTg2LDY1MiAxMDg3LDYwMCAxMDE5LDU2NiA5NTksNTMwIDkwNyw0OTMgODU1LDQ1NSA4MTQsNDE2IDc4NCwzNzYgNzU0LDMzNiA3MzksMjkyIDczOSwyNDQgNzM5LDIwNCA3NDksMTcyIDc2NywxNDcgNzg1LDEyMyA4MTIsMTA0IDg0Niw5MSA4ODAsNzggOTE5LDcwIDk2NCw2NiAxMDA4LDYxIDEwNTcsNTkgMTExMCw1OSAxMTg5LDU5IDEyODAsNjQgMTM4MSw3MyAxNDgzLDgyIDE1NzksOTQgMTY2OSwxMDkgTCAxNjY1LC01NSBDIDE2MTMsLTYyIDE1NTUsLTY4IDE0OTAsLTc0IDE0MjUsLTc5IDEzNjAsLTg0IDEyOTMsLTg3IDEyMjcsLTkwIDExNjQsLTkyIDExMDQsLTkyIDEwMDcsLTkyIDkxOSwtODMgODM5LC02NiA3NTksLTQ4IDY5NSwtMTYgNjQ3LDI5IDU5OSw3NCA1NzUsMTM4IDU3NSwyMjEgNTc1LDI4MyA1OTAsMzM5IDYxOCwzOTAgNjQ3LDQ0MSA2ODYsNDg4IDczNCw1MzAgNzgzLDU3MyA4MzYsNjEyIDg5NSw2NDggOTU0LDY4NCAxMDE0LDcxNyAxMDc1LDc0OCAxMTQxLDc4MyAxMjAzLDgxNCAxMjYxLDg0MCAxMzE5LDg2NiAxMzc0LDg5MCAxNDI1LDkxMSAxNDc3LDkzMyAxNTI2LDk1NSAxNTcxLDk3NyAxNjAxLDk5MSAxNjMwLDEwMDQgMTY1NywxMDE2IDE2ODQsMTAyOCAxNzExLDEwNDIgMTczOSwxMDU3IEwgMTgwNiw5MDMgWiIgdW5pY29kZT0i44KSIi8+CiAgIDxnbHlwaCBkPSJNIDExNTUsMTM5OSBDIDExNDEsMTI5MiAxMTI0LDExODEgMTEwMywxMDY1IDEwODIsOTQ5IDEwNTUsODM2IDEwMjIsNzI3IDk4MSw1ODYgOTM2LDQ2OSA4ODYsMzc1IDgzNiwyODEgNzgyLDIxMCA3MjUsMTYyIDY2OCwxMTQgNjA4LDkwIDU0NSw5MCA0ODUsOTAgNDI3LDExMiAzNzEsMTU2IDMxNSwxOTkgMjY5LDI2MiAyMzMsMzQ1IDE5OCw0MjggMTgwLDUyNSAxODAsNjM3IDE4MCw3NDkgMjAzLDg1NSAyNDksOTU0IDI5NSwxMDU0IDM1OCwxMTQyIDQzOSwxMjIwIDUyMSwxMjk3IDYxNiwxMzU4IDcyNSwxNDAzIDgzNCwxNDQ4IDk1MSwxNDcwIDEwNzUsMTQ3MCAxMTk1LDE0NzAgMTMwNCwxNDUxIDE0MDAsMTQxMSAxNDk2LDEzNzEgMTU3OCwxMzE3IDE2NDcsMTI0OCAxNzE1LDExNzkgMTc2NywxMDk5IDE4MDQsMTAwOSAxODQxLDkxOCAxODYwLDgyMSAxODYwLDcxNyAxODYwLDU3MyAxODI5LDQ0NyAxNzY4LDMzOCAxNzA4LDIyOSAxNjIwLDE0MCAxNTA2LDcyIDEzOTIsMyAxMjU0LC00MiAxMDkyLC02MyBMIDk5NSw4OCBDIDEwMjgsOTIgMTA2MCw5NiAxMDkwLDEwMCAxMTIwLDEwNCAxMTQ3LDEwOSAxMTcxLDExNSAxMjM3LDEzMCAxMzAxLDE1MyAxMzYzLDE4NSAxNDI1LDIxNyAxNDgxLDI1OCAxNTMwLDMwOCAxNTc5LDM1OCAxNjE4LDQxNyAxNjQ4LDQ4NiAxNjc3LDU1NSAxNjkyLDYzNCAxNjkyLDcyMyAxNjkyLDgwNiAxNjc4LDg4NCAxNjUxLDk1NSAxNjIzLDEwMjcgMTU4MywxMDkwIDE1MzAsMTE0NSAxNDc3LDExOTkgMTQxMiwxMjQyIDEzMzUsMTI3NCAxMjU5LDEzMDUgMTE3MSwxMzIxIDEwNzMsMTMyMSA5NjEsMTMyMSA4NjAsMTMwMCA3NjksMTI2MCA2NzgsMTIxOSA2MDEsMTE2NSA1MzgsMTA5OSA0NzQsMTAzMyA0MjUsOTYwIDM5MSw4ODIgMzU3LDgwMyAzNDAsNzI2IDM0MCw2NTEgMzQwLDU2NSAzNTEsNDk1IDM3NCw0MzkgMzk2LDM4NCA0MjQsMzQzIDQ1NiwzMTcgNDg4LDI5MiA1MjAsMjc5IDU1MSwyNzkgNTg0LDI3OSA2MTcsMjk1IDY1MSwzMjcgNjg1LDM1OSA3MjAsNDExIDc1Niw0ODIgNzkxLDU1NCA4MjYsNjQ3IDg2MCw3NjIgODkwLDg2MCA5MTYsOTY1IDkzNywxMDc1IDk1OCwxMTg2IDk3MywxMjk0IDk4MywxNDAxIEwgMTE1NSwxMzk5IFoiIHVuaWNvZGU9IuOBriIvPgogICA8Z2x5cGggZD0iTSAxNzQsMTM2MCBDIDIxNCwxMzYxIDI0OSwxMzYzIDI4MSwxMzY1IDMxMiwxMzY3IDMzNywxMzY5IDM1NiwxMzcwIDM4OSwxMzc0IDQzNywxMzc5IDQ5OSwxMzg1IDU2MSwxMzkyIDYzMiwxMzk4IDcxMywxNDA2IDc5MywxNDEzIDg4MCwxNDIxIDk3MywxNDMwIDEwNjYsMTQzOCAxMTU5LDE0NDYgMTI1MywxNDU0IDEzMjgsMTQ2MSAxMzk5LDE0NjcgMTQ2NiwxNDcxIDE1MzMsMTQ3NiAxNTk1LDE0ODAgMTY1MywxNDg0IDE3MTAsMTQ4NyAxNzYxLDE0OTAgMTgwNiwxNDkxIEwgMTgwNiwxMzI3IEMgMTc2OCwxMzI4IDE3MjQsMTMyOCAxNjc1LDEzMjcgMTYyNiwxMzI2IDE1NzgsMTMyMyAxNTMwLDEzMTggMTQ4MiwxMzEzIDE0NDAsMTMwNSAxNDA1LDEyOTQgMTMzMywxMjcxIDEyNjcsMTIzNiAxMjA5LDExODkgMTE1MSwxMTQyIDExMDIsMTA4OCAxMDYxLDEwMjcgMTAyMCw5NjYgOTg5LDkwMyA5NjgsODM3IDk0Nyw3NzAgOTM2LDcwNyA5MzYsNjQ3IDkzNiw1NjcgOTUwLDQ5NyA5NzcsNDM3IDEwMDQsMzc4IDEwNDEsMzI4IDEwODksMjg3IDExMzYsMjQ2IDExOTAsMjEyIDEyNTAsMTg2IDEzMTEsMTYwIDEzNzUsMTQxIDE0NDIsMTI5IDE1MDksMTE3IDE1NzYsMTA5IDE2NDMsMTA3IEwgMTU4MywtNjMgQyAxNTA4LC02MSAxNDMyLC01MCAxMzU1LC0zMiAxMjc4LC0xMyAxMjA0LDEzIDExMzUsNDggMTA2NSw4MyAxMDAzLDEyNyA5NDgsMTgwIDg5NCwyMzMgODUxLDI5NiA4MTksMzY3IDc4OCw0MzggNzcyLDUxOSA3NzIsNjEwIDc3Miw3MTcgNzkxLDgxNSA4MjgsOTA2IDg2Niw5OTcgOTE0LDEwNzcgOTczLDExNDUgMTAzMiwxMjEzIDEwOTIsMTI2NiAxMTU1LDEzMDMgMTExMSwxMjk3IDEwNTcsMTI5MSA5OTMsMTI4NCA5MjksMTI3NyA4NjAsMTI3MCA3ODUsMTI2MyA3MTEsMTI1NSA2MzcsMTI0NyA1NjMsMTIzNyA0ODksMTIyNyA0MjAsMTIxOCAzNTUsMTIwOSAyOTAsMTIwMCAyMzYsMTE5MSAxOTMsMTE4MiBMIDE3NCwxMzYwIFoiIHVuaWNvZGU9IuOBpiIvPgogICA8Z2x5cGggZD0iTSA2OTYsMTU5NSBDIDY5MSwxNTYxIDY4NywxNTI3IDY4NCwxNDkyIDY4MSwxNDU3IDY3OSwxNDIzIDY3OCwxMzg5IDY3NSwxMzMxIDY3MiwxMjYwIDY3MCwxMTc2IDY2NywxMDkxIDY2NCwxMDAxIDY2Miw5MDYgNjU5LDgxMSA2NTcsNzE3IDY1NSw2MjMgNjU0LDUyOCA2NTMsNDQ0IDY1MywzNjkgNjUzLDI5NCA2NjgsMjMzIDY5NiwxODggNzI1LDE0MyA3NjUsMTExIDgxNSw5MiA4NjYsNzMgOTI0LDYzIDk4OSw2MyAxMDgyLDYzIDExNjYsNzUgMTI0MSw5OSAxMzE2LDEyMyAxMzgzLDE1NSAxNDQyLDE5NiAxNTAxLDIzNiAxNTUzLDI4MSAxNTk4LDMzMiAxNjQ0LDM4MiAxNjg2LDQzNCAxNzIyLDQ4NyBMIDE4MzksMzQ4IEMgMTgwNCwyOTkgMTc2MCwyNDggMTcwOSwxOTYgMTY1OCwxNDMgMTU5Nyw5NCAxNTI4LDQ5IDE0NTgsNCAxMzc4LC0zMyAxMjg3LC02MSAxMTk2LC05MCAxMDk1LC0xMDQgOTgzLC0xMDQgODg2LC0xMDQgODAwLC04OSA3MjUsLTU5IDY1MCwtMjkgNTkxLDE5IDU0OSw4NiA1MDcsMTUzIDQ4NSwyNDIgNDg1LDM1MiA0ODUsNDE0IDQ4Niw0ODIgNDg3LDU1NiA0ODksNjMwIDQ5MSw3MDcgNDk0LDc4NiA0OTYsODY2IDQ5OCw5NDMgNTAwLDEwMTkgNTAxLDEwOTUgNTAyLDExNjUgNTA0LDEyMjkgNTA1LDEyOTMgNTA2LDEzNDYgNTA2LDEzODkgNTA2LDE0MjcgNTA0LDE0NjQgNTAyLDE0OTkgNDk5LDE1MzUgNDk1LDE1NjcgNDg5LDE1OTcgTCA2OTYsMTU5NSBaIiB1bmljb2RlPSLjgZciLz4KICAgPGdseXBoIHVuaWNvZGU9IiIvPgogIDwvZm9udD4KIDwvZGVmcz4KIDxkZWZzPgogIDxmb250IGlkPSJFbWJlZGRlZEZvbnRfMyI+CiAgIAogICAKICAgPGdseXBoIGQ9Ik0gODEzLDAgQyA2MzIsMCA0ODksNTQgMzgzLDE2MSAyNzYsMjY4IDIyMyw0MTEgMjIzLDU5MiAyMjMsNzczIDI3Niw5MTYgMzgzLDEwMjMgNDg5LDExMzAgNjMyLDExODQgODEzLDExODQgOTkyLDExODQgMTEzNiwxMTMwIDEyNDUsMTAyMyAxMzUzLDkxNiAxNDA3LDc3MiAxNDA3LDU5MiAxNDA3LDQxMiAxMzUzLDI2OCAxMjQ1LDE2MSAxMTM2LDU0IDk5MiwwIDgxMywwIFoiIHVuaWNvZGU9IuKXjyIvPgogICA8Z2x5cGggZD0iTSAtNCw0NTkgTCAxMTM1LDQ1OSAxMTM1LDYwNiAtNCw2MDYgLTQsNDU5IFoiIHVuaWNvZGU9IuKAkyIvPgogIDwvZm9udD4KIDwvZGVmcz4KIDxkZWZzPgogIDxmb250IGlkPSJFbWJlZGRlZEZvbnRfNCI+CiAgIAogICAKICAgPGdseXBoIGQ9Ik0gNTY4LC00MyBMIDU2OCwtOTIgQyA1NjgsLTEzMiA1NDEsLTE1MiA0ODgsLTE1MiA0NTQsLTE1MiA0MzcsLTEzNiA0MzcsLTEwNSBMIDQ0NSwzNDggQyA0NDUsNDkwIDQ0NCw1ODggNDQxLDY0MSAzMzAsNTg2IDIxMyw1MzkgOTAsNTAwIDg5LDUwMCA4OCw1MDAgODcsNTAwIDc4LDUwMCA3NCw1MDcgNzQsNTIwIDc0LDUyNSA3Niw1MjggODAsNTI5IDQxMSw2ODYgNjU4LDg2MSA4MjEsMTA1MyBMIDI5NCwxMDUzIEMgMjU1LDEwNTMgMjA3LDEwNDkgMTUwLDEwNDEgTCAxMzAsMTExOCBDIDE3OSwxMTA5IDIzMiwxMTA0IDI4OSwxMTA0IEwgOTQ0LDExMDQgOTQ0LDE0NzkgQyA3NDMsMTQ2MCA1MTcsMTQ1MCAyNjcsMTQ0OCAyNjAsMTQ0OCAyNTcsMTQ1NCAyNTcsMTQ2NyAyNTcsMTQ3NiAyNjAsMTQ4MSAyNjUsMTQ4MSA2ODAsMTUxMiAxMDIxLDE1NjMgMTI4OCwxNjMzIDEzODUsMTY1OSAxNDU0LDE2ODUgMTQ5NSwxNzEwIDE1OTYsMTYzNyAxNjQ3LDE1OTIgMTY0NywxNTc1IDE2NDcsMTU2MiAxNjM2LDE1NTUgMTYxNSwxNTU1IDE1OTUsMTU1NSAxNTY3LDE1NjEgMTUzMCwxNTczIDEzODQsMTUzNyAxMjI4LDE1MTAgMTA2MywxNDkxIEwgMTA2MywxMTA0IDEyNTUsMTEwNCBDIDEyOTksMTE2NyAxMzQ0LDEyNDYgMTM4OSwxMzQyIDE0MTIsMTM5NCAxNDI3LDE0MzcgMTQzNCwxNDcxIDE1MTEsMTQ0MSAxNTYxLDE0MjAgMTU4MywxNDA3IDE2MDAsMTM5NyAxNjA4LDEzODggMTYwOCwxMzc5IDE2MDgsMTM2MCAxNTgyLDEzNDcgMTUzMCwxMzQyIDE0NjUsMTI1MyAxMzkxLDExNzMgMTMwOSwxMTA0IEwgMTY2MSwxMTA0IEMgMTcyMCwxMTcyIDE3NTUsMTIwNiAxNzY1LDEyMDYgMTc3OCwxMjA2IDE4MTYsMTE4MCAxODc4LDExMjggMTkwOSwxMTAyIDE5MjUsMTA4MyAxOTI1LDEwNzEgMTkyNSwxMDU5IDE5MTYsMTA1MyAxODk4LDEwNTMgTCAxMTAwLDEwNTMgQyAxMjA5LDk1NyAxMzM0LDg3NiAxNDc2LDgwOSAxNjIxLDc0MiAxNzg0LDY5NiAxOTY0LDY3MiAxOTY5LDY3MSAxOTcyLDY2OCAxOTcyLDY2MyAxOTcyLDY1NiAxOTY5LDY1MiAxOTYyLDY0OSAxOTM2LDY0MiAxOTE4LDYzNCAxOTA3LDYyMyAxODk2LDYxMiAxODg2LDU5NCAxODc2LDU2OCAxODY3LDU0NSAxODU1LDUzMyAxODQxLDUzMyAxODI2LDUzMyAxNzk4LDU0MSAxNzU1LDU1NiAxNjQxLDU5NiAxNTM0LDY0OCAxNDMzLDcxMyAxMjk4LDc5NSAxMTc0LDkwNCAxMDU5LDEwMzkgMTA2MSw5ODMgMTA2NCw5MDYgMTA2OCw4MDggMTA3MCw3NjcgMTA3MSw3NDIgMTA3MSw3MzEgMTA3MSw2OTMgMTA0NCw2NzQgOTkxLDY3NCA5NTYsNjc0IDkzOCw2OTAgOTM4LDcyMyA5MzgsNzI2IDk0Miw4MjMgOTUwLDEwMTQgNzkxLDg2MCA2MzMsNzQxIDQ3NCw2NTggNTAxLDY0NCA1MzksNjIzIDU4Niw1OTYgTCAxNDQwLDU5NiBDIDE0NzMsNjI5IDE0OTQsNjQ1IDE1MDMsNjQ1IDE1MTMsNjQ1IDE1MzksNjI5IDE1ODEsNTk2IDE2MDYsNTc2IDE2MTgsNTYwIDE2MTgsNTQ5IDE2MTgsNTM1IDE2MDQsNTIwIDE1NzUsNTA0IEwgMTU3NSwzMjcgMTU4MywtODggQyAxNTgzLC0xMjYgMTU1NiwtMTQ1IDE1MDMsLTE0NSAxNDY4LC0xNDUgMTQ1MCwtMTMxIDE0NTAsLTEwMiBMIDE0NTAsLTQzIDU2OCwtNDMgWiBNIDU2OCw4IEwgOTQ0LDggOTQ0LDI2NCA1NjgsMjY0IDU2OCw4IFogTSAxNDUwLDggTCAxNDUwLDI2NCAxMDY1LDI2NCAxMDY1LDggMTQ1MCw4IFogTSAxNDUwLDMxNSBMIDE0NTAsNTQ1IDEwNjUsNTQ1IDEwNjUsMzE1IDE0NTAsMzE1IFogTSA5NDQsNTQ1IEwgNTY4LDU0NSA1NjgsMzE1IDk0NCwzMTUgOTQ0LDU0NSBaIE0gNDc5LDE0MDEgQyA0NzYsMTQwMyA0NzUsMTQwNSA0NzUsMTQwNyA0NzUsMTQxNCA0ODAsMTQxNyA0ODksMTQxNyA0OTAsMTQxNyA0OTIsMTQxNyA0OTQsMTQxNiA1NjcsMTM5MSA2MjQsMTM1OCA2NjUsMTMxNyA3MDAsMTI4MyA3MTcsMTI1MCA3MTcsMTIxNyA3MTcsMTE2MSA2OTQsMTEzMyA2NDksMTEzMyA2MTksMTEzMyA1OTksMTE1NyA1OTAsMTIwNCA1NzMsMTI3OCA1MzYsMTM0NCA0NzksMTQwMSBaIiB1bmljb2RlPSLnlaoiLz4KICAgPGdseXBoIGQ9Ik0gMTYzNCw2ODIgTCAxNzQwLDY4MiBDIDE3OTQsNzQ1IDE4MjYsNzc2IDE4MzUsNzc2IDE4NDYsNzc2IDE4ODAsNzUxIDE5MzUsNzAyIDE5NjEsNjc5IDE5NzQsNjYyIDE5NzQsNjUxIDE5NzQsNjM4IDE5NjUsNjMxIDE5NDcsNjMxIEwgMTYzNCw2MzEgMTYzNCw0NzkgMTY0MiwxOSBDIDE2NDIsLTM2IDE2MjIsLTc5IDE1ODEsLTEwOCAxNTQ2LC0xMzMgMTUwNywtMTQ1IDE0NjQsLTE0NSAxNDQ2LC0xNDUgMTQzNiwtMTM3IDE0MzUsLTEyMCAxNDMxLC04OSAxNDEyLC02NSAxMzc3LC00OCAxMzQ2LC0zMyAxMjkxLC0xNyAxMjEwLDAgMTIwNSwxIDEyMDIsNiAxMjAyLDE0IDEyMDIsMjUgMTIwNSwzMCAxMjEyLDI5IDEzMTksMTggMTQwNiwxMyAxNDc0LDEzIDE0OTksMTMgMTUxMSwyNiAxNTExLDUxIEwgMTUxMSw2MzEgOTAxLDYzMSBDIDg2OSw2MzEgODI1LDYyNyA3NzAsNjE5IEwgNzUxLDY5NiBDIDgwNSw2ODcgODU0LDY4MiA4OTksNjgyIEwgMTUxMSw2ODIgQyAxNTExLDc5OCAxNTA4LDg3OCAxNTAxLDkyMiAxNTg2LDkxMyAxNjQyLDkwNSAxNjY3LDg5OCAxNjg4LDg5MSAxNjk5LDg4MiAxNjk5LDg3MSAxNjk5LDg1NiAxNjc3LDgzOSAxNjM0LDgyMiBMIDE2MzQsNjgyIFogTSA1ODQsMzEzIEwgMzAxLDMxMyAzMDEsMTcyIEMgMzAxLDEzNyAyNzYsMTIwIDIyNywxMjAgMjA1LDEyMCAxOTEsMTIzIDE4NCwxMzAgMTc3LDEzNiAxNzQsMTQ3IDE3NCwxNjMgTCAxODIsOTUwIEMgMTgyLDEyNzMgMTc4LDE0ODQgMTcwLDE1ODMgMjMzLDE1NTUgMjgyLDE1MzAgMzE3LDE1MDkgTCA1NjYsMTUwOSBDIDYwNywxNTUzIDYzMSwxNTc1IDYzOSwxNTc1IDY0OSwxNTc1IDY3NiwxNTU3IDcyMSwxNTIyIDc0MywxNTA1IDc1NCwxNDg5IDc1NCwxNDc2IDc1NCwxNDYzIDczNywxNDQ1IDcwMywxNDIzIEwgNzAzLDEwMzYgNzEzLDIzNyBDIDcxMywyMDAgNjg3LDE4MiA2MzUsMTgyIDYwMSwxODIgNTg0LDE5NiA1ODQsMjI1IEwgNTg0LDMxMyBaIE0gNTg0LDM2NCBMIDU4NCw5MDEgMzAxLDkwMSAzMDEsMzY0IDU4NCwzNjQgWiBNIDU4NCw5NTIgTCA1ODQsMTQ1OCAzMDEsMTQ1OCAzMDEsOTUyIDU4NCw5NTIgWiBNIDEyMjksMTAyMCBMIDEyMjksMTMyNyA5NzksMTMyNyBDIDk0MCwxMzI3IDg5OSwxMzIzIDg1NiwxMzE1IEwgODM4LDEzOTIgQyA4ODksMTM4MyA5MzYsMTM3OCA5NzcsMTM3OCBMIDEyMjksMTM3OCAxMjI5LDE0NjAgQyAxMjI5LDE1NjggMTIyNiwxNjQ2IDEyMjEsMTY5NSAxMzEwLDE2ODUgMTM2OCwxNjc2IDEzOTUsMTY2NyAxNDE0LDE2NjAgMTQyNCwxNjUxIDE0MjQsMTY0MCAxNDI0LDE2MjIgMTQwMSwxNjA0IDEzNTQsMTU4NyBMIDEzNTQsMTM3OCAxNjM5LDEzNzggQyAxNjkwLDE0MzkgMTcyMiwxNDcwIDE3MzUsMTQ3MCAxNzQ2LDE0NzAgMTc4MiwxNDQ1IDE4NDEsMTM5NiAxODY4LDEzNzQgMTg4MiwxMzU4IDE4ODIsMTM0NyAxODgyLDEzMzQgMTg3MywxMzI3IDE4NTYsMTMyNyBMIDEzNTQsMTMyNyAxMzU0LDEwMjAgMTcyMSwxMDIwIEMgMTc3NiwxMDg1IDE4MDgsMTExOCAxODE5LDExMTggMTgyOCwxMTE4IDE4NjQsMTA5MiAxOTI3LDEwNDAgMTk1NCwxMDE2IDE5NjgsOTk4IDE5NjgsOTg3IDE5NjgsOTc1IDE5NTksOTY5IDE5NDIsOTY5IEwgODk5LDk2OSBDIDg3MCw5NjkgODI5LDk2NSA3NzYsOTU3IEwgNzU2LDEwMzQgQyA4MDEsMTAyNSA4NDgsMTAyMCA4OTcsMTAyMCBMIDEyMjksMTAyMCBaIE0gOTU0LDQ5OCBDIDk1Myw1MDAgOTUyLDUwMiA5NTIsNTA1IDk1Miw1MTQgOTU2LDUxOCA5NjUsNTE4IDk2Nyw1MTggOTY4LDUxOCA5NjksNTE3IDEwNjQsNDgzIDExMzQsNDQwIDExODEsMzg5IDEyMTcsMzQ4IDEyMzUsMzA3IDEyMzUsMjY0IDEyMzUsMjM2IDEyMjgsMjE0IDEyMTQsMTk3IDEyMDIsMTgyIDExODYsMTc0IDExNjcsMTc0IDExMzQsMTc0IDExMTEsMTk5IDEwOTgsMjUwIDEwNzMsMzQ2IDEwMjUsNDI5IDk1NCw0OTggWiIgdW5pY29kZT0i5pmCIi8+CiAgIDxnbHlwaCBkPSJNIDE0NzMsNjYgTCA1NzMsNjYgNTczLC00MSBDIDU3MywtNzkgNTQ0LC05OCA0ODcsLTk4IDQ0OSwtOTggNDMwLC04MiA0MzAsLTUxIDQzOCwyNjAgNDQyLDU2MCA0NDIsODUwIDQ0MiwxMjM4IDQzOCwxNDg3IDQzMCwxNTk4IDQ4NywxNTc2IDU0MiwxNTQ5IDU5NiwxNTE2IEwgMTQ1MiwxNTE2IEMgMTQ5OSwxNTY3IDE1MjcsMTU5MiAxNTM0LDE1OTIgMTU0NCwxNTkyIDE1NzUsMTU3MCAxNjI4LDE1MjYgMTY1MywxNTAzIDE2NjUsMTQ4OCAxNjY1LDE0NzkgMTY2NSwxNDY3IDE2NDUsMTQ0OCAxNjA2LDE0MjIgTCAxNjA2LDkzMCBDIDE2MDYsNTg4IDE2MTAsMjcwIDE2MTgsLTI0IDE2MTgsLTYyIDE1ODksLTgxIDE1MzAsLTgxIDE0OTIsLTgxIDE0NzMsLTY1IDE0NzMsLTM0IEwgMTQ3Myw2NiBaIE0gMTQ3MywxMTcgTCAxNDczLDc4NyA1NzMsNzg3IDU3MywxMTcgMTQ3MywxMTcgWiBNIDE0NzMsODM4IEwgMTQ3MywxNDY1IDU3MywxNDY1IDU3Myw4MzggMTQ3Myw4MzggWiIgdW5pY29kZT0i5pelIi8+CiAgIDxnbHlwaCBkPSJNIDE0MTcsMTEwOCBMIDU3NywxMTA4IDU3NywxMDY5IEMgNTc3LDEwMzEgNTUxLDEwMTIgNDk5LDEwMTIgNDY0LDEwMTIgNDQ2LDEwMjYgNDQ2LDEwNTUgTCA0NTIsMTM0NiBDIDQ1MiwxNDc3IDQ0OCwxNTgzIDQ0MCwxNjY1IDUwNCwxNjM5IDU1NywxNjE0IDU5OCwxNTg5IEwgMTM5OSwxNTg5IEMgMTQ0NSwxNjM3IDE0NzIsMTY2MSAxNDgwLDE2NjEgMTQ5MSwxNjYxIDE1MTksMTY0MSAxNTY0LDE2MDIgMTU4NywxNTgwIDE1OTksMTU2NSAxNTk5LDE1NTYgMTU5OSwxNTQxIDE1ODEsMTUyMiAxNTQ0LDE0OTkgTCAxNTQ0LDEzODIgMTU1MCwxMDY3IEMgMTU1MCwxMDMwIDE1MjMsMTAxMiAxNDcwLDEwMTIgMTQzNSwxMDEyIDE0MTcsMTAyNyAxNDE3LDEwNTcgTCAxNDE3LDExMDggWiBNIDE0MTcsMTE1OSBMIDE0MTcsMTUzOCA1NzcsMTUzOCA1NzcsMTE1OSAxNDE3LDExNTkgWiBNIDgwOCw4MzYgQyA3NzcsNzU2IDczOCw2NjYgNjkwLDU2NyBMIDE0MDAsNTY3IEMgMTQ0NSw2MTQgMTQ3Miw2MzcgMTQ4MCw2MzcgMTQ4OSw2MzcgMTUxNSw2MTcgMTU2MCw1NzcgMTU4NSw1NTQgMTU5Nyw1MzcgMTU5Nyw1MjYgMTU5Nyw1MTcgMTU3Nyw1MDEgMTUzNiw0NzcgMTUwOCwyNjkgMTQ3MCwxMTggMTQyMSwyMyAxMzg5LC0zOSAxMzUzLC04MSAxMzEyLC0xMDQgMTI2OSwtMTI5IDEyMjIsLTE0MSAxMTY5LC0xNDEgMTE1NiwtMTQxIDExNDcsLTEzOSAxMTQ0LC0xMzQgMTE0MSwtMTMwIDExMzksLTEyMSAxMTM4LC0xMDYgMTEzNCwtODIgMTExNiwtNjEgMTA4NSwtNDIgMTA1MCwtMjEgOTkxLDEgOTA4LDI2IDkwMywyOCA5MDEsMzMgOTAxLDQwIDkwMSw1MyA5MDUsNTggOTEzLDU3IDEwNjEsMjkgMTE2MSwxNSAxMjE0LDE1IDEyNTcsMTUgMTI5NCw0OCAxMzI0LDExMyAxMzU5LDE4OCAxMzg5LDMyMiAxNDEzLDUxNiBMIDY2NSw1MTYgQyA2MzEsNDUyIDYwMSw0MDAgNTc1LDM1OSA1NjIsMzM3IDU0NSwzMjYgNTIyLDMyNiA0OTgsMzI2IDQ3NywzMzAgNDU5LDMzOCA0NDIsMzQ2IDQzNCwzNTUgNDM0LDM2NSA0MzQsMzc3IDQ0MywzOTUgNDYxLDQyMCA1MzgsNTM1IDYwOCw2NzQgNjczLDgzNiBMIDI3OCw4MzYgQyAyMzQsODM2IDE4Myw4MzIgMTI2LDgyNCBMIDEwNiw4OTkgQyAxNjAsODkxIDIxNyw4ODcgMjc2LDg4NyBMIDE2NjAsODg3IEMgMTcyMyw5NjAgMTc2MCw5OTYgMTc3Myw5OTYgMTc4NSw5OTYgMTgyMyw5NjkgMTg4OCw5MTQgMTkyMiw4ODYgMTkzOSw4NjYgMTkzOSw4NTQgMTkzOSw4NDIgMTkzMCw4MzYgMTkxMiw4MzYgTCA4MDgsODM2IFoiIHVuaWNvZGU9IuWPtyIvPgogICA8Z2x5cGggZD0iTSA1ODEsMTMzOCBMIDI2MSwxMzM4IEMgMjEwLDEzMzggMTYzLDEzMzQgMTIwLDEzMjYgTCA5OSwxNDAxIEMgMTUwLDEzOTMgMjAzLDEzODkgMjU5LDEzODkgTCA2MDEsMTM4OSA2MDEsMTU0MyBDIDYwMSwxNTgzIDU5OCwxNjM1IDU5MSwxNjk4IDY4MCwxNjg4IDczOCwxNjc5IDc2NSwxNjcwIDc4NCwxNjYzIDc5NCwxNjU0IDc5NCwxNjQzIDc5NCwxNjI1IDc3MSwxNjA3IDcyNiwxNTkwIEwgNzI2LDEzODkgMTAxMywxMzg5IEMgMTA3MywxNDYxIDExMDgsMTQ5NyAxMTE3LDE0OTcgMTEyNywxNDk3IDExNjQsMTQ3MCAxMjI4LDE0MTUgMTI2MSwxMzg3IDEyNzcsMTM2NyAxMjc3LDEzNTYgMTI3NywxMzQ0IDEyNjgsMTMzOCAxMjUwLDEzMzggTCA1ODcsMTMzOCBDIDY5NSwxMjk4IDc0OSwxMjY4IDc0OSwxMjQ4IDc0OSwxMjMwIDcyNCwxMjE4IDY3MywxMjEzIDYwNiwxMTE4IDU0MSwxMDQzIDQ4MCw5ODggNTM2LDk0MSA1NjQsODkyIDU2NCw4NDMgNTY0LDc5MSA1NDQsNzY1IDUwNSw3NjUgNDc2LDc2NSA0NTMsNzg5IDQzNSw4MzcgMzk2LDkzOSAzMjgsMTAyMiAyMzMsMTA4NyAyMzEsMTA4OCAyMzAsMTA5MCAyMzAsMTA5MiAyMzAsMTEwMyAyMzUsMTEwNyAyNDUsMTEwNSAzMjQsMTA4NCAzOTIsMTA1MyA0NDcsMTAxNCA0OTAsMTA4OSA1MjEsMTE1MyA1NDAsMTIwNSA1NjEsMTI1OCA1NzUsMTMwMyA1ODEsMTMzOCBaIE0gODQyLDMyNCBDIDk1MSwyNzEgMTAzNSwyMTIgMTA5NSwxNDcgMTE0Niw5MiAxMTcxLDQwIDExNzEsLTggMTE3MSwtMzYgMTE2NCwtNTggMTE1MCwtNzQgMTEzNywtODkgMTEyMSwtOTYgMTEwMSwtOTYgMTA4NCwtOTYgMTA3MCwtODkgMTA1OSwtNzYgMTA0OSwtNjMgMTAzOCwtNDAgMTAyNiwtNiA5ODgsMTAxIDkxNywyMDIgODEzLDI5NSA2MTQsMTA4IDM3MywtMjYgOTIsLTEwNyA5MSwtMTA3IDkxLC0xMDcgOTAsLTEwNyA4MCwtMTA3IDc1LC0xMDAgNzUsLTg2IDc1LC04MiA3NywtNzkgODAsLTc4IDI1OSwtNyA0MjcsOTUgNTg0LDIyOCA3MTUsMzM5IDgyNiw0NTkgOTE2LDU5MCA5NjAsNjU2IDk5NSw3MTkgMTAyMiw3NzggMTEyNSw3MjIgMTE3Nyw2ODQgMTE3Nyw2NjQgMTE3Nyw2NDYgMTE1Niw2MzcgMTExNSw2MzcgMTEwOCw2MzcgMTEwMyw2MzcgMTEwMCw2MzcgMTAxOCw1MTggOTMyLDQxNCA4NDIsMzI0IFogTSAxNDY0LDE0MTYgTCAxNDY0LDEwNzQgMTQ3MiwzNzUgQyAxNDcyLDMzNyAxNDQ1LDMxOCAxMzkwLDMxOCAxMzUzLDMxOCAxMzM1LDMzNCAxMzM1LDM2NyBMIDEzNDUsOTg1IEMgMTM0NSwxMjgyIDEzNDEsMTQ2MCAxMzMzLDE1MjAgMTQyMiwxNTEyIDE0NzksMTUwNCAxNTA0LDE0OTYgMTUyMywxNDg5IDE1MzIsMTQ4MCAxNTMyLDE0NjcgMTUzMiwxNDUyIDE1MDksMTQzNSAxNDY0LDE0MTYgWiBNIDE4MjgsMTU2MyBMIDE4MjgsODcwIDE4MzQsMjcgQyAxODM0LC0zNCAxODEwLC03OCAxNzYyLC0xMDQgMTcyOSwtMTIzIDE2OTYsLTEzMyAxNjY0LC0xMzMgMTY0OSwtMTMzIDE2MzksLTEzMSAxNjM0LC0xMjggMTYzMCwtMTI1IDE2MjcsLTExNyAxNjI1LC0xMDYgMTYyMCwtNzYgMTYwMiwtNTIgMTU3MSwtMzUgMTUzOCwtMTcgMTQ4NCwwIDE0MDgsMTYgMTQwMywxNyAxNDAwLDIyIDE0MDAsMzEgMTQwMCw0MyAxNDAzLDQ4IDE0MTAsNDcgMTUxOCwzNSAxNjA1LDI5IDE2NzAsMjkgMTY5MywyOSAxNzA1LDQwIDE3MDUsNjEgTCAxNzA1LDEyMzkgQyAxNzA1LDE0NzUgMTcwMiwxNjIwIDE2OTUsMTY3MyAxNzg2LDE2NjIgMTg0MiwxNjUyIDE4NjUsMTY0NSAxODgyLDE2MzkgMTg5MSwxNjMwIDE4OTEsMTYxOCAxODkxLDE2MDAgMTg3MCwxNTgyIDE4MjgsMTU2MyBaIE0gMTM3LDM0NCBMIDEzNSwzNDQgQyAxMjUsMzQ0IDEyMCwzNTAgMTIwLDM2MiAxMjAsMzY1IDEyMSwzNjggMTI0LDM2OSAyNzcsNDQ4IDQxNyw1NDMgNTQzLDY1NCA2NTYsNzU0IDc0OCw4NTggODE3LDk2NSA4NjQsMTAzOCA4OTgsMTEwMSA5MTgsMTE1NSAxMDI5LDExMDMgMTA4NSwxMDY5IDEwODUsMTA1MyAxMDg1LDEwMzIgMTA1OSwxMDIyIDEwMDYsMTAyMiA4ODEsODM5IDc0NCw2OTMgNTk1LDU4MyA0NjgsNDkwIDMxNSw0MTAgMTM3LDM0NCBaIiB1bmljb2RlPSLliLsiLz4KICAgPGdseXBoIGQ9Ik0gNDY2LDEwODUgQyA1MjAsMTA3NCA1NTQsMTA2NiA1NjgsMTA1OSA1ODEsMTA1MyA1ODcsMTA0NSA1ODcsMTAzNCA1ODcsMTAxOSA1NjUsMTAwMiA1MjEsOTg1IEwgNTIxLDYzNSA1MjMsLTgyIEMgNTIzLC0xMjQgNDk3LC0xNDUgNDQ1LC0xNDUgNDIyLC0xNDUgNDA2LC0xNDAgMzk4LC0xMzEgMzkxLC0xMjMgMzg4LC0xMDkgMzg4LC05MCAzODgsLTgzIDM4OCwtNTYgMzg5LC05IDM5MiwxNjIgMzk1LDM3NSAzOTgsNjI5IDQwMSw3ODcgNDAyLDkwNiA0MDIsOTg1IDMxOCw4NjQgMjI2LDc1NyAxMjUsNjY0IDEyNCw2NjMgMTIyLDY2MiAxMjEsNjYyIDExNiw2NjIgMTExLDY2NSAxMDYsNjcwIDEwMSw2NzUgOTksNjc5IDk5LDY4MiA5OSw2ODQgMTAwLDY4NSAxMDEsNjg2IDE4Nyw3ODUgMjY5LDkxMiAzNDgsMTA2NyA0MTMsMTE5NSA0NjQsMTMyMSA1MDMsMTQ0NiA1MzQsMTU0NSA1NTUsMTYyOCA1NjYsMTY5NiA3MDEsMTY2MyA3NjksMTYzNSA3NjksMTYxMiA3NjksMTU5MSA3NDIsMTU3NiA2ODcsMTU2OSA2MjcsMTM5MSA1NTMsMTIzMCA0NjYsMTA4NSBaIE0gMTQyMCwxMTUzIEwgMTQyMCwxMjE0IEMgMTQyMCwxNDU5IDE0MTcsMTYxNCAxNDEwLDE2NzkgMTUwMywxNjY5IDE1NjMsMTY2MCAxNTg5LDE2NTIgMTYxMCwxNjQ1IDE2MjEsMTYzNiAxNjIxLDE2MjQgMTYyMSwxNjA2IDE1OTcsMTU4OCAxNTQ5LDE1NjkgTCAxNTQ5LDExNTMgMTY4OCwxMTUzIEMgMTc0OCwxMjI0IDE3ODQsMTI1OSAxNzk1LDEyNTkgMTgwNiwxMjU5IDE4NDUsMTIzMiAxOTEwLDExNzkgMTk0MywxMTUyIDE5NTksMTEzMyAxOTU5LDExMjAgMTk1OSwxMTA4IDE5NDksMTEwMiAxOTMwLDExMDIgTCAxNTQ5LDExMDIgMTU0OSw4MjMgMTU1OSwyOSBDIDE1NTksLTMyIDE1MzQsLTc3IDE0ODMsLTEwNiAxNDQ5LC0xMjcgMTQxMSwtMTM3IDEzNjksLTEzNyAxMzU0LC0xMzcgMTM0NSwtMTI2IDEzNDAsLTEwNCAxMzM1LC03MyAxMzE3LC01MSAxMjg4LC0zNiAxMjU3LC0yMCAxMjAwLC00IDExMTUsMTIgMTExMCwxMyAxMTA3LDE4IDExMDcsMjYgMTEwNywzNiAxMTEwLDQxIDExMTcsNDEgMTIyOCwzMyAxMzE3LDI5IDEzODUsMjkgMTQwOCwyOSAxNDIwLDQwIDE0MjAsNjMgTCAxNDIwLDExMDIgNzgzLDExMDIgQyA3MzUsMTEwMiA2ODgsMTA5OSA2NDIsMTA5MiBMIDYyMywxMTY1IEMgNjc0LDExNTcgNzI3LDExNTMgNzgzLDExNTMgTCAxNDIwLDExNTMgWiBNIDgzMiw4NjggQyA4MzEsODcwIDgzMCw4NzIgODMwLDg3NCA4MzAsODg0IDgzNSw4ODkgODQ0LDg4OSA4NDYsODg5IDg0OCw4ODkgODQ5LDg4OCA5NDksODM1IDEwMjYsNzcxIDEwODEsNjk1IDExMjQsNjM0IDExNDYsNTc1IDExNDYsNTE4IDExNDYsNDg5IDExMzgsNDY1IDExMjMsNDQ4IDExMDksNDMyIDEwOTEsNDI0IDEwNzAsNDI0IDEwMzYsNDI0IDEwMTMsNDUyIDEwMDIsNTA4IDk3MSw2NTggOTE1LDc3OCA4MzIsODY4IFoiIHVuaWNvZGU9IuS7mCIvPgogICA8Z2x5cGggZD0iTSAxNzk4LDc1NCBDIDE3OTgsNzIzIDE3NzUsNzA3IDE3MjgsNzA3IEwgMTQ0Niw3MTUgQyAxMjAxLDcxNSA5MTksNzAyIDYwMCw2NzYgNTQ1LDY3MSA1MDgsNjYyIDQ5MCw2NDkgNDc1LDYzOCA0NTMsNjMzIDQyNCw2MzMgMzg2LDYzMyAzNDQsNjY3IDI5Nyw3MzYgMjY0LDc4MyAyNDgsODIyIDI0OCw4NTIgMjQ4LDg3NCAyNTMsODg1IDI2NCw4ODUgMjc1LDg4NSAyODgsODc2IDMwMSw4NTggMzQzLDgwNiAzODgsNzgwIDQzNiw3ODAgNTA1LDc4MCA1OTksNzg0IDcxOSw3OTIgMTAyMiw4MTEgMTI2Nyw4MjIgMTQ1NCw4MjUgMTUwMSw4MjUgMTUzNiw4MzIgMTU2MCw4NDYgMTU3OSw4NTcgMTYwMCw4NjIgMTYyMiw4NjIgMTY0MSw4NjIgMTY2Nyw4NTUgMTcwMCw4NDIgMTc2NSw4MTMgMTc5OCw3ODQgMTc5OCw3NTQgWiIgdW5pY29kZT0i44O8Ii8+CiAgIDxnbHlwaCBkPSJNIDYwMiwxMjQ1IEMgNjM0LDEyNDUgNjk2LDEyNDkgNzg4LDEyNTcgODA1LDEyNTkgMTAxNCwxMjgwIDE0MTUsMTMxOSAxNDQyLDEzMjEgMTQ2MywxMzI4IDE0ODAsMTM0MSAxNDk5LDEzNTYgMTUxNSwxMzY0IDE1MjcsMTM2NCAxNTQ2LDEzNjQgMTU4MCwxMzQ0IDE2MjgsMTMwMyAxNjcwLDEyNjggMTY5MSwxMjM3IDE2OTEsMTIxMiAxNjkxLDExOTQgMTY3NywxMTc5IDE2NDgsMTE2NyAxNjIyLDExNTYgMTYwMywxMTM3IDE1OTEsMTExMiAxNDU5LDgzOSAxMzEwLDYxOCAxMTQzLDQ1MSA5ODYsMjkyIDc5OCwxNjUgNTgxLDY5IDU2MCw2MCA1NDIsNTUgNTI4LDU1IDUxMCw1NSA1MDEsNjUgNTAxLDg0IDUwMSw5NSA1MTEsMTA2IDUzMiwxMTYgOTQ1LDMyNyAxMjYwLDY4OCAxNDc4LDExOTggMTQ4MiwxMjA3IDE0ODQsMTIxNSAxNDg0LDEyMjAgMTQ4NCwxMjI5IDE0NzcsMTIzMyAxNDY0LDEyMzMgMTQ2MCwxMjMzIDE0MzMsMTIzMSAxMzg0LDEyMjcgMTEzNiwxMjAyIDkyMCwxMTc0IDczNSwxMTQ1IDY4NiwxMTM4IDY1MywxMTI5IDYzNiwxMTIwIDYxNSwxMTA5IDU5NiwxMTA0IDU4MSwxMTA0IDUzOCwxMTA0IDQ5MiwxMTM4IDQ0NCwxMjA3IDQxMywxMjUwIDM5NywxMjg4IDM5NywxMzE5IDM5NywxMzQxIDQwNCwxMzUyIDQxNywxMzUyIDQyNSwxMzUyIDQzNSwxMzQ1IDQ0NiwxMzMxIDQ3NSwxMjk3IDUwMSwxMjc0IDUyNCwxMjYyIDU0NiwxMjUxIDU3MiwxMjQ1IDYwMiwxMjQ1IFoiIHVuaWNvZGU9IuODlSIvPgogICA8Z2x5cGggZD0iTSA4NTQsMTA1MSBDIDg0NywxMDYxIDg0NCwxMDcwIDg0NCwxMDc5IDg0NCwxMDkwIDg1MywxMDk2IDg3MSwxMDk2IDg3NywxMDk2IDg4NiwxMDkzIDg5NywxMDg2IDk0MiwxMDU3IDk4NSwxMDE2IDEwMjUsOTYzIDEwNTYsOTE4IDEwNzIsODc0IDEwNzIsODMxIDEwNzIsNzcwIDEwNTAsNzM5IDEwMDYsNzM5IDk4Niw3MzkgOTcyLDc0NSA5NjMsNzU3IDk1Miw3NzAgOTQ1LDc5MyA5NDAsODI3IDkzNiw4NjQgOTI3LDkwMSA5MTIsOTQwIDkwMSw5NzIgODgxLDEwMDkgODU0LDEwNTEgWiBNIDE0MTQsOTYwIEMgMTQxNCw5NzcgMTQwMCw5OTIgMTM3MywxMDA3IDEzNDgsMTAyMCAxMzI1LDEwMjggMTMwMywxMDMyIDEyOTYsMTAzNCAxMjkzLDEwMzkgMTI5MywxMDQ2IDEyOTMsMTA1NCAxMjk4LDEwNjAgMTMwNywxMDY1IDEzMTksMTA3MiAxMzM5LDEwNzUgMTM2NywxMDc1IDE0MTgsMTA3NSAxNDcxLDEwNTcgMTUyNSwxMDIyIDE1NjcsOTkzIDE1ODgsOTY1IDE1ODgsOTQwIDE1ODgsOTI1IDE1NzksOTEzIDE1NjEsOTAzIDE1NDAsODkyIDE1MjUsODc2IDE1MTQsODU2IDE0MTUsNjYyIDEzMDQsNDk4IDExODAsMzY1IDEwMzIsMjA0IDg2Niw4MCA2ODMsLTYgNjY4LC0xMyA2NTUsLTE2IDY0NCwtMTYgNjI3LC0xNiA2MTksLTcgNjE5LDExIDYxOSwyMiA2MjUsMzAgNjM3LDM3IDgyOSwxNTYgOTkwLDI5NSAxMTE5LDQ1MyAxMjMwLDU4OCAxMzE4LDcyNyAxMzg1LDg3MiAxNDA0LDkxMyAxNDE0LDk0MiAxNDE0LDk2MCBaIE0gNTA2LDk1OSBDIDQ5OCw5NjkgNDk0LDk3NyA0OTQsOTgzIDQ5NCw5ODggNDk3LDk5MyA1MDMsOTk4IDUwOSwxMDAyIDUxNCwxMDA0IDUxOSwxMDA0IDUyMywxMDA0IDUzMiwxMDAxIDU0NSw5OTQgNTg5LDk2OSA2MjksOTM1IDY2Niw4OTMgNzEwLDg0NCA3MzIsNzk2IDczMiw3NTAgNzMyLDcyNSA3MjQsNzA2IDcwOSw2OTEgNjk3LDY4MCA2ODMsNjc0IDY2Niw2NzQgNjMzLDY3NCA2MTEsNzAxIDYwMCw3NTYgNTkzLDc5MyA1ODEsODMwIDU2NCw4NjUgNTQ3LDg5OCA1MjcsOTMwIDUwNiw5NTkgWiIgdW5pY29kZT0i44ODIi8+CiAgIDxnbHlwaCBkPSJNIDEwMTQsMTI2MiBDIDExMDksMTI2NSAxMjIzLDEyODAgMTM1NiwxMzA1IDEzOTAsMTMxMCAxNDE0LDEzMTkgMTQyNywxMzMxIDE0NDQsMTM0NSAxNDYwLDEzNTIgMTQ3NywxMzUyIDE0OTcsMTM1MiAxNTI2LDEzMzYgMTU2MywxMzAzIDE2MDEsMTI3MCAxNjIwLDEyNDIgMTYyMCwxMjIxIDE2MjAsMTIwOSAxNjA2LDExOTQgMTU3NywxMTc2IDE1NjAsMTE2NyAxNTQyLDExNDggMTUyNCwxMTIwIDE0MTksOTQ3IDEzMzcsODE4IDEyNzYsNzMxIDE0MDksNjQwIDE0NzYsNTY1IDE0NzYsNTA2IDE0NzYsNDU5IDE0NTgsNDM2IDE0MjEsNDM2IDEzOTQsNDM2IDEzNjMsNDU3IDEzMjksNTAwIDEyOTUsNTQ2IDEyNTIsNTkyIDEyMDAsNjM3IDExMDAsNTA1IDk2NiwzNzcgNzk5LDI1NCA2NjAsMTUyIDUxNyw2NyAzNzAsLTIgMzU5LC03IDM0OSwtMTAgMzQwLC0xMCAzMTksLTEwIDMwOSwtMiAzMDksMTUgMzA5LDI4IDMxNiwzOCAzMjksNDUgNjYyLDIzOCA5MjUsNDYwIDExMTgsNzExIDEwNDgsNzY0IDk2Miw4MTMgODYwLDg1NiA4NDYsODYxIDgzOSw4NjggODM5LDg3NiA4MzksODkzIDg0Nyw5MDEgODYyLDkwMSA4NjcsOTAxIDg3OSw5MDAgODk4LDg5NyA5NzAsODg0IDEwNjQsODQ4IDExODEsNzkxIDEyNjYsOTA2IDEzNDcsMTA0MCAxNDI0LDExOTQgMTQyOCwxMjAxIDE0MzAsMTIwOCAxNDMwLDEyMTcgMTQzMCwxMjI1IDE0MjUsMTIyOSAxNDE0LDEyMjkgMTQwNSwxMjI5IDEzMzUsMTIxOCAxMjA0LDExOTYgMTEzNiwxMTg0IDEwOTYsMTE3OCAxMDgzLDExNzggMTA0OSwxMTc4IDEwMTQsMTE4NSA5NzksMTIwMCA4MDUsOTYxIDYyNyw3NzQgNDQ2LDY0MSA0MzYsNjM0IDQyNiw2MzEgNDE2LDYzMSAzOTgsNjMxIDM4OSw2MzkgMzg5LDY1NCAzODksNjY2IDM5NCw2NzYgNDAzLDY4NCA2MjYsODkzIDgwNywxMTIzIDk0NywxMzcyIDk2NCwxNDAzIDk3MiwxNDI3IDk3MiwxNDQ0IDk3MiwxNDc1IDk0MywxNTAxIDg4NiwxNTIyIDg3MSwxNTI3IDg2NCwxNTM0IDg2NCwxNTQyIDg2NCwxNTU5IDg4NiwxNTY3IDkzMCwxNTY3IDk2OSwxNTY3IDEwMDUsMTU1NCAxMDQwLDE1MjggMTEwMCwxNDg1IDExMzAsMTQ0NyAxMTMwLDE0MTUgMTEzMCwxMzk2IDExMjIsMTM4MSAxMTA2LDEzNjggMTA4NSwxMzUzIDEwNzEsMTM0MCAxMDYzLDEzMjkgMTA1NCwxMzE4IDEwMzcsMTI5NSAxMDE0LDEyNjIgWiIgdW5pY29kZT0i44K/Ii8+CiAgIDxnbHlwaCBkPSJNIDExOTgsNjMxIEwgMTY0LDEwNTcgMTY0LDExNTUgMTI5MCw2ODAgMTI5MCw1ODQgMTY0LDEwNSAxNjQsMjAzIDExOTgsNjMxIFoiIHVuaWNvZGU9IiZndDsiLz4KICAgPGdseXBoIGQ9Ik0gMjU0LDYzMSBMIDEyOTAsMjAzIDEyOTAsMTA1IDE2NCw1ODQgMTY0LDY4MCAxMjkwLDExNTUgMTI5MCwxMDU3IDI1NCw2MzEgWiIgdW5pY29kZT0iJmx0OyIvPgogICA8Z2x5cGggZD0iTSAxMjcsLTE3NCBMIDUxLC0xNDMgODM1LDE3MzEgOTExLDE3MDAgMTI3LC0xNzQgWiIgdW5pY29kZT0iLyIvPgogIDwvZm9udD4KIDwvZGVmcz4KIDxkZWZzIGNsYXNzPSJUZXh0U2hhcGVJbmRleCI+CiAgPGcvPgogPC9kZWZzPgogPGRlZnMgY2xhc3M9IkVtYmVkZGVkQnVsbGV0Q2hhcnMiPgogIDxnIHRyYW5zZm9ybT0ic2NhbGUoMC4wMDA0ODgyODEyNSwtMC4wMDA0ODgyODEyNSkiIGlkPSJidWxsZXQtY2hhci10ZW1wbGF0ZS01NzM1NiI+CiAgIDxwYXRoIGQ9Ik0gNTgwLDExNDEgTCAxMTYzLDU3MSA1ODAsMCAtNCw1NzEgNTgwLDExNDEgWiIvPgogIDwvZz4KICA8ZyB0cmFuc2Zvcm09InNjYWxlKDAuMDAwNDg4MjgxMjUsLTAuMDAwNDg4MjgxMjUpIiBpZD0iYnVsbGV0LWNoYXItdGVtcGxhdGUtNTczNTQiPgogICA8cGF0aCBkPSJNIDgsMTEyOCBMIDExMzcsMTEyOCAxMTM3LDAgOCwwIDgsMTEyOCBaIi8+CiAgPC9nPgogIDxnIHRyYW5zZm9ybT0ic2NhbGUoMC4wMDA0ODgyODEyNSwtMC4wMDA0ODgyODEyNSkiIGlkPSJidWxsZXQtY2hhci10ZW1wbGF0ZS0xMDE0NiI+CiAgIDxwYXRoIGQ9Ik0gMTc0LDAgTCA2MDIsNzM5IDE3NCwxNDgxIDE0NTYsNzM5IDE3NCwwIFogTSAxMzU4LDczOSBMIDMwOSwxMzQ2IDY1OSw3MzkgMTM1OCw3MzkgWiIvPgogIDwvZz4KICA8ZyB0cmFuc2Zvcm09InNjYWxlKDAuMDAwNDg4MjgxMjUsLTAuMDAwNDg4MjgxMjUpIiBpZD0iYnVsbGV0LWNoYXItdGVtcGxhdGUtMTAxMzIiPgogICA8cGF0aCBkPSJNIDIwMTUsNzM5IEwgMTI3NiwwIDcxNywwIDEyNjAsNTQzIDE3NCw1NDMgMTc0LDkzNiAxMjYwLDkzNiA3MTcsMTQ4MSAxMjc0LDE0ODEgMjAxNSw3MzkgWiIvPgogIDwvZz4KICA8ZyB0cmFuc2Zvcm09InNjYWxlKDAuMDAwNDg4MjgxMjUsLTAuMDAwNDg4MjgxMjUpIiBpZD0iYnVsbGV0LWNoYXItdGVtcGxhdGUtMTAwMDciPgogICA8cGF0aCBkPSJNIDAsLTIgQyAtNywxNCAtMTYsMjcgLTI1LDM3IEwgMzU2LDU2NyBDIDI2Miw4MjMgMjE1LDk1MiAyMTUsOTU0IDIxNSw5NzkgMjI4LDk5MiAyNTUsOTkyIDI2NCw5OTIgMjc2LDk5MCAyODksOTg3IDMxMCw5OTEgMzMxLDk5OSAzNTQsMTAxMiBMIDM4MSw5OTkgNDkyLDc0OCA3NzIsMTA0OSA4MzYsMTAyNCA4NjAsMTA0OSBDIDg4MSwxMDM5IDkwMSwxMDI1IDkyMiwxMDA2IDg4Niw5MzcgODM1LDg2MyA3NzAsNzg0IDc2OSw3ODMgNzEwLDcxNiA1OTQsNTg0IEwgNzc0LDIyMyBDIDc3NCwxOTYgNzUzLDE2OCA3MTEsMTM5IEwgNzI3LDExOSBDIDcxNyw5MCA2OTksNzYgNjcyLDc2IDY0MSw3NiA1NzAsMTc4IDQ1NywzODEgTCAxNjQsLTc2IEMgMTQyLC0xMTAgMTExLC0xMjcgNzIsLTEyNyAzMCwtMTI3IDksLTExMCA4LC03NiAxLC02NyAtMiwtNTIgLTIsLTMyIC0yLC0yMyAtMSwtMTMgMCwtMiBaIi8+CiAgPC9nPgogIDxnIHRyYW5zZm9ybT0ic2NhbGUoMC4wMDA0ODgyODEyNSwtMC4wMDA0ODgyODEyNSkiIGlkPSJidWxsZXQtY2hhci10ZW1wbGF0ZS0xMDAwNCI+CiAgIDxwYXRoIGQ9Ik0gMjg1LC0zMyBDIDE4MiwtMzMgMTExLDMwIDc0LDE1NiA1MiwyMjggNDEsMzMzIDQxLDQ3MSA0MSw1NDkgNTUsNjE2IDgyLDY3MiAxMTYsNzQzIDE2OSw3NzggMjQwLDc3OCAyOTMsNzc4IDMyOCw3NDcgMzQ2LDY4NCBMIDM2OSw1MDggQyAzNzcsNDQ0IDM5Nyw0MTEgNDI4LDQxMCBMIDExNjMsMTExNiBDIDExNzQsMTEyNyAxMTk2LDExMzMgMTIyOSwxMTMzIDEyNzEsMTEzMyAxMjkyLDExMTggMTI5MiwxMDg3IEwgMTI5Miw5NjUgQyAxMjkyLDkyOSAxMjgyLDkwMSAxMjYyLDg4MSBMIDQ0Miw0NyBDIDM5MCwtNiAzMzgsLTMzIDI4NSwtMzMgWiIvPgogIDwvZz4KICA8ZyB0cmFuc2Zvcm09InNjYWxlKDAuMDAwNDg4MjgxMjUsLTAuMDAwNDg4MjgxMjUpIiBpZD0iYnVsbGV0LWNoYXItdGVtcGxhdGUtOTY3OSI+CiAgIDxwYXRoIGQ9Ik0gODEzLDAgQyA2MzIsMCA0ODksNTQgMzgzLDE2MSAyNzYsMjY4IDIyMyw0MTEgMjIzLDU5MiAyMjMsNzczIDI3Niw5MTYgMzgzLDEwMjMgNDg5LDExMzAgNjMyLDExODQgODEzLDExODQgOTkyLDExODQgMTEzNiwxMTMwIDEyNDUsMTAyMyAxMzUzLDkxNiAxNDA3LDc3MiAxNDA3LDU5MiAxNDA3LDQxMiAxMzUzLDI2OCAxMjQ1LDE2MSAxMTM2LDU0IDk5MiwwIDgxMywwIFoiLz4KICA8L2c+CiAgPGcgdHJhbnNmb3JtPSJzY2FsZSgwLjAwMDQ4ODI4MTI1LC0wLjAwMDQ4ODI4MTI1KSIgaWQ9ImJ1bGxldC1jaGFyLXRlbXBsYXRlLTgyMjYiPgogICA8cGF0aCBkPSJNIDM0Niw0NTcgQyAyNzMsNDU3IDIwOSw0ODMgMTU1LDUzNSAxMDEsNTg2IDc0LDY0OSA3NCw3MjMgNzQsNzk2IDEwMSw4NTkgMTU1LDkxMSAyMDksOTYzIDI3Myw5ODkgMzQ2LDk4OSA0MTksOTg5IDQ4MCw5NjMgNTMxLDkxMCA1ODIsODU5IDYwOCw3OTYgNjA4LDcyMyA2MDgsNjQ4IDU4Myw1ODYgNTMyLDUzNSA0ODIsNDgzIDQyMCw0NTcgMzQ2LDQ1NyBaIi8+CiAgPC9nPgogIDxnIHRyYW5zZm9ybT0ic2NhbGUoMC4wMDA0ODgyODEyNSwtMC4wMDA0ODgyODEyNSkiIGlkPSJidWxsZXQtY2hhci10ZW1wbGF0ZS04MjExIj4KICAgPHBhdGggZD0iTSAtNCw0NTkgTCAxMTM1LDQ1OSAxMTM1LDYwNiAtNCw2MDYgLTQsNDU5IFoiLz4KICA8L2c+CiAgPGcgdHJhbnNmb3JtPSJzY2FsZSgwLjAwMDQ4ODI4MTI1LC0wLjAwMDQ4ODI4MTI1KSIgaWQ9ImJ1bGxldC1jaGFyLXRlbXBsYXRlLTYxNTQ4Ij4KICAgPHBhdGggZD0iTSAxNzMsNzQwIEMgMTczLDkwMyAyMzEsMTA0MyAzNDYsMTE1OSA0NjIsMTI3NCA2MDEsMTMzMiA3NjUsMTMzMiA5MjgsMTMzMiAxMDY3LDEyNzQgMTE4MywxMTU5IDEyOTksMTA0MyAxMzU3LDkwMyAxMzU3LDc0MCAxMzU3LDU3NyAxMjk5LDQzNyAxMTgzLDMyMiAxMDY3LDIwNiA5MjgsMTQ4IDc2NSwxNDggNjAxLDE0OCA0NjIsMjA2IDM0NiwzMjIgMjMxLDQzNyAxNzMsNTc3IDE3Myw3NDAgWiIvPgogIDwvZz4KIDwvZGVmcz4KIDxkZWZzPgogIDxnIGNsYXNzPSJNYXN0ZXJfU2xpZGUiIGlkPSJkdW1teS1tYXN0ZXItcGFnZSI+CiAgIDxnIHZpc2liaWxpdHk9ImhpZGRlbiIgY2xhc3M9IkJhY2tncm91bmQiIGlkPSJiZy1kdW1teS1tYXN0ZXItcGFnZSIvPgogICA8ZyB2aXNpYmlsaXR5PSJoaWRkZW4iIGNsYXNzPSJCYWNrZ3JvdW5kT2JqZWN0cyIgaWQ9ImJvLWR1bW15LW1hc3Rlci1wYWdlIi8+CiAgPC9nPgogIDxnIGNsYXNzPSJNYXN0ZXJfU2xpZGUiIGlkPSJpZDIiPgogICA8ZyBjbGFzcz0iQmFja2dyb3VuZCIgaWQ9ImJnLWlkMiIvPgogICA8ZyBjbGFzcz0iQmFja2dyb3VuZE9iamVjdHMiIGlkPSJiby1pZDIiPgogICAgPGcgY2xhc3M9IkRhdGVUaW1lIiB2aXNpYmlsaXR5PSJoaWRkZW4iPgogICAgIDxnIGlkPSJpZDMiPgogICAgICA8cmVjdCBoZWlnaHQ9IjEwODYiIHdpZHRoPSI2NTI0IiB5PSIxNDM0OCIgeD0iMTQwMCIgZmlsbD0ibm9uZSIgc3Ryb2tlPSJub25lIiBjbGFzcz0iQm91bmRpbmdCb3giLz4KICAgICAgPHRleHQgY2xhc3M9IlNWR1RleHRTaGFwZSI+PHRzcGFuIGNsYXNzPSJUZXh0UGFyYWdyYXBoIj48dHNwYW4geT0iMTQ3ODAiIHg9IjE0MDAiIGNsYXNzPSJUZXh0UG9zaXRpb24iPjx0c3BhbiBzdHlsZT0id2hpdGUtc3BhY2U6IHByZSIgc3Ryb2tlPSJub25lIiBmaWxsPSJyZ2IoMCwwLDApIiB0ZXh0TGVuZ3RoPSIyODkyIiBsZW5ndGhBZGp1c3Q9InNwYWNpbmdBbmRHbHlwaHMiIGZvbnQtd2VpZ2h0PSI0MDAiIGZvbnQtc2l6ZT0iNDkzcHgiIGZvbnQtZmFtaWx5PSLmuLjmmI7mnJ0iIGNsYXNzPSJQbGFjZWhvbGRlclRleHQgRGF0ZVRpbWUiPiZsdDvml6Xku5gv5pmC5Yi7Jmd0OzwvdHNwYW4+PC90c3Bhbj48L3RzcGFuPjwvdGV4dD4KICAgICA8L2c+CiAgICA8L2c+CiAgICA8ZyBjbGFzcz0iRm9vdGVyIiB2aXNpYmlsaXR5PSJoaWRkZW4iPgogICAgIDxnIGlkPSJpZDQiPgogICAgICA8cmVjdCBoZWlnaHQ9IjEwODYiIHdpZHRoPSI4ODc2IiB5PSIxNDM0OCIgeD0iOTU3NiIgZmlsbD0ibm9uZSIgc3Ryb2tlPSJub25lIiBjbGFzcz0iQm91bmRpbmdCb3giLz4KICAgICAgPHRleHQgY2xhc3M9IlNWR1RleHRTaGFwZSI+PHRzcGFuIGNsYXNzPSJUZXh0UGFyYWdyYXBoIj48dHNwYW4geT0iMTQ3ODAiIHg9IjEyNjgzIiBjbGFzcz0iVGV4dFBvc2l0aW9uIj48dHNwYW4gc3R5bGU9IndoaXRlLXNwYWNlOiBwcmUiIHN0cm9rZT0ibm9uZSIgZmlsbD0icmdiKDAsMCwwKSIgdGV4dExlbmd0aD0iMjY2MiIgbGVuZ3RoQWRqdXN0PSJzcGFjaW5nQW5kR2x5cGhzIiBmb250LXdlaWdodD0iNDAwIiBmb250LXNpemU9IjQ5M3B4IiBmb250LWZhbWlseT0i5ri45piO5pydIiBjbGFzcz0iUGxhY2Vob2xkZXJUZXh0IEZvb3RlciI+Jmx0O+ODleODg+OCv+ODvCZndDs8L3RzcGFuPjwvdHNwYW4+PC90c3Bhbj48L3RleHQ+CiAgICAgPC9nPgogICAgPC9nPgogICAgPGcgY2xhc3M9IlBhZ2VOdW1iZXIiIHZpc2liaWxpdHk9ImhpZGRlbiI+CiAgICAgPGcgaWQ9ImlkNSI+CiAgICAgIDxyZWN0IGhlaWdodD0iMTA4NiIgd2lkdGg9IjY1MjQiIHk9IjE0MzQ4IiB4PSIyMDA3NiIgZmlsbD0ibm9uZSIgc3Ryb2tlPSJub25lIiBjbGFzcz0iQm91bmRpbmdCb3giLz4KICAgICAgPHRleHQgY2xhc3M9IlNWR1RleHRTaGFwZSI+PHRzcGFuIGNsYXNzPSJUZXh0UGFyYWdyYXBoIj48dHNwYW4geT0iMTQ3ODAiIHg9IjI0OTIxIiBjbGFzcz0iVGV4dFBvc2l0aW9uIj48dHNwYW4gc3R5bGU9IndoaXRlLXNwYWNlOiBwcmUiIHN0cm9rZT0ibm9uZSIgZmlsbD0icmdiKDAsMCwwKSIgdGV4dExlbmd0aD0iMTY3OSIgbGVuZ3RoQWRqdXN0PSJzcGFjaW5nQW5kR2x5cGhzIiBmb250LXdlaWdodD0iNDAwIiBmb250LXNpemU9IjQ5M3B4IiBmb250LWZhbWlseT0i5ri45piO5pydIiBjbGFzcz0iUGxhY2Vob2xkZXJUZXh0IFBhZ2VOdW1iZXIiPiZsdDvnlarlj7cmZ3Q7PC90c3Bhbj48L3RzcGFuPjwvdHNwYW4+PC90ZXh0PgogICAgIDwvZz4KICAgIDwvZz4KICAgPC9nPgogIDwvZz4KIDwvZGVmcz4KIDxnIGNsYXNzPSJEdW1teVNsaWRlIj4KICA8Zz4KICAgPGcgY2xpcC1wYXRoPSJ1cmwoI3ByZXNlbnRhdGlvbl9jbGlwX3BhdGgpIiBjbGFzcz0iU2xpZGUiIGlkPSJkdW1teS1zbGlkZSI+CiAgICA8ZyBjbGFzcz0iUGFnZSIvPgogICA8L2c+CiAgPC9nPgogPC9nPgogPGcgY2xhc3M9IlNsaWRlR3JvdXAiPgogIDxnIHZpc2liaWxpdHk9ImhpZGRlbiI+CiAgIDxnIGlkPSJjb250YWluZXItaWQxIj4KICAgIDxnIGNsaXAtcGF0aD0idXJsKCNwcmVzZW50YXRpb25fY2xpcF9wYXRoKSIgY2xhc3M9IlNsaWRlIiBpZD0iaWQxIj4KICAgICA8ZyBjbGFzcz0iUGFnZSI+CiAgICAgIDxnIGNsYXNzPSJUaXRsZVRleHQiPgogICAgICAgPGcgaWQ9ImlkNiI+CiAgICAgICAgPHJlY3QgaGVpZ2h0PSIyNjMwIiB3aWR0aD0iMjUyMDAiIHk9IjYyOCIgeD0iMTQwMCIgZmlsbD0ibm9uZSIgc3Ryb2tlPSJub25lIiBjbGFzcz0iQm91bmRpbmdCb3giLz4KICAgICAgICA8dGV4dCBjbGFzcz0iU1ZHVGV4dFNoYXBlIj48dHNwYW4gY2xhc3M9IlRleHRQYXJhZ3JhcGgiPjx0c3BhbiB5PSIyNDgwIiB4PSI4Mjg3IiBjbGFzcz0iVGV4dFBvc2l0aW9uIj48dHNwYW4gc3R5bGU9IndoaXRlLXNwYWNlOiBwcmUiIHN0cm9rZT0ibm9uZSIgZmlsbD0icmdiKDAsMCwwKSIgdGV4dExlbmd0aD0iMTE0MjUiIGxlbmd0aEFkanVzdD0ic3BhY2luZ0FuZEdseXBocyIgZm9udC13ZWlnaHQ9IjQwMCIgZm9udC1zaXplPSIxNTUycHgiIGZvbnQtZmFtaWx5PSJMaWJlcmF0aW9uIFNhbnMsIHNhbnMtc2VyaWYiPlRpdGxlICBvZiBJbXByZXNzIDwvdHNwYW4+PC90c3Bhbj48L3RzcGFuPjwvdGV4dD4KICAgICAgIDwvZz4KICAgICAgPC9nPgogICAgICA8ZyBjbGFzcz0iY29tLnN1bi5zdGFyLmRyYXdpbmcuQ3VzdG9tU2hhcGUiPgogICAgICAgPGcgaWQ9ImlkNyI+CiAgICAgICAgPHJlY3QgaGVpZ2h0PSI1MDAzIiB3aWR0aD0iOTUwMyIgeT0iNDQ5OSIgeD0iMzk5OSIgZmlsbD0ibm9uZSIgc3Ryb2tlPSJub25lIiBjbGFzcz0iQm91bmRpbmdCb3giLz4KICAgICAgICA8cGF0aCBkPSJNIDg3NTAsOTUwMCBMIDQwMDAsOTUwMCA0MDAwLDQ1MDAgMTM1MDAsNDUwMCAxMzUwMCw5NTAwIDg3NTAsOTUwMCBaIiBzdHJva2U9Im5vbmUiIGZpbGw9InJnYigxMTQsMTU5LDIwNykiLz4KICAgICAgICA8cGF0aCBkPSJNIDg3NTAsOTUwMCBMIDQwMDAsOTUwMCA0MDAwLDQ1MDAgMTM1MDAsNDUwMCAxMzUwMCw5NTAwIDg3NTAsOTUwMCBaIiBzdHJva2U9InJnYig1MiwxMDEsMTY0KSIgZmlsbD0ibm9uZSIvPgogICAgICAgIDx0ZXh0IGNsYXNzPSJTVkdUZXh0U2hhcGUiPjx0c3BhbiBjbGFzcz0iVGV4dFBhcmFncmFwaCI+PHRzcGFuIHk9IjcyNTQiIHg9IjgxMTUiIGNsYXNzPSJUZXh0UG9zaXRpb24iPjx0c3BhbiBzdHlsZT0id2hpdGUtc3BhY2U6IHByZSIgc3Ryb2tlPSJub25lIiBmaWxsPSJyZ2IoMCwwLDApIiB0ZXh0TGVuZ3RoPSIxMjcwIiBsZW5ndGhBZGp1c3Q9InNwYWNpbmdBbmRHbHlwaHMiIGZvbnQtd2VpZ2h0PSI0MDAiIGZvbnQtc2l6ZT0iNjM1cHgiIGZvbnQtZmFtaWx5PSJOb3RvIFNhbnMgSlAsIHNhbnMtc2VyaWYiPuapn+iDvTwvdHNwYW4+PC90c3Bhbj48L3RzcGFuPjwvdGV4dD4KICAgICAgIDwvZz4KICAgICAgPC9nPgogICAgICA8ZyBjbGFzcz0iY29tLnN1bi5zdGFyLmRyYXdpbmcuQ3VzdG9tU2hhcGUiPgogICAgICAgPGcgaWQ9ImlkOCI+CiAgICAgICAgPHJlY3QgaGVpZ2h0PSIyMDAzIiB3aWR0aD0iNjUwMyIgeT0iNDk5OSIgeD0iMTU5OTkiIGZpbGw9Im5vbmUiIHN0cm9rZT0ibm9uZSIgY2xhc3M9IkJvdW5kaW5nQm94Ii8+CiAgICAgICAgPHBhdGggZD0iTSAxOTI1MCw3MDAwIEwgMTYwMDAsNzAwMCAxNjAwMCw1MDAwIDIyNTAwLDUwMDAgMjI1MDAsNzAwMCAxOTI1MCw3MDAwIFoiIHN0cm9rZT0ibm9uZSIgZmlsbD0icmdiKDExNCwxNTksMjA3KSIvPgogICAgICAgIDxwYXRoIGQ9Ik0gMTkyNTAsNzAwMCBMIDE2MDAwLDcwMDAgMTYwMDAsNTAwMCAyMjUwMCw1MDAwIDIyNTAwLDcwMDAgMTkyNTAsNzAwMCBaIiBzdHJva2U9InJnYig1MiwxMDEsMTY0KSIgZmlsbD0ibm9uZSIvPgogICAgICAgIDx0ZXh0IGNsYXNzPSJTVkdUZXh0U2hhcGUiPjx0c3BhbiBjbGFzcz0iVGV4dFBhcmFncmFwaCI+PHRzcGFuIHk9IjYyMjEiIHg9IjE4NjE1IiBjbGFzcz0iVGV4dFBvc2l0aW9uIj48dHNwYW4gc3R5bGU9IndoaXRlLXNwYWNlOiBwcmUiIHN0cm9rZT0ibm9uZSIgZmlsbD0icmdiKDAsMCwwKSIgdGV4dExlbmd0aD0iMTI3MCIgbGVuZ3RoQWRqdXN0PSJzcGFjaW5nQW5kR2x5cGhzIiBmb250LXdlaWdodD0iNDAwIiBmb250LXNpemU9IjYzNXB4IiBmb250LWZhbWlseT0iTGliZXJhdGlvbiBTYW5zLCBzYW5zLXNlcmlmIj5VUkw8L3RzcGFuPjwvdHNwYW4+PC90c3Bhbj48L3RleHQ+CiAgICAgICA8L2c+CiAgICAgIDwvZz4KICAgICAgPGcgY2xhc3M9ImNvbS5zdW4uc3Rhci5kcmF3aW5nLkNvbm5lY3RvclNoYXBlIj4KICAgICAgIDxnIGlkPSJpZDkiPgogICAgICAgIDxyZWN0IGhlaWdodD0iMTE1MiIgd2lkdGg9IjI1MDIiIHk9IjU4NTAiIHg9IjEzNDk5IiBmaWxsPSJub25lIiBzdHJva2U9Im5vbmUiIGNsYXNzPSJCb3VuZGluZ0JveCIvPgogICAgICAgIDxwYXRoIGQ9Ik0gMTM1MDAsNzAwMCBMIDE0MDAxLDcwMDAgMTU0OTksNjAwMCAxNTcyMCw2MDAwIiBzdHJva2U9InJnYig1MiwxMDEsMTY0KSIgZmlsbD0ibm9uZSIvPgogICAgICAgIDxwYXRoIGQ9Ik0gMTU3MDAsNTg1MCBMIDE2MDAwLDYwMDAgMTU3MDAsNjE1MCAxNTcwMCw1ODUwIFoiIHN0cm9rZT0ibm9uZSIgZmlsbD0icmdiKDUyLDEwMSwxNjQpIi8+CiAgICAgICA8L2c+CiAgICAgIDwvZz4KICAgICA8L2c+CiAgICA8L2c+CiAgIDwvZz4KICA8L2c+CiA8L2c+CiAKPC9zdmc+;" parent="1" vertex="1">
                    <mxGeometry x="10" y="100" width="1200" height="423" as="geometry"/>
                </mxCell>
                <mxCell id="3" value="" style="rounded=0;whiteSpace=wrap;html=1;" vertex="1" parent="1">
                    <mxGeometry x="170" y="300" width="120" height="60" as="geometry"/>
                </mxCell>
                <mxCell id="4" value="" style="endArrow=none;html=1;" edge="1" parent="1">
                    <mxGeometry width="50" height="50" relative="1" as="geometry">
                        <mxPoint x="210" y="350" as="sourcePoint"/>
                        <mxPoint x="260" y="300" as="targetPoint"/>
                        <Array as="points">
                            <mxPoint x="230" y="180"/>
                        </Array>
                    </mxGeometry>
                </mxCell>
                <mxCell id="5" value="" style="shape=image;verticalLabelPosition=bottom;labelBackgroundColor=default;verticalAlign=top;aspect=fixed;imageAspect=0;image=data:image/png,iVBORw0KGgoAAAANSUhEUgAAAPYAAABMCAYAAABeQ0rbAAAACXBIWXMAAA7IAAAO1gGaHb6zAAAEAUlEQVR4nO3ab0hddRzH8c9xZ5NsCfNadCNGojhzaCwcwubAC7YNoRrSCLYHI7irHgTFUOgPbQ/GYA+iyIgaCRcHbU/GCmHCjcUdNK0IJiRECzcv64GCu9m9Trfrv9MDpZiZSz3rnL6+XyBe9Ie/L1zf/PSc4zS1fTmb/f2WIwAmeJLcbHbc2VlfLaeAtgELZmZmZ1xJcpy5DwAGOPIKgp4BgP8IGzCIsAGDCBswiLABgwgbMIiwAYMIGzCIsAGDCBswiLABgwgbMIiwAYMIGzCIsAGDCBswiLABgwgbMIiwAYMIGzCIsAGDCBswiLABgwgbMIiwAYMIGzDIDXoALDDUrsTbCY2qUc8lPlDFkosH9c1bLfphWNrUfF4v7S/78zsD7dvU1XePvdyIijfHtP3QK3pqc+kqZ0GYcGJb50ZUVLz4x7rpjHLXz+nrY8+oo6NHd4KeFb7hxDZu0+7P7jrJ75bX0FeHdf5sv3I9r6m76ju1NBT+p/Ph/uDEXtMKFd19Ws07N0iS0peTmg54IviDsKGymh1zL7Jp5YIdBT4hbGg8mwl6BPiMsNe8QV1J9UuS1pXvUEnA08AfXDxbs/K6c6NX33YeVd+wJNVo1766oIeCTwjbuNHuFr3ffY9FbqW2vfmxnl7kVjb+nwjbOjeioqKFXxzTRG5SUqVqj5xUY00ZvwjG8H6GmB+3nha/j/2jUq2H1Jf5Rb/ekNwaHzZCqHDxLGzWb5x/kdbI0L9YPzX36cHoY8vYpFax+LMqlDR67piu3FzeiAg/wg6b0lpFXUlKa+Rafum1N3uVzkhSRA9Hl/nEWFWbGrdIUr8udXTxOKkxhB06ddpSP/8k2IVT+u0f141p4MynGpGkyB5tLV/uPg9pa7xVj0rS1RNKfj+2snERSoQdQmUHTqr8AUnDCZ093q7B7IKTe2pQP3/yorr6bknaqOp4mx5ZyUalB7W3+QlJk7rWeUIDU6udHGHBxbMwKorp+Xdbdeb4exq+ntAXbyT+uro9NaaJ25PzC6OqPnJae6tWvlXJ/ndUnTqsn24nlex8QRXxxe5l9yr5epMuLvFzKuIX1cRFuNAg7LCKHtSBD/do6PIppS6kNJLJaCInSRtUWFypxxte1a59MZWsX+1GdWqKN+rqR5eU7zmqVKxbsb/9WT+pfG7px07HOe1Dxdn+8udeQ/2TcgqcoGcB4IPpmdlp/scGDCJswCDCBgwibMAgwgYMImzAIMIGDCJswCDCBgwibMAgwgYMImzAIMIGDCJswCDCBgwibMAgwgYMImzAIMIGDCJswCDCBgwibMAgwgYMImzAIMIGDCJswCDCBgwibMAgV5JmPU+OF/QouO88R7zR9nme5/wBSiziGTxnHggAAAAASUVORK5CYII=;" vertex="1" parent="1">
                    <mxGeometry x="120" y="410" width="246" height="76" as="geometry"/>
                </mxCell>
            </root>
        </mxGraphModel>
    </diagram>
</mxfile>